<?xml version="1.0" encoding="iso-8859-1"?>
<!-- Generator: Adobe Illustrator 19.0.0, SVG Export Plug-In . SVG Version: 6.00 Build 0)  -->
<svg xmlns="http://www.w3.org/2000/svg" xmlns:xlink="http://www.w3.org/1999/xlink" version="1.1" id="Layer_1" x="0px" y="0px" viewBox="0 0 512 512" style="enable-background:new 0 0 512 512;" xml:space="preserve">
<rect x="115.441" y="110.096" style="fill:#D7D8D9;" width="316.392" height="393.353"/>
<rect x="81.236" y="75.891" style="fill:#EBEBEC;" width="307.841" height="384.802"/>
<rect x="81.236" y="75.891" style="fill:#D7D8D9;" width="25.653" height="384.802"/>
<polygon style="fill:#CF442B;" points="269.361,110.096 200.952,110.096 183.85,58.789 286.463,58.789 "/>
<polygon style="fill:#B83C26;" points="183.85,58.789 200.952,110.096 218.054,110.096 200.952,58.789 "/>
<path d="M431.299,195.072c4.427,0,8.017-3.588,8.017-8.017v-76.959c0-4.428-3.055-7.482-7.482-7.482H396.56V75.891  c0-4.428-3.055-7.482-7.482-7.482h-97.191l2.184-6.817c0.815-2.445,0.405-4.999-1.102-7.09c-1.507-2.09-3.927-3.195-6.504-3.195  h-26.722V35.563l16.023-23.366C279.254,6.961,275.633,0,269.361,0h-68.409c-6.272,0-10.427,6.961-6.937,12.196l15.488,23.367v15.744  H183.85c-2.577,0-4.997,0.972-6.503,3.061c-1.507,2.091-1.917,4.913-1.102,7.357l2.183,6.684H81.236  c-4.427,0-8.551,3.054-8.551,7.482v384.802c0,4.428,4.124,8.551,8.551,8.551h25.653v34.205c0,4.428,4.124,8.551,8.551,8.551h316.393  c4.427,0,7.482-4.123,7.482-8.551V221.262c0-4.428-3.589-8.017-8.017-8.017c-4.427,0-8.017,3.588-8.017,8.017v274.705H122.923  v-26.722h43.825c4.427,0,8.017-3.588,8.017-8.017s-3.589-8.017-8.017-8.017H88.718V84.443h95.054l9.574,28.723  c1.091,3.274,4.155,5.481,7.605,5.481h68.409c3.45,0,6.514-2.207,7.605-5.481l9.576-28.723h93.985v368.768H200.952  c-4.427,0-8.017,3.588-8.017,8.017s3.589,8.017,8.017,8.017h188.125c4.427,0,7.482-4.123,7.482-8.551V118.647h26.722v68.408  C423.282,191.484,426.871,195.072,431.299,195.072z M224.457,28.956l-8.525-12.923h38.451l-9.061,12.923  c-0.879,1.316-1.614,2.597-1.614,4.179v18.171h-18.171V33.136C225.537,31.554,225.336,30.272,224.457,28.956z M243.708,67.34v35.273  h-18.171V67.34H243.708z M194.973,67.34h14.531v35.273h-2.773L194.973,67.34z M263.583,102.614h-3.842V67.34h15.599L263.583,102.614  z"/>
<path d="M320.668,128.267h-68.409c-4.427,0-8.551,3.054-8.551,7.482v68.409c0,4.428,4.124,8.551,8.551,8.551h68.409  c4.427,0,7.482-4.123,7.482-8.551v-39.853l31.114-22.034c3.603-2.573,4.571-7.58,1.998-11.183  c-2.574-3.604-7.782-4.439-11.384-1.863l-21.728,15.377v-8.854C328.15,131.321,325.095,128.267,320.668,128.267z M312.117,196.676  h-52.376v-52.376h52.376v11.756l-16.503,11.979l-12.166-12.301c-3.131-3.13-8.14-3.13-11.27,0  c-3.131,3.132-3.098,8.207,0.033,11.338l17.119,17.102c2.735,2.735,6.92,3.103,10.069,0.854l12.718-9.269V196.676z"/>
<path d="M123.992,161.403h76.96c4.427,0,8.017-3.588,8.017-8.017c0-4.428-3.589-8.017-8.017-8.017h-76.96  c-4.427,0-8.017,3.588-8.017,8.017C115.975,157.815,119.564,161.403,123.992,161.403z"/>
<path d="M123.992,195.608h42.756c4.427,0,8.017-3.588,8.017-8.017s-3.589-8.017-8.017-8.017h-42.756  c-4.427,0-8.017,3.588-8.017,8.017S119.564,195.608,123.992,195.608z"/>
<path d="M328.15,247.449c0-4.427-3.589-8.017-8.017-8.017h-68.409c-4.427,0-8.017,3.589-8.017,8.017v68.409  c0,4.427,3.589,8.017,8.017,8.017h68.409c4.427,0,8.017-3.589,8.017-8.017V247.449z M259.741,255.466h52.376v52.376h-52.376V255.466  z"/>
<path d="M123.992,272.568h76.96c4.427,0,8.017-3.588,8.017-8.017s-3.589-8.017-8.017-8.017h-76.96c-4.427,0-8.017,3.588-8.017,8.017  S119.564,272.568,123.992,272.568z"/>
<path d="M123.992,306.772h51.307c4.427,0,8.017-3.588,8.017-8.017s-3.589-8.017-8.017-8.017h-51.307  c-4.427,0-8.017,3.588-8.017,8.017S119.564,306.772,123.992,306.772z"/>
<path d="M328.15,358.614c0-4.427-3.589-8.017-8.017-8.017h-68.409c-4.427,0-8.017,3.589-8.017,8.017v68.409  c0,4.427,3.589,8.017,8.017,8.017h68.409c4.427,0,8.017-3.589,8.017-8.017V358.614z M259.741,366.63h52.376v52.376h-52.376V366.63z"/>
<path d="M208.969,375.716c0-4.428-3.589-8.017-8.017-8.017h-76.96c-4.427,0-8.017,3.588-8.017,8.017  c0,4.428,3.589,8.017,8.017,8.017h76.96C205.379,383.733,208.969,380.145,208.969,375.716z"/>
<path d="M123.992,401.904c-4.427,0-8.017,3.588-8.017,8.017s3.589,8.017,8.017,8.017h42.756c4.427,0,8.017-3.588,8.017-8.017  s-3.589-8.017-8.017-8.017H123.992z"/>
<g>
</g>
<g>
</g>
<g>
</g>
<g>
</g>
<g>
</g>
<g>
</g>
<g>
</g>
<g>
</g>
<g>
</g>
<g>
</g>
<g>
</g>
<g>
</g>
<g>
</g>
<g>
</g>
<g>
</g>
</svg>
