<?xml version="1.0" encoding="iso-8859-1"?>
<!-- Generator: Adobe Illustrator 19.0.0, SVG Export Plug-In . SVG Version: 6.00 Build 0)  -->
<svg xmlns="http://www.w3.org/2000/svg" xmlns:xlink="http://www.w3.org/1999/xlink" version="1.1" id="Layer_1" x="0px" y="0px" viewBox="0 0 512 512" style="enable-background:new 0 0 512 512;" xml:space="preserve">
<rect x="8.847" y="361.607" style="fill:#FDD042;" width="495.413" height="35.387"/>
<rect x="8.847" y="467.767" style="fill:#FDDD85;" width="495.413" height="35.387"/>
<g>
	<rect x="212.32" y="396.993" style="fill:#FDD042;" width="88.467" height="70.773"/>
	<rect x="398.099" y="396.993" style="fill:#FDD042;" width="70.773" height="70.773"/>
	<rect x="44.233" y="396.993" style="fill:#FDD042;" width="70.773" height="70.773"/>
</g>
<g>
	<rect x="44.233" y="396.993" style="fill:#F2C127;" width="70.773" height="26.54"/>
	<rect x="398.099" y="396.993" style="fill:#F2C127;" width="70.773" height="26.54"/>
	<rect x="212.32" y="396.993" style="fill:#F2C127;" width="88.467" height="26.54"/>
</g>
<g>
	<rect x="398.099" y="326.22" style="fill:#FDDD85;" width="88.467" height="35.387"/>
	<rect x="274.246" y="326.22" style="fill:#FDDD85;" width="88.467" height="35.387"/>
	<rect x="150.393" y="326.22" style="fill:#FDDD85;" width="88.467" height="35.387"/>
	<rect x="26.54" y="326.22" style="fill:#FDDD85;" width="88.467" height="35.387"/>
</g>
<rect x="79.62" y="7.741" style="fill:#E5563C;" width="353.866" height="318.479"/>
<rect x="79.62" y="7.741" style="fill:#CF442B;" width="26.54" height="318.479"/>
<rect x="221.166" y="7.741" style="fill:#B83C26;" width="70.773" height="123.853"/>
<rect x="265.4" y="78.514" style="fill:#EBEBEC;" width="123.853" height="159.24"/>
<rect x="265.4" y="78.514" style="fill:#D7D8D9;" width="26.54" height="159.24"/>
<path d="M504.259,405.84c4.581,0,7.741-4.265,7.741-8.847v-35.387c0-4.581-3.159-7.741-7.741-7.741h-9.952V326.22  c0-4.581-3.159-7.741-7.741-7.741h-45.339V78.514c0-4.581-3.712-8.294-8.294-8.294c-4.581,0-8.294,3.712-8.294,8.294v239.965H87.361  V16.587H212.32v115.006c0,4.581,4.265,8.847,8.847,8.847h35.387v97.313c0,4.581,4.265,8.847,8.847,8.847h123.853  c4.581,0,7.741-4.265,7.741-8.847V78.514c0-4.581-3.159-7.741-7.741-7.741H299.68V16.587h124.959v26.54  c0,4.581,3.712,8.294,8.294,8.294c4.581,0,8.294-3.712,8.294-8.294V7.741c0-4.581-3.159-7.741-7.741-7.741H79.62  c-4.581,0-8.847,3.159-8.847,7.741v310.739H26.54c-4.581,0-8.847,3.159-8.847,7.741v27.646H8.847c-4.581,0-8.847,3.159-8.847,7.741  v35.387c0,4.581,4.265,8.847,8.847,8.847h26.54v54.186H8.847c-4.581,0-8.847,3.159-8.847,7.741v35.387  C0,507.735,4.265,512,8.847,512h495.413c4.581,0,7.741-4.265,7.741-8.847v-35.387c0-4.581-3.159-7.741-7.741-7.741h-27.646V405.84  H504.259z M380.406,230.013H273.14V87.361h107.266V230.013z M283.093,16.587v54.186H265.4c-4.581,0-8.847,3.159-8.847,7.741v45.339  h-27.646V16.587H283.093z M477.719,335.067v18.799H405.84v-18.799H477.719z M370.454,353.866v-18.799h18.799v18.799H370.454z   M353.866,335.067v18.799h-71.879v-18.799H353.866z M246.6,353.866v-18.799H265.4v18.799H246.6z M230.013,335.067v18.799h-71.879  v-18.799H230.013z M122.747,353.866v-18.799h18.799v18.799H122.747z M34.281,335.067h71.879v18.799H34.281V335.067z M16.587,370.454  h478.825v18.799H16.587V370.454z M308.527,460.026V405.84h80.726v54.186H308.527z M220.06,405.84h71.879v54.186H220.06V405.84z   M51.974,405.84h54.186v54.186H51.974V405.84z M495.413,495.413H16.587v-18.799h124.959c4.581,0,8.294-3.712,8.294-8.294  s-3.712-8.294-8.294-8.294h-18.799V405.84h80.726v54.186h-26.54c-4.581,0-8.294,3.712-8.294,8.294s3.712,8.294,8.294,8.294h318.479  V495.413z M460.026,460.026H405.84V405.84h54.186V460.026z"/>
<path d="M115.006,220.06h70.773c4.581,0,8.294-3.712,8.294-8.294s-3.712-8.294-8.294-8.294h-70.773  c-4.581,0-8.294,3.712-8.294,8.294S110.425,220.06,115.006,220.06z"/>
<path d="M115.006,255.447h88.467c4.581,0,8.294-3.712,8.294-8.294s-3.712-8.294-8.294-8.294h-88.467  c-4.581,0-8.294,3.712-8.294,8.294S110.425,255.447,115.006,255.447z"/>
<path d="M115.006,290.834h106.16c4.581,0,8.294-3.712,8.294-8.294c0-4.581-3.712-8.294-8.294-8.294h-106.16  c-4.581,0-8.294,3.712-8.294,8.294C106.713,287.121,110.425,290.834,115.006,290.834z"/>
<path d="M283.093,273.14v17.693c0,4.581,3.712,8.294,8.294,8.294c4.581,0,8.294-3.712,8.294-8.294V273.14  c0-4.581-3.712-8.294-8.294-8.294C286.805,264.847,283.093,268.559,283.093,273.14z"/>
<path d="M256.553,273.14v17.693c0,4.581,3.712,8.294,8.294,8.294c4.581,0,8.294-3.712,8.294-8.294V273.14  c0-4.581-3.712-8.294-8.294-8.294C260.265,264.847,256.553,268.559,256.553,273.14z"/>
<path d="M300.786,273.14v17.693c0,4.581,3.712,8.294,8.294,8.294c4.581,0,8.294-3.712,8.294-8.294V273.14  c0-4.581-3.712-8.294-8.294-8.294C304.498,264.847,300.786,268.559,300.786,273.14z"/>
<path d="M345.019,273.14v17.693c0,4.581,3.712,8.294,8.294,8.294c4.581,0,8.294-3.712,8.294-8.294V273.14  c0-4.581-3.712-8.294-8.294-8.294C348.732,264.847,345.019,268.559,345.019,273.14z"/>
<path d="M362.713,273.14v17.693c0,4.581,3.712,8.294,8.294,8.294s8.294-3.712,8.294-8.294V273.14c0-4.581-3.712-8.294-8.294-8.294  S362.713,268.559,362.713,273.14z"/>
<path d="M388.7,264.847c-4.581,0-8.294,3.712-8.294,8.294v17.693c0,4.581,3.712,8.294,8.294,8.294c4.581,0,8.294-3.712,8.294-8.294  V273.14C396.993,268.559,393.281,264.847,388.7,264.847z"/>
<path d="M199.808,89.732l-44.233-35.387c-3.03-2.423-7.333-2.423-10.363,0l-44.233,35.387c-3.576,2.862-4.157,8.081-1.295,11.658  c2.861,3.575,7.804,4.158,11.381,1.295l12.788-10.452v31.621h-8.847c-4.581,0-8.294,3.712-8.294,8.294  c0,4.581,3.712,8.294,8.294,8.294h70.773c4.581,0,8.294-3.712,8.294-8.294c0-4.581-3.712-8.294-8.294-8.294h-9.952V92.232  l13.341,10.452c3.818,3.055,9.745,2.066,12.344-2.066C203.731,97.095,203.054,92.329,199.808,89.732z M159.24,123.853h-18.799  V78.962l9.4-7.52l9.4,7.52V123.853z"/>
<path d="M300.786,122.747h53.08c4.581,0,8.294-3.712,8.294-8.294s-3.712-8.294-8.294-8.294h-53.08c-4.581,0-8.294,3.712-8.294,8.294  S296.205,122.747,300.786,122.747z"/>
<path d="M300.786,166.981h53.08c4.581,0,8.294-3.712,8.294-8.294c0-4.581-3.712-8.294-8.294-8.294h-53.08  c-4.581,0-8.294,3.712-8.294,8.294C292.492,163.268,296.205,166.981,300.786,166.981z"/>
<path d="M300.786,202.367h53.08c4.581,0,8.294-3.712,8.294-8.294s-3.712-8.294-8.294-8.294h-53.08c-4.581,0-8.294,3.712-8.294,8.294  S296.205,202.367,300.786,202.367z"/>
<g>
</g>
<g>
</g>
<g>
</g>
<g>
</g>
<g>
</g>
<g>
</g>
<g>
</g>
<g>
</g>
<g>
</g>
<g>
</g>
<g>
</g>
<g>
</g>
<g>
</g>
<g>
</g>
<g>
</g>
</svg>
