<?xml version="1.0" encoding="iso-8859-1"?>
<!-- Generator: Adobe Illustrator 19.0.0, SVG Export Plug-In . SVG Version: 6.00 Build 0)  -->
<svg xmlns="http://www.w3.org/2000/svg" xmlns:xlink="http://www.w3.org/1999/xlink" version="1.1" id="Layer_1" x="0px" y="0px" viewBox="0 0 512 512" style="enable-background:new 0 0 512 512;" xml:space="preserve">
<polygon style="fill:#88898E;" points="478.646,503.457 273.619,503.457 324.876,93.404 427.39,93.404 "/>
<polygon style="fill:#74757B;" points="324.876,93.404 273.619,503.457 299.248,503.457 350.505,93.404 "/>
<g>
	<polygon style="fill:#E5563C;" points="427.39,93.404 324.876,93.404 321.673,119.032 430.593,119.032  "/>
	<polygon style="fill:#E5563C;" points="439.136,187.374 313.13,187.374 309.926,213.003 442.339,213.003  "/>
	<polygon style="fill:#E5563C;" points="451.95,289.888 300.316,289.888 297.112,315.516 455.154,315.516  "/>
</g>
<g>
	<polygon style="fill:#CF442B;" points="324.876,93.404 321.673,119.032 347.301,119.032 350.505,93.404  "/>
	<polygon style="fill:#CF442B;" points="313.13,187.374 309.926,213.003 335.555,213.003 338.758,187.374  "/>
	<polygon style="fill:#CF442B;" points="300.316,289.888 297.112,315.516 322.741,315.516 325.944,289.888  "/>
</g>
<g>
	<polygon style="fill:#EBEBEC;" points="196.734,503.457 25.879,503.457 25.879,247.174  "/>
	<polygon style="fill:#EBEBEC;" points="282.162,503.457 111.307,503.457 111.307,247.174  "/>
	<polygon style="fill:#EBEBEC;" points="367.59,503.457 196.734,503.457 196.734,247.174  "/>
</g>
<rect x="8.793" y="358.231" style="fill:#FDD042;" width="495.481" height="145.227"/>
<rect x="8.793" y="358.231" style="fill:#F2C127;" width="25.628" height="145.227"/>
<g>
	<rect x="42.96" y="383.859" style="fill:#74757B;" width="34.171" height="34.171"/>
	<rect x="435.928" y="383.859" style="fill:#74757B;" width="34.171" height="34.171"/>
	<rect x="239.444" y="383.859" style="fill:#74757B;" width="34.171" height="34.171"/>
	<rect x="341.957" y="383.859" style="fill:#74757B;" width="34.171" height="34.171"/>
	<rect x="136.931" y="383.859" style="fill:#74757B;" width="34.171" height="34.171"/>
	<rect x="42.96" y="443.659" style="fill:#74757B;" width="34.171" height="34.171"/>
	<rect x="435.928" y="443.659" style="fill:#74757B;" width="34.171" height="34.171"/>
	<rect x="239.444" y="443.659" style="fill:#74757B;" width="34.171" height="34.171"/>
	<rect x="341.957" y="443.659" style="fill:#74757B;" width="34.171" height="34.171"/>
	<rect x="136.931" y="443.659" style="fill:#74757B;" width="34.171" height="34.171"/>
</g>
<g>
	<path style="fill:#EBEBEC;" d="M401.761,25.061c-3.196,0-6.175,0.894-8.734,2.421c0.113-0.792,0.191-1.596,0.191-2.421   c0-9.436-7.649-17.086-17.086-17.086s-17.086,7.65-17.086,17.086c0,0.823,0.078,1.627,0.191,2.421   c-2.559-1.527-5.538-2.421-8.734-2.421c-9.437,0-17.086,7.65-17.086,17.086s7.649,17.086,17.086,17.086h51.257   c9.437,0,17.086-7.65,17.086-17.086S411.198,25.061,401.761,25.061z"/>
	<path style="fill:#EBEBEC;" d="M239.448,76.318c-3.196,0-6.175,0.894-8.734,2.421c0.113-0.792,0.191-1.596,0.191-2.421   c0-9.436-7.649-17.086-17.086-17.086c-9.437,0-17.086,7.65-17.086,17.086c0,0.823,0.078,1.627,0.191,2.421   c-2.559-1.527-5.538-2.421-8.734-2.421c-9.437,0-17.086,7.65-17.086,17.086s7.649,17.086,17.086,17.086h51.257   c9.437,0,17.086-7.65,17.086-17.086S248.885,76.318,239.448,76.318z"/>
	<path style="fill:#EBEBEC;" d="M85.678,119.032c-3.196,0-6.175,0.894-8.734,2.421c0.113-0.792,0.191-1.596,0.191-2.421   c0-9.436-7.649-17.086-17.086-17.086s-17.086,7.65-17.086,17.086c0,0.823,0.078,1.627,0.191,2.421   c-2.559-1.527-5.538-2.421-8.734-2.421c-9.437,0-17.086,7.65-17.086,17.086s7.649,17.086,17.086,17.086h51.257   c9.437,0,17.086-7.65,17.086-17.086S95.115,119.032,85.678,119.032z"/>
</g>
<path d="M504.275,350.755h-36.712L435.338,92.943c-0.502-4.008-3.908-7.015-7.947-7.015H324.877c-4.039,0-7.446,3.007-7.947,7.015  l-32.227,257.812h-9.645L203.4,242.998c-1.997-2.995-6.136-4.434-9.539-3.263c-3.196,1.099-5.668,4.06-5.668,7.439v101.69  l-70.489-106.132c-1.997-2.996-6.001-4.3-9.406-3.13c-3.196,1.1-5.535,4.192-5.535,7.572v97.76L32.196,242.615  c-2.033-2.939-6.022-4.184-9.39-2.992c-3.163,1.119-5.471,4.196-5.471,7.551v42.71c0,4.424,3.585,8.009,8.009,8.009  s8.009-3.585,8.009-8.009v-17.071l54.124,77.942h-50.92v-26.697c0-4.424-3.585-8.009-8.009-8.009s-8.009,3.585-8.009,8.009v26.697  H8.793c-4.424,0-8.543,3.051-8.543,7.475v145.227c0,4.424,4.119,8.543,8.543,8.543h495.481c4.424,0,7.475-4.119,7.475-8.543V358.23  C511.75,353.806,508.699,350.755,504.275,350.755z M307.387,298.43h137.494l1.201,9.611H306.186L307.387,298.43z M309.388,282.413  l7.608-60.867h118.273l7.608,60.867H309.388z M320.2,195.917h111.866l1.201,9.611H318.999L320.2,195.917z M322.202,179.899  l6.541-52.325h94.78l6.541,52.325H322.202z M420.319,101.946l1.201,9.611h-90.776l1.201-9.611H420.319z M255.808,350.755H204.21  v-77.13L255.808,350.755z M170.38,350.755h-51.598v-77.13L170.38,350.755z M495.732,495.982H16.268v-129.21h368.408  c4.424,0,8.009-3.585,8.009-8.009c0-4.424-3.585-8.009-8.009-8.009h-83.83l3.337-26.696h143.901l3.337,26.696h-32.574  c-4.424,0-8.009,3.585-8.009,8.009c0,4.424,3.585,8.009,8.009,8.009h76.885V495.982z"/>
<path d="M84.61,384.392c0-4.423-3.586-8.009-8.009-8.009H42.43c-4.423,0-8.009,3.586-8.009,8.009v34.171  c0,4.423,3.586,8.009,8.009,8.009h34.171c4.423,0,8.009-3.586,8.009-8.009V384.392z M68.593,410.554H50.439v-18.153h18.153V410.554z  "/>
<path d="M477.578,384.392c0-4.423-3.586-8.009-8.009-8.009h-34.171c-4.423,0-8.009,3.586-8.009,8.009v34.171  c0,4.423,3.586,8.009,8.009,8.009h34.171c4.423,0,8.009-3.586,8.009-8.009V384.392z M461.561,410.554h-18.153v-18.153h18.153  V410.554z"/>
<path d="M281.094,384.392c0-4.423-3.586-8.009-8.009-8.009h-34.171c-4.423,0-8.009,3.586-8.009,8.009v34.171  c0,4.423,3.586,8.009,8.009,8.009h34.171c4.423,0,8.009-3.586,8.009-8.009V384.392z M265.077,410.554h-18.153v-18.153h18.153  V410.554z"/>
<path d="M383.608,384.392c0-4.423-3.586-8.009-8.009-8.009h-34.171c-4.423,0-8.009,3.586-8.009,8.009v34.171  c0,4.423,3.586,8.009,8.009,8.009h34.171c4.423,0,8.009-3.586,8.009-8.009V384.392z M367.59,410.554h-18.153v-18.153h18.153V410.554  z"/>
<path d="M178.581,384.392c0-4.423-3.586-8.009-8.009-8.009h-34.171c-4.423,0-8.009,3.586-8.009,8.009v34.171  c0,4.423,3.586,8.009,8.009,8.009h34.171c4.423,0,8.009-3.586,8.009-8.009V384.392z M162.563,410.554H144.41v-18.153h18.153V410.554  z"/>
<path d="M84.61,444.192c0-4.423-3.586-8.009-8.009-8.009H42.43c-4.423,0-8.009,3.586-8.009,8.009v34.171  c0,4.423,3.586,8.009,8.009,8.009h34.171c4.423,0,8.009-3.586,8.009-8.009V444.192z M68.593,470.354H50.439v-18.153h18.153V470.354z  "/>
<path d="M477.578,444.192c0-4.423-3.586-8.009-8.009-8.009h-34.171c-4.423,0-8.009,3.586-8.009,8.009v34.171  c0,4.423,3.586,8.009,8.009,8.009h34.171c4.423,0,8.009-3.586,8.009-8.009V444.192z M461.561,470.354h-18.153v-18.153h18.153  V470.354z"/>
<path d="M281.094,444.192c0-4.423-3.586-8.009-8.009-8.009h-34.171c-4.423,0-8.009,3.586-8.009,8.009v34.171  c0,4.423,3.586,8.009,8.009,8.009h34.171c4.423,0,8.009-3.586,8.009-8.009V444.192z M265.077,470.354h-18.153v-18.153h18.153  V470.354z"/>
<path d="M383.608,444.192c0-4.423-3.586-8.009-8.009-8.009h-34.171c-4.423,0-8.009,3.586-8.009,8.009v34.171  c0,4.423,3.586,8.009,8.009,8.009h34.171c4.423,0,8.009-3.586,8.009-8.009V444.192z M367.59,470.354h-18.153v-18.153h18.153V470.354  z"/>
<path d="M178.581,444.192c0-4.423-3.586-8.009-8.009-8.009h-34.171c-4.423,0-8.009,3.586-8.009,8.009v34.171  c0,4.423,3.586,8.009,8.009,8.009h34.171c4.423,0,8.009-3.586,8.009-8.009V444.192z M162.563,470.354H144.41v-18.153h18.153V470.354  z"/>
<path d="M350.505,67.775h51.257c13.837,0,25.094-11.524,25.094-25.361s-11.257-25.228-25.094-25.228c-0.609,0-1.216-0.044-1.822,0  C396.61,7.229,387.197,0,376.133,0s-20.477,7.179-23.807,17.136c-0.605-0.044-1.213-0.075-1.822-0.075  c-13.837,0-25.094,11.52-25.094,25.357S336.667,67.775,350.505,67.775z M350.505,33.07c1.639,0,3.196,0.434,4.629,1.289  c2.648,1.581,5.972,1.499,8.54-0.208c2.569-1.71,3.929-4.74,3.494-7.796c-0.076-0.533-0.111-0.945-0.111-1.293  c0-5.005,4.072-9.077,9.077-9.077c5.005,0,9.077,4.072,9.077,9.077c0,0.348-0.035,0.76-0.111,1.293  c-0.434,3.055,0.925,6.087,3.494,7.796c2.569,1.709,5.891,1.788,8.54,0.208c1.433-0.855,2.99-1.289,4.629-1.289  c5.005,0,9.077,4.339,9.077,9.344s-4.072,9.344-9.077,9.344h-51.257c-5.005,0-9.077-4.339-9.077-9.344S345.501,33.07,350.505,33.07z  "/>
<path d="M188.192,119.032h51.257c13.837,0,25.094-11.524,25.094-25.361s-11.257-25.228-25.094-25.228c-0.609,0-1.216-0.044-1.822,0  c-3.33-9.957-12.743-17.186-23.807-17.186s-20.477,7.179-23.807,17.136c-0.605-0.044-1.213-0.075-1.822-0.075  c-13.837,0-25.094,11.52-25.094,25.357S174.354,119.032,188.192,119.032z M188.192,84.327c1.639,0,3.196,0.434,4.629,1.289  c2.647,1.581,5.974,1.499,8.54-0.208c2.569-1.71,3.929-4.74,3.494-7.796c-0.076-0.533-0.111-0.945-0.111-1.293  c0-5.005,4.072-9.077,9.077-9.077c5.005,0,9.077,4.072,9.077,9.077c0,0.348-0.035,0.76-0.111,1.293  c-0.434,3.055,0.925,6.087,3.494,7.796c2.569,1.709,5.892,1.789,8.54,0.208c1.433-0.855,2.99-1.289,4.629-1.289  c5.005,0,9.077,4.339,9.077,9.344c0,5.005-4.072,9.344-9.077,9.344h-51.257c-5.005,0-9.077-4.339-9.077-9.344  C179.115,88.666,183.188,84.327,188.192,84.327z"/>
<path d="M34.422,161.746h51.257c13.837,0,25.094-11.524,25.094-25.361c0-13.837-11.257-25.228-25.094-25.228  c-0.609,0-1.216-0.044-1.822,0c-3.33-9.957-12.743-17.186-23.807-17.186s-20.477,7.179-23.807,17.136  c-0.605-0.044-1.213-0.075-1.822-0.075c-13.837,0-25.094,11.52-25.094,25.357S20.584,161.746,34.422,161.746z M34.422,127.041  c1.639,0,3.196,0.434,4.629,1.289c2.648,1.581,5.972,1.499,8.54-0.208c2.569-1.71,3.929-4.74,3.494-7.796  c-0.076-0.533-0.111-0.945-0.111-1.293c0-5.005,4.072-9.077,9.077-9.077s9.077,4.072,9.077,9.077c0,0.348-0.035,0.76-0.111,1.293  c-0.434,3.055,0.925,6.087,3.494,7.796c2.569,1.709,5.891,1.789,8.54,0.208c1.433-0.855,2.99-1.289,4.629-1.289  c5.005,0,9.077,4.339,9.077,9.344s-4.072,9.344-9.077,9.344H34.422c-5.005,0-9.077-4.339-9.077-9.344  C25.345,131.379,29.418,127.041,34.422,127.041z"/>
<g>
</g>
<g>
</g>
<g>
</g>
<g>
</g>
<g>
</g>
<g>
</g>
<g>
</g>
<g>
</g>
<g>
</g>
<g>
</g>
<g>
</g>
<g>
</g>
<g>
</g>
<g>
</g>
<g>
</g>
</svg>
