<?xml version="1.0" encoding="iso-8859-1"?>
<!-- Generator: Adobe Illustrator 19.0.0, SVG Export Plug-In . SVG Version: 6.00 Build 0)  -->
<svg xmlns="http://www.w3.org/2000/svg" xmlns:xlink="http://www.w3.org/1999/xlink" version="1.1" id="Layer_1" x="0px" y="0px" viewBox="0 0 512 512" style="enable-background:new 0 0 512 512;" xml:space="preserve">
<path style="fill:#EBEBEC;" d="M487.415,494.898H25.653c-9.446,0-17.102-7.656-17.102-17.102V33.136  c0-9.446,7.656-17.102,17.102-17.102h461.762c9.446,0,17.102,7.656,17.102,17.102v444.66  C504.518,487.241,496.861,494.898,487.415,494.898z"/>
<path style="fill:#D7D8D9;" d="M42.756,477.795V33.136c0-9.445,7.658-17.102,17.102-17.102H25.653  c-9.445,0-17.102,7.658-17.102,17.102v444.66c0,9.445,7.658,17.102,17.102,17.102h34.205  C50.413,494.898,42.756,487.24,42.756,477.795z"/>
<rect x="8.551" y="169.954" style="fill:#E5563C;" width="495.967" height="34.205"/>
<rect x="8.551" y="169.954" style="fill:#CF442B;" width="34.205" height="34.205"/>
<path d="M487.415,8.551h-59.858c-4.428,0-8.017,3.588-8.017,8.017s3.588,8.017,8.017,8.017h59.858c5.01,0,8.551,3.541,8.551,8.551  v129.336h-35.273V58.789c0-4.428-3.588-8.017-8.017-8.017s-8.017,3.588-8.017,8.017v103.683h-9.62V58.789  c0-4.428-3.588-8.017-8.017-8.017s-8.017,3.588-8.017,8.017v103.683h-9.62V58.789c0-4.428-3.588-8.017-8.017-8.017  s-8.017,3.588-8.017,8.017v103.683h-9.62V58.789c0-4.428-3.588-8.017-8.017-8.017c-4.428,0-8.017,3.588-8.017,8.017v103.683h-9.62  V58.789c0-4.428-3.588-8.017-8.017-8.017c-4.428,0-8.017,3.588-8.017,8.017v103.683h-26.722V58.789c0-4.428-3.588-8.017-8.017-8.017  c-4.428,0-8.017,3.588-8.017,8.017v103.683h-9.62V58.789c0-4.428-3.588-8.017-8.017-8.017s-8.017,3.588-8.017,8.017v103.683h-9.62  V58.789c0-4.428-3.588-8.017-8.017-8.017c-4.428,0-8.017,3.588-8.017,8.017v103.683h-9.62V58.789c0-4.428-3.588-8.017-8.017-8.017  s-8.017,3.588-8.017,8.017v103.683h-9.62V58.789c0-4.428-3.588-8.017-8.017-8.017s-8.017,3.588-8.017,8.017v103.683h-9.62V58.789  c0-4.428-3.588-8.017-8.017-8.017s-8.017,3.588-8.017,8.017v103.683h-26.722V58.789c0-4.428-3.588-8.017-8.017-8.017  c-4.428,0-8.017,3.588-8.017,8.017v103.683h-9.62V58.789c0-4.428-3.588-8.017-8.017-8.017c-4.428,0-8.017,3.588-8.017,8.017v103.683  h-9.62V58.789c0-4.428-3.588-8.017-8.017-8.017c-4.428,0-8.017,3.588-8.017,8.017v103.683h-9.62V58.789  c0-4.428-3.588-8.017-8.017-8.017s-8.017,3.588-8.017,8.017v103.683H16.033V33.136c0-5.01,4.61-8.551,9.62-8.551h367.699  c4.428,0,8.017-3.588,8.017-8.017s-3.588-8.017-8.017-8.017H25.653C11.803,8.551,0,19.285,0,33.136v324.944  c0,4.428,3.588,8.017,8.017,8.017s8.017-3.588,8.017-8.017V212.71h35.273v239.432c0,4.428,3.588,8.017,8.017,8.017  s8.017-3.588,8.017-8.017V212.71h9.62v171.023c0,4.428,3.588,8.017,8.017,8.017c4.428,0,8.017-3.588,8.017-8.017V212.71h9.62  v171.023c0,4.428,3.588,8.017,8.017,8.017c4.428,0,8.017-3.588,8.017-8.017V212.71h9.62v171.023c0,4.428,3.588,8.017,8.017,8.017  c4.428,0,8.017-3.588,8.017-8.017V212.71h26.722v171.023c0,4.428,3.588,8.017,8.017,8.017s8.017-3.588,8.017-8.017V212.71h9.62  v171.023c0,4.428,3.588,8.017,8.017,8.017s8.017-3.588,8.017-8.017V212.71h9.62v171.023c0,4.428,3.588,8.017,8.017,8.017  s8.017-3.588,8.017-8.017V212.71h9.62v171.023c0,4.428,3.588,8.017,8.017,8.017c4.428,0,8.017-3.588,8.017-8.017V212.71h9.62  v171.023c0,4.428,3.588,8.017,8.017,8.017s8.017-3.588,8.017-8.017V212.71h9.62v171.023c0,4.428,3.588,8.017,8.017,8.017  c4.428,0,8.017-3.588,8.017-8.017V212.71h26.722v171.023c0,4.428,3.588,8.017,8.017,8.017c4.428,0,8.017-3.588,8.017-8.017V212.71  h9.62v171.023c0,4.428,3.588,8.017,8.017,8.017c4.428,0,8.017-3.588,8.017-8.017V212.71h9.62v171.023  c0,4.428,3.588,8.017,8.017,8.017s8.017-3.588,8.017-8.017V212.71h9.62v171.023c0,4.428,3.588,8.017,8.017,8.017  s8.017-3.588,8.017-8.017V212.71h9.62v239.432c0,4.428,3.588,8.017,8.017,8.017s8.017-3.588,8.017-8.017V212.71h35.273v265.086  c0,5.01-3.541,9.62-8.551,9.62H25.653c-5.01,0-9.62-4.61-9.62-9.62v-85.511c0-4.428-3.588-8.017-8.017-8.017S0,387.855,0,392.284  v85.511c0,13.851,11.803,25.653,25.653,25.653h461.762c13.851,0,24.585-11.803,24.585-25.653V33.136  C512,19.285,501.266,8.551,487.415,8.551z M16.033,196.676v-18.171h479.933v18.171H16.033z"/>
<path d="M127.198,409.921c0-4.427-3.589-8.017-8.017-8.017H84.977c-4.427,0-8.017,3.589-8.017,8.017v42.756  c0,4.427,3.589,8.017,8.017,8.017h34.205c4.427,0,8.017-3.589,8.017-8.017V409.921z M92.994,417.937h18.171v26.722H92.994V417.937z"/>
<path d="M187.056,409.921c0-4.427-3.589-8.017-8.017-8.017h-34.205c-4.427,0-8.017,3.589-8.017,8.017v42.756  c0,4.427,3.589,8.017,8.017,8.017h34.205c4.427,0,8.017-3.589,8.017-8.017V409.921z M152.852,417.937h18.171v26.722h-18.171V417.937  z"/>
<path d="M229.812,452.142v-42.756c0-4.428-3.588-8.017-8.017-8.017s-8.017,3.588-8.017,8.017v42.756  c0,4.428,3.588,8.017,8.017,8.017S229.812,456.57,229.812,452.142z"/>
<path d="M298.221,409.921c0-4.427-3.589-8.017-8.017-8.017H256c-4.427,0-8.017,3.589-8.017,8.017v42.756  c0,4.427,3.589,8.017,8.017,8.017h34.205c4.427,0,8.017-3.589,8.017-8.017V409.921z M264.017,417.937h18.171v26.722h-18.171V417.937  z"/>
<path d="M332.426,452.142v-42.756c0-4.428-3.588-8.017-8.017-8.017c-4.428,0-8.017,3.588-8.017,8.017v42.756  c0,4.428,3.588,8.017,8.017,8.017C328.838,460.159,332.426,456.57,332.426,452.142z"/>
<path d="M366.63,452.142v-42.756c0-4.428-3.588-8.017-8.017-8.017c-4.428,0-8.017,3.588-8.017,8.017v42.756  c0,4.428,3.588,8.017,8.017,8.017C363.042,460.159,366.63,456.57,366.63,452.142z"/>
<path d="M435.04,409.921c0-4.427-3.589-8.017-8.017-8.017h-34.205c-4.427,0-8.017,3.589-8.017,8.017v42.756  c0,4.427,3.589,8.017,8.017,8.017h34.205c4.427,0,8.017-3.589,8.017-8.017V409.921z M400.835,417.937h18.171v26.722h-18.171V417.937  z"/>
<g>
</g>
<g>
</g>
<g>
</g>
<g>
</g>
<g>
</g>
<g>
</g>
<g>
</g>
<g>
</g>
<g>
</g>
<g>
</g>
<g>
</g>
<g>
</g>
<g>
</g>
<g>
</g>
<g>
</g>
</svg>
