<?xml version="1.0" encoding="iso-8859-1"?>
<!-- Generator: Adobe Illustrator 19.0.0, SVG Export Plug-In . SVG Version: 6.00 Build 0)  -->
<svg xmlns="http://www.w3.org/2000/svg" xmlns:xlink="http://www.w3.org/1999/xlink" version="1.1" id="Layer_1" x="0px" y="0px" viewBox="0 0 512 512" style="enable-background:new 0 0 512 512;" xml:space="preserve">
<g>
	<circle style="fill:#FDE5A2;" cx="469.747" cy="195.937" r="25.627"/>
	<circle style="fill:#FDE5A2;" cx="230.565" cy="195.937" r="25.627"/>
	<circle style="fill:#FDE5A2;" cx="350.156" cy="153.226" r="119.591"/>
</g>
<path style="fill:#FDDD85;" d="M264.735,153.226c0-60.247,44.553-110.081,102.507-118.371c-5.58-0.799-11.283-1.22-17.084-1.22  c-66.049,0-119.591,53.543-119.591,119.591s53.543,119.591,119.591,119.591c5.801,0,11.504-0.422,17.084-1.22  C309.288,263.307,264.735,213.474,264.735,153.226z"/>
<path style="fill:#FDD042;" d="M495.375,503.458H204.939v-153.76c0-28.307,22.947-51.253,51.253-51.253h187.929  c28.307,0,51.253,22.947,51.253,51.253V503.458z"/>
<path style="fill:#F2C127;" d="M281.819,298.444h-25.627c-28.307,0-51.253,22.947-51.253,51.253v153.76h25.627v-153.76  C230.566,321.391,253.514,298.444,281.819,298.444z"/>
<g>
	<rect x="324.529" y="272.818" style="fill:#FDE5A2;" width="51.253" height="25.627"/>
	<polygon style="fill:#FDE5A2;" points="375.784,332.613 350.157,349.698 324.531,332.613 324.531,298.444 375.784,298.444  "/>
</g>
<g>
	<polygon style="fill:#FFFFFF;" points="418.495,366.782 375.784,332.613 375.784,298.444 418.495,298.444  "/>
	<polygon style="fill:#FFFFFF;" points="281.819,366.782 324.531,332.613 324.531,298.444 281.819,298.444  "/>
</g>
<circle style="fill:#CF442B;" cx="469.747" cy="42.177" r="34.169"/>
<path style="fill:#E5563C;" d="M350.157,8.008c-75.483,0-136.676,61.192-136.676,136.676v25.627l34.169,68.338v-68.338h205.014  v68.338l34.169-68.338v-25.627C486.833,69.201,425.642,8.008,350.157,8.008z"/>
<path style="fill:#CF442B;" d="M247.65,144.684c0-69.697,52.172-127.207,119.591-135.614c-5.597-0.698-11.298-1.061-17.084-1.061  c-75.483,0-136.676,61.192-136.676,136.676v25.627l34.169,68.338v-68.338l0,0V144.684z"/>
<path style="fill:#EBEBEC;" d="M196.397,93.431c0-47.178-42.069-85.422-93.965-85.422S8.468,46.253,8.468,93.431  s42.069,85.422,93.965,85.422c0.805,0,1.608-0.01,2.409-0.028l48.844,42.739v-56.532C179.398,149.79,196.397,123.417,196.397,93.431  z"/>
<path style="fill:#D7D8D9;" d="M34.095,97.702c0-45.437,35.397-82.977,81.304-88.88c-4.239-0.532-8.566-0.814-12.966-0.814  c-51.895,0-93.965,38.245-93.965,85.422c0,41.702,32.874,76.419,76.346,83.917C54.681,162.409,34.095,132.352,34.095,97.702z"/>
<polygon style="fill:#74757B;" points="264.735,477.831 34.095,477.831 8.468,358.24 239.108,358.24 "/>
<rect x="34.095" y="477.831" style="fill:#C3C4C6;" width="316.063" height="25.627"/>
<polygon style="fill:#606268;" points="8.468,358.24 34.095,477.831 59.721,477.831 34.095,358.24 "/>
<rect x="34.095" y="477.831" style="fill:#AFB0B4;" width="25.627" height="25.627"/>
<circle style="fill:#FDDD85;" cx="136.6" cy="418.035" r="17.084"/>
<path d="M444.413,238.931c0.122,3.449,2.654,6.52,5.986,7.438c3.645,1.006,7.671-0.757,9.361-4.139l6.456-12.844  c1.162,0.121,2.347,0.187,3.516,0.187c18.546,0,33.644-15.089,33.644-33.635c0-8.524-3.523-16.71-9.282-22.906  c0.314-0.87,0.215-1.791,0.215-2.721v-25.627c0-22.116-4.728-43.084-13.638-61.848c17.842-4.916,31.123-21.277,31.123-40.659  C511.793,18.921,492.94,0,469.682,0c-16.844,0-31.774,9.956-38.468,24.919C408.069,9.197,379.901,0,349.874,0  C270.095,0,204.94,64.905,204.94,144.684v25.627c0,0.93,0.429,1.849,0.744,2.721c-5.761,6.195-8.886,14.382-8.886,22.906  c0,18.546,15.155,33.635,33.702,33.635c1.169,0,2.373-0.065,3.533-0.186l6.439,12.843c1.66,3.321,5.391,5.063,9.011,4.212  c3.512-0.83,5.739-3.904,5.878-7.485c16.405,18.126,38.204,31.025,60.627,37.378v14.635h-59.796  c-32.677,0-59.796,26.051-59.796,58.728v1.068H76.807c-4.424,0-8.008,3.585-8.008,8.008c0,4.424,3.585,8.008,8.008,8.008h155.828  l22.195,103.575H40.57L18.375,366.782h25.331c4.424,0,8.008-3.585,8.008-8.008c0-4.424-3.585-8.008-8.008-8.008H8.469  c-5.017,0-9.148,4.509-8.098,9.419l25.182,118.497v24.777c0,4.424,4.118,8.542,8.542,8.542h461.281c4.424,0,7.474-4.118,7.474-8.542  V400.951c0-4.424-3.585-8.008-8.008-8.008c-4.424,0-8.008,3.585-8.008,8.008v95.032H357.633v-18.152  c0-4.424-3.051-7.474-7.474-7.474H271.21l-24.27-113.26c-0.791-3.692-4.055-6.331-7.831-6.331h-26.694v-1.068  c0-23.846,19.933-42.711,43.779-42.711h17.084v59.796c0,6.564,8.123,10.377,13.279,6.253l38.272-30.511l20.821,13.836  c2.661,1.774,6.256,1.775,8.918,0l20.77-13.836l37.879,30.511c5.154,4.123,12.752,0.311,12.752-6.253v-59.796h18.152  c23.846,0,42.711,18.866,42.711,42.711v17.084c0,4.424,3.585,8.008,8.008,8.008c4.424,0,8.008-3.585,8.008-8.008v-17.084  c0-32.677-26.051-58.728-58.728-58.728h-60.863v-14.658C406.75,269.942,428.005,257.028,444.413,238.931z M341.615,495.983H41.569  v-9.61h300.046V495.983z M474.499,212.887l11.653-23.306c0.779,2.011,1.215,4.158,1.215,6.356  C487.367,204.005,481.91,210.806,474.499,212.887z M469.748,16.017c14.426,0,26.161,11.735,26.161,26.161  c0,13.364-10.074,24.413-23.027,25.966c-7.748-12.379-17.309-23.51-28.319-33.011C447.706,23.854,457.979,16.017,469.748,16.017z   M220.956,144.684c0-70.948,57.72-128.667,128.667-128.667s128.667,57.72,128.667,128.667v23.736l-18.152,36.304v-34.413  c0-4.424-3.051-7.474-7.474-7.474h-52.321v-26.694c0-4.424-3.585-8.008-8.008-8.008c-4.424,0-8.008,3.585-8.008,8.008v26.694  h-26.694v-52.321c0-4.424-3.585-8.008-8.008-8.008c-4.424,0-8.008,3.585-8.008,8.008v52.321h-26.694v-26.694  c0-4.424-3.585-8.008-8.008-8.008c-4.424,0-8.008,3.585-8.008,8.008v26.694H247.65c-4.424,0-8.542,3.051-8.542,7.474v34.413  l-18.152-36.304V144.684z M212.948,195.937c0-2.199,0.436-4.347,1.215-6.358l11.654,23.306  C218.405,210.806,212.948,204.005,212.948,195.937z M256.171,213.812c-0.234-0.362,0.022-0.691-1.045-1.002v-33.958h188.997v34.74  c0,0.538-1.154,1.207-1.701,2.015c-20.814,30.808-55.405,49.201-92.532,49.201C311.897,264.809,276.862,245.745,256.171,213.812z   M289.294,306.986h26.694v21.778l-26.694,21.356V306.986z M409.953,350.12l-26.694-21.356v-21.778h26.694V350.12z M367.242,281.36  v17.084v29.883l-17.618,11.746l-17.618-11.746v-29.883V281.36H367.242z"/>
<path d="M358.005,373.754c-1.318-6.89-10.645-8.631-14.511-2.871c-2.025,3.015-1.685,7.127,0.726,9.819  c2.321,2.591,6.222,3.341,9.359,1.862C356.852,381.021,358.734,377.304,358.005,373.754z"/>
<path d="M355.816,403.834c-4.85-5.003-13.512-1.321-13.663,5.493c-0.077,3.469,2.196,6.689,5.493,7.765  c3.343,1.092,7.066-0.15,9.084-3.026C358.923,410.938,358.524,406.522,355.816,403.834z"/>
<path d="M357.557,440.598c-1.324-3.145-4.571-5.179-7.99-4.919c-3.337,0.254-6.233,2.617-7.121,5.847  c-0.908,3.296,0.423,6.901,3.271,8.8c2.738,1.825,6.416,1.76,9.091-0.147C357.83,448.024,358.924,444.022,357.557,440.598z"/>
<path d="M380.588,227.972c3.539-2.653,4.256-7.674,1.604-11.212c-2.652-3.539-7.674-4.254-11.212-1.604  c-3.457,2.593-10.76,6.942-20.823,6.942c-4.32,0-12.771-0.902-20.822-6.941c-3.538-2.653-8.558-1.936-11.212,1.602  c-2.653,3.538-1.936,8.558,1.602,11.212c11.768,8.826,24.118,10.144,30.432,10.144C364.865,238.115,375.536,231.759,380.588,227.972  z"/>
<path d="M306.304,184.331c-2.731-6.491-12.331-6.443-14.869,0.183c-2.628,6.858,4.996,13.476,11.412,9.849  C306.346,192.385,307.785,188.04,306.304,184.331z"/>
<path d="M401.411,195.404c7.364,0,10.775-9.565,5.043-14.223c-5.702-4.633-14.413,0.619-12.877,7.858  C394.352,192.695,397.668,195.404,401.411,195.404z"/>
<path d="M101.862,186.86l46.284,40.731c5.082,4.445,13.014,0.698,13.014-6.028v-52.087c27.762-17.551,42.978-45.664,42.978-76.046  C204.138,41.912,158.527,0,102.299,0S0.393,41.912,0.393,93.431C0.393,144.776,45.894,186.579,101.862,186.86z M102.433,16.017  c47.397,0,85.956,34.727,85.956,77.414c0,26.123-14.766,50.315-39.053,64.713c-2.432,1.443-4.192,4.061-4.192,6.888v38.883  l-35.297-31.117c-2.267-1.984-4.716-1.954-7.548-1.954c-47.397,0-85.89-34.727-85.89-77.414S55.037,16.017,102.433,16.017z"/>
<path d="M101.899,144.15c4.424,0,8.008-3.585,8.008-8.008V84.888c0-4.424-3.585-8.008-8.008-8.008s-8.008,3.585-8.008,8.008v51.253  C93.89,140.566,97.476,144.15,101.899,144.15z"/>
<path d="M101.899,68.338c4.424,0,8.008-3.585,8.008-8.008v-1.068c0-4.424-3.585-8.008-8.008-8.008s-8.008,3.585-8.008,8.008v1.068  C93.89,64.753,97.476,68.338,101.899,68.338z"/>
<path d="M161.694,418.035c0-13.836-11.257-25.093-25.093-25.093s-25.093,11.257-25.093,25.093c0,13.836,11.257,25.093,25.093,25.093  S161.694,431.872,161.694,418.035z M127.525,418.035c0-5.005,4.071-9.076,9.076-9.076c5.005,0,9.076,4.071,9.076,9.076  s-4.071,9.076-9.076,9.076C131.598,427.112,127.525,423.04,127.525,418.035z"/>
<path d="M204.939,426.578c4.424,0,8.008-3.585,8.008-8.008c0-4.424-3.585-8.008-8.008-8.008h-17.084  c-4.424,0-8.008,3.585-8.008,8.008c0,4.424,3.585,8.008,8.008,8.008H204.939z"/>
<path d="M68.264,426.578h17.084c4.424,0,8.008-3.585,8.008-8.008c0-4.424-3.585-8.008-8.008-8.008H68.264  c-4.424,0-8.008,3.585-8.008,8.008C60.255,422.993,63.841,426.578,68.264,426.578z"/>
<g>
</g>
<g>
</g>
<g>
</g>
<g>
</g>
<g>
</g>
<g>
</g>
<g>
</g>
<g>
</g>
<g>
</g>
<g>
</g>
<g>
</g>
<g>
</g>
<g>
</g>
<g>
</g>
<g>
</g>
</svg>
