<?xml version="1.0" encoding="iso-8859-1"?>
<!-- Generator: Adobe Illustrator 19.0.0, SVG Export Plug-In . SVG Version: 6.00 Build 0)  -->
<svg xmlns="http://www.w3.org/2000/svg" xmlns:xlink="http://www.w3.org/1999/xlink" version="1.1" id="Layer_1" x="0px" y="0px" viewBox="0 0 512 512" style="enable-background:new 0 0 512 512;" xml:space="preserve">
<rect x="397.489" y="119.182" style="fill:#EBEBEC;" width="34.205" height="324.944"/>
<circle style="fill:#6AC8B7;" cx="414.592" cy="93.528" r="85.511"/>
<path style="fill:#2DB59F;" d="M431.699,170.489c-47.227,0-85.511-38.285-85.511-85.511c0-30.11,15.576-56.565,39.096-71.801  C352.495,25.14,329.086,56.6,329.086,93.528c0,47.227,38.285,85.511,85.511,85.511c17.117,0,33.046-5.048,46.416-13.71  C451.869,168.666,441.997,170.489,431.699,170.489z"/>
<path style="fill:#EBEBEC;" d="M414.597,33.67c-33.059,0-59.858,26.799-59.858,59.858h119.716  C474.455,60.469,447.656,33.67,414.597,33.67z"/>
<path style="fill:#D7D8D9;" d="M423.148,34.288c-2.794-0.4-5.647-0.618-8.551-0.618c-33.059,0-59.858,26.799-59.858,59.858h17.102  C371.841,63.374,394.142,38.438,423.148,34.288z"/>
<rect x="12.693" y="444.125" style="fill:#74757B;" width="478.864" height="34.205"/>
<rect x="12.693" y="444.125" style="fill:#606268;" width="34.205" height="34.205"/>
<rect x="64" y="221.795" style="fill:#FDDD85;" width="273.637" height="222.33"/>
<rect x="64" y="221.795" style="fill:#FDD042;" width="34.205" height="222.33"/>
<polygon style="fill:#F2C127;" points="226.472,290.205 200.818,273.102 175.165,290.205 175.165,221.795 226.472,221.795 "/>
<rect x="132.404" y="315.858" style="fill:#EBEBEC;" width="136.818" height="34.205"/>
<path d="M92.536,407.039c3.131,3.13,7.94,3.13,11.069,0l11.701-11.968v23.401c0,4.428,3.589,8.017,8.017,8.017  s8.017-3.588,8.017-8.017v-23.402l12.236,11.968c3.26,3.259,8.9,3.041,11.897-0.461c2.687-3.138,2.56-7.959-0.359-10.878  l-25.62-25.653c-3.131-3.13-8.19-3.13-11.321,0l-25.645,25.653C89.397,398.832,89.405,403.907,92.536,407.039z"/>
<path d="M272.109,370.047L246.456,395.7c-3.131,3.132-3.131,8.207,0,11.338c3.13,3.129,7.938,3.131,11.071,0l11.7-11.968v23.402  c0,4.428,3.588,8.017,8.017,8.017s8.017-3.588,8.017-8.017v-23.401l12.235,11.968c3.261,3.259,8.901,3.042,11.898-0.461  c2.686-3.138,2.559-7.959-0.359-10.878l-25.62-25.653C280.283,366.918,275.241,366.918,272.109,370.047z"/>
<path d="M276.71,316.392c0-4.427-3.589-8.017-8.017-8.017H131.875c-4.427,0-8.017,3.589-8.017,8.017v34.205  c0,4.427,3.589,8.017,8.017,8.017h136.818c4.427,0,8.017-3.589,8.017-8.017V316.392z M139.891,324.409h120.785v18.171H139.891  V324.409z"/>
<path d="M268.693,247.983c-4.428,0-8.017,3.588-8.017,8.017v17.102c0,4.428,3.588,8.017,8.017,8.017s8.017-3.588,8.017-8.017V256  C276.71,251.572,273.122,247.983,268.693,247.983z"/>
<path d="M302.363,273.102V256c0-4.428-3.588-8.017-8.017-8.017s-8.017,3.588-8.017,8.017v17.102c0,4.428,3.588,8.017,8.017,8.017  S302.363,277.531,302.363,273.102z"/>
<path d="M131.875,281.119c4.427,0,8.017-3.588,8.017-8.017V256c0-4.428-3.589-8.017-8.017-8.017s-8.017,3.588-8.017,8.017v17.102  C123.858,277.531,127.447,281.119,131.875,281.119z"/>
<path d="M114.238,273.102V256c0-4.428-3.589-8.017-8.017-8.017c-4.427,0-8.017,3.588-8.017,8.017v17.102  c0,4.428,3.589,8.017,8.017,8.017C110.649,281.119,114.238,277.531,114.238,273.102z"/>
<path d="M482.472,93.795c0-37.426-30.448-68.008-67.875-68.008s-67.875,30.649-67.875,68.076c0,4.428,3.588,8.218,8.017,8.218  h119.716C478.884,102.079,482.472,98.224,482.472,93.795z M429.577,86.046l8.794-13.457c2.456-3.683,1.46-8.795-2.223-11.25  c-3.682-2.456-8.662-1.261-11.116,2.424l-14.724,22.283h-46.932c3.864-25.653,25.363-43.825,51.222-43.825  s47.358,18.171,51.222,43.825H429.577z"/>
<path d="M417.665,120.324c-3.318-1.324-7.187-0.346-9.393,2.488c-1.935,2.486-2.218,5.961-0.723,8.731  c1.652,3.061,5.206,4.727,8.618,4.045c3.233-0.646,5.784-3.287,6.334-6.535C423.12,125.405,421.052,121.761,417.665,120.324  C417.184,120.133,418.145,120.528,417.665,120.324z"/>
<path d="M455.472,123.286c-1.937-2.835-5.48-4.189-8.809-3.274c-3.147,0.866-5.49,3.651-5.833,6.892  c-0.323,3.055,1.214,6.13,3.852,7.707c3.07,1.834,7.096,1.371,9.671-1.104C457.105,130.864,457.614,126.467,455.472,123.286  C455.172,122.848,455.76,123.714,455.472,123.286z"/>
<path d="M383.46,120.324c-3.028-1.209-6.567-0.501-8.843,1.856c-2.396,2.481-2.911,6.337-1.273,9.367  c1.58,2.921,4.935,4.617,8.225,4.112c3.348-0.513,6.062-3.115,6.696-6.443C388.97,125.52,386.905,121.785,383.46,120.324  C382.979,120.133,383.94,120.528,383.46,120.324z"/>
<path d="M491.557,436.643h-52.376V183.626c39.549-11.001,68.676-47.225,68.676-90.098c0-10.532-1.605-20.872-5.037-30.737  c-1.455-4.182-5.958-6.389-10.138-4.938c-4.182,1.455-6.359,6.024-4.905,10.206c2.84,8.167,4.298,16.736,4.298,25.47  c0,42.731-34.756,77.495-77.486,77.495s-77.491-34.764-77.491-77.495s34.765-77.495,77.496-77.495  c22.373,0,43.655,9.672,58.386,26.536c2.914,3.334,7.978,3.675,11.312,0.763c3.334-2.914,3.676-7.977,0.763-11.312  C467.28,11.671,441.598,0,414.597,0c-51.572,0-93.795,41.956-93.795,93.528c0,42.873,29.662,79.096,68.142,90.098v253.017h-43.825  V221.795c0-4.428-3.054-7.482-7.482-7.482H140.96c-4.427,0-8.017,3.588-8.017,8.017c0,4.428,3.589,8.017,8.017,8.017h25.653v59.858  c0,6.274,7.498,10.159,12.731,6.67l21.34-14.138l21.006,14.138c5.238,3.493,12.263-0.403,12.263-6.67v-59.858h95.132v206.296H71.482  V230.347h35.273c4.427,0,8.017-3.588,8.017-8.017c0-4.428-3.589-8.017-8.017-8.017H64c-4.427,0-8.551,3.054-8.551,7.482v214.848  H12.693c-4.427,0-8.551,3.054-8.551,7.482v34.205c0,4.428,4.124,8.551,8.551,8.551h25.653v17.102c0,4.428,3.589,8.017,8.017,8.017  s8.017-3.588,8.017-8.017v-17.102h394.422v17.102c0,4.428,3.588,8.017,8.017,8.017s8.017-3.588,8.017-8.017v-17.102h26.722  c4.428,0,7.482-4.123,7.482-8.551v-34.205C499.04,439.697,495.986,436.643,491.557,436.643z M217.921,275.225l-12.923-8.794  c-1.347-0.898-2.763-1.347-4.313-1.347c-1.55,0-3.301,0.449-4.648,1.347l-13.39,8.794v-44.879h35.273V275.225z M404.977,186.614  c3.207,0.29,6.02,0.443,9.086,0.443c3.066,0,6.948-0.153,9.086-0.443v250.029h-18.171V186.614z M483.006,470.848H20.175v-18.171  h462.831V470.848z"/>
<g>
</g>
<g>
</g>
<g>
</g>
<g>
</g>
<g>
</g>
<g>
</g>
<g>
</g>
<g>
</g>
<g>
</g>
<g>
</g>
<g>
</g>
<g>
</g>
<g>
</g>
<g>
</g>
<g>
</g>
</svg>
