<?xml version="1.0" encoding="iso-8859-1"?>
<!-- Generator: Adobe Illustrator 19.0.0, SVG Export Plug-In . SVG Version: 6.00 Build 0)  -->
<svg xmlns="http://www.w3.org/2000/svg" xmlns:xlink="http://www.w3.org/1999/xlink" version="1.1" id="Layer_1" x="0px" y="0px" viewBox="0 0 512 512" style="enable-background:new 0 0 512 512;" xml:space="preserve">
<path style="fill:#F07B52;" d="M410.455,354.072H102.614c-18.891,0-34.205-15.314-34.205-34.205V46.23  c0-18.891,15.314-34.205,34.205-34.205h307.841c37.781,0,68.409,30.628,68.409,68.409v205.228  C478.864,323.445,448.236,354.072,410.455,354.072z"/>
<path style="fill:#90E2D4;" d="M410.455,165.946H68.409V46.23h342.046c9.446,0,17.102,7.656,17.102,17.102v85.511  C427.557,158.29,419.901,165.946,410.455,165.946z"/>
<path style="fill:#57C4B2;" d="M359.148,80.435H68.409v76.96h324.944V114.64C374.462,114.64,359.148,99.327,359.148,80.435z"/>
<g>
	<path style="fill:#E5563C;" d="M410.455,482.339H102.614c-18.891,0-34.205-15.314-34.205-34.205V140.293h342.046   c37.781,0,68.409,30.628,68.409,68.409V413.93C478.864,451.712,448.236,482.339,410.455,482.339z"/>
	<path style="fill:#E5563C;" d="M102.614,319.867V46.23c0-18.891,15.314-34.205,34.205-34.205h-34.205   c-18.891,0-34.205,15.314-34.205,34.205v273.637c0,18.891,15.314,34.205,34.205,34.205h34.205   C117.928,354.072,102.614,338.758,102.614,319.867z"/>
</g>
<rect x="68.409" y="46.23" style="fill:#74DBC9;" width="34.205" height="119.716"/>
<rect x="68.409" y="80.435" style="fill:#2DB59F;" width="34.205" height="76.96"/>
<path style="fill:#CF442B;" d="M102.614,448.134V140.293H68.409v307.841c0,18.891,15.314,34.205,34.205,34.205h34.205  C117.928,482.339,102.614,467.025,102.614,448.134z"/>
<path style="fill:#AFB0B4;" d="M487.415,362.623H384.802c-9.446,0-17.102-7.656-17.102-17.102v-68.409  c0-9.446,7.656-17.102,17.102-17.102h102.614c9.446,0,17.102,7.656,17.102,17.102v68.409  C504.518,354.966,496.861,362.623,487.415,362.623z"/>
<path style="fill:#9B9DA1;" d="M393.353,345.521v-68.409c0-9.445,7.656-17.102,17.102-17.102h-25.653  c-9.446,0-17.102,7.658-17.102,17.102v68.409c0,9.445,7.656,17.102,17.102,17.102h25.653  C401.009,362.623,393.353,354.966,393.353,345.521z"/>
<circle style="fill:#E5563C;" cx="427.557" cy="311.316" r="25.653"/>
<path style="fill:#6AC8B7;" d="M172.448,276.042c-29.616-5.029-44.421-16.539-52.732-24.585  c-8.311,8.046-23.116,19.555-52.732,24.585c-18.884,3.207-49.476-4.821-58.433-7.482c0,48.456,0,96.913,0,145.37  c7.155,12.987,20.319,33.016,42.756,51.307c26.505,21.607,53.226,30.413,68.409,34.205c15.184-3.791,41.904-12.598,68.409-34.205  c22.437-18.291,35.601-38.32,42.756-51.307c0-48.456,0-96.913,0-145.37C221.925,271.222,191.332,279.249,172.448,276.042z"/>
<path style="fill:#FDD042;" d="M119.716,472.856c-19.013-5.634-36.946-15.068-52.199-27.503  c-13.254-10.804-24.437-23.664-33.312-38.295V300.509c7.434,1.135,15.324,1.933,22.812,1.931c5.14,0,9.939-0.373,14.261-1.106  c18.741-3.183,34.757-8.951,48.437-17.489c13.68,8.538,29.696,14.307,48.437,17.489c4.324,0.735,9.123,1.106,14.262,1.106  c7.49,0,15.378-0.796,22.812-1.931v106.548c-8.874,14.631-20.058,27.492-33.311,38.295  C156.662,457.789,138.73,467.223,119.716,472.856z"/>
<path style="fill:#FFFFFF;" d="M106.889,413.93c-3.283,0-6.565-1.253-9.07-3.757l-25.653-25.653c-5.009-5.01-5.009-13.13,0-18.14  c5.01-5.009,13.13-5.009,18.14,0l16.583,16.584l42.237-42.237c5.01-5.009,13.13-5.009,18.14,0c5.009,5.01,5.009,13.13,0,18.14  l-51.307,51.307C113.454,412.677,110.172,413.93,106.889,413.93z"/>
<path d="M487.415,252.527h-1.069V80.435c0-42.141-33.75-75.891-75.891-75.891h-222.33c-4.427,0-8.017,3.588-8.017,8.017  s3.589,8.017,8.017,8.017h222.33c33.3,0,59.858,26.558,59.858,59.858v81.514c-8.551-11.568-20.309-20.493-35.273-25.411V63.333  c0-13.851-10.734-24.585-24.585-24.585H77.686c3.395-10.689,13.283-18.171,24.928-18.171h51.307c4.427,0,8.017-3.588,8.017-8.017  s-3.589-8.017-8.017-8.017h-51.307c-23.281,0-42.756,18.406-42.756,41.687v222.455c-14.965,0.794-37.788-4.313-49.557-7.809  C5.243,259.378,0,263.286,0,268.56v145.37c0,1.353,0.609,2.684,1.262,3.868c11.418,20.724,26.594,38.774,44.845,53.652  c20.716,16.889,45.519,29.257,71.599,35.768c1.268,0.317,2.65,0.317,3.917,0c15.203-3.796,29.957-9.327,43.717-16.838  c0.618,0.153,1.276,0.51,1.941,0.51h243.173c42.141,0,75.891-34.819,75.891-76.96v-42.756h1.069  c13.851,0,24.585-11.803,24.585-25.653v-68.409C512,263.261,501.266,252.527,487.415,252.527z M419.006,63.333v69.503  c-2.138-0.355-5.475-0.025-8.551-0.025h-9.62V114.64c0-4.428-3.322-8.017-7.749-8.017c-14.44,0-26.054-11.48-26.054-25.921  c0-4.428-3.456-7.749-7.883-7.749H75.891V54.781h334.564C415.465,54.781,419.006,58.324,419.006,63.333z M75.891,132.811V88.986  h276.003c3.254,16.033,16.874,29.652,32.907,32.907v10.918C384.802,132.811,75.891,132.811,75.891,132.811z M470.313,413.93  c0,33.3-26.558,60.927-59.858,60.927h-220.89c1.221-1.069,2.432-1.898,3.626-2.872c8.857-7.22,16.952-15.299,24.25-23.85h30.543  c4.427,0,8.017-3.588,8.017-8.017s-3.589-8.017-8.017-8.017h-18.476c2.981-5.344,5.52-9.303,8.128-14.036  c0.653-1.184,0.728-2.783,0.728-4.136v-76.96c0-4.428-3.589-8.017-8.017-8.017s-8.017,3.588-8.017,8.017v74.873  c-9.62,18.17-23.41,34.035-39.537,47.181c-18.387,14.989-40.117,26.078-63.21,32.143c-23.093-6.065-45.158-17.154-63.545-32.143  c-16.126-13.146-29.315-29.011-40.004-47.181V279.02c13.896,3.288,35.982,7.648,52.025,4.927  c20.972-3.562,37.997-10.705,51.524-21.765c13.527,11.061,30.219,18.203,51.189,21.765c16.043,2.722,38.731-1.638,51.558-4.927  v23.745c0,4.428,3.589,8.017,8.017,8.017s8.017-3.588,8.017-8.017v-34.205c0-5.273-4.976-9.184-10.034-7.684  c-13.179,3.917-39.42,9.852-54.673,7.263c-27.522-4.673-40.793-15.045-48.432-22.44c-3.108-3.008-8.278-3.008-11.386,0  c-6.564,6.355-16.57,14.905-37.948,20.151V191.04c1.069,0.012,0.888,0.561,1.069,0.561h34.205c4.427,0,8.017-3.588,8.017-8.017  s-3.589-8.017-8.017-8.017H76.96c-0.181,0,0-0.519-1.069-0.508v-26.216h334.564c33.3,0,59.858,26.558,59.858,59.858v43.825h-68.97  c0.012-1.069-0.508-0.888-0.508-1.069v-34.205c0-4.428-3.589-8.017-8.017-8.017c-4.427,0-8.017,3.588-8.017,8.017v34.205  c0,0.181,0.549,0,0.561,1.069h-0.561c-13.851,0-25.653,10.734-25.653,24.585v68.409c0,13.851,11.803,25.653,25.653,25.653h0.561  c-0.012,0-0.561-0.181-0.561,0v34.205c0,4.428,3.589,8.017,8.017,8.017c4.427,0,8.017-3.588,8.017-8.017v-34.205  c0-0.181,0.519,0,0.508,0h68.97V413.93z M495.967,346.055c0,5.017-4.068,9.086-9.086,9.086H384.267  c-5.017,0-9.086-4.068-9.086-9.086v-68.409c0-5.017,4.068-9.086,9.086-9.086h102.614c5.017,0,9.086,4.068,9.086,9.086V346.055z"/>
<path d="M427.557,277.646c-18.566,0-33.67,15.105-33.67,33.67c0,18.566,15.105,33.67,33.67,33.67c18.566,0,33.67-15.105,33.67-33.67  C461.228,292.75,446.123,277.646,427.557,277.646z M427.557,328.953c-9.725,0-17.637-7.912-17.637-17.637  s7.912-17.637,17.637-17.637c9.725,0,17.637,7.912,17.637,17.637S437.282,328.953,427.557,328.953z"/>
<path d="M179.574,175.566H145.37c-4.427,0-8.017,3.588-8.017,8.017c0,4.428,3.589,8.017,8.017,8.017h34.205  c4.427,0,8.017-3.588,8.017-8.017C187.591,179.155,184.001,175.566,179.574,175.566z"/>
<path d="M247.983,175.566h-34.205c-4.427,0-8.017,3.588-8.017,8.017c0,4.428,3.589,8.017,8.017,8.017h34.205  c4.427,0,8.017-3.588,8.017-8.017C256,179.155,252.411,175.566,247.983,175.566z"/>
<path d="M316.392,175.566h-34.205c-4.427,0-8.017,3.588-8.017,8.017c0,4.428,3.589,8.017,8.017,8.017h34.205  c4.427,0,8.017-3.588,8.017-8.017C324.409,179.155,320.82,175.566,316.392,175.566z"/>
<path d="M350.597,191.6h34.205c4.427,0,8.017-3.588,8.017-8.017c0-4.428-3.589-8.017-8.017-8.017h-34.205  c-4.427,0-8.017,3.588-8.017,8.017C342.58,188.012,346.17,191.6,350.597,191.6z"/>
<path d="M316.392,432.101h-34.205c-4.427,0-8.017,3.588-8.017,8.017s3.589,8.017,8.017,8.017h34.205  c4.427,0,8.017-3.588,8.017-8.017S320.82,432.101,316.392,432.101z"/>
<path d="M384.802,432.101h-34.205c-4.427,0-8.017,3.588-8.017,8.017s3.589,8.017,8.017,8.017h34.205  c4.427,0,8.017-3.588,8.017-8.017S389.229,432.101,384.802,432.101z"/>
<path d="M210.184,294.428c-1.772-1.522-3.986-2.194-6.299-1.844c-7.996,1.221-15.199,1.84-21.536,1.84  c-4.695,0-9.008-0.335-12.887-0.994c-17.824-3.026-32.702-8.387-45.518-16.386c-2.598-1.623-5.883-1.623-8.482,0  c-12.817,8-27.707,13.255-45.531,16.281c-3.883,0.66-8.226,0.889-12.917,0.889c-0.004,0-0.009,0-0.013,0  c-6.328,0-13.859-0.514-21.857-1.735c-4.781-0.735-9.493,3.2-9.493,8.03v106.548c0,1.465,0.669,2.904,1.429,4.158  c9.345,15.407,21.289,28.983,35.234,40.352c15.989,13.034,35.07,23.054,55.054,28.976c1.477,0.438,3.11,0.438,4.589,0  c19.985-5.922,39.016-15.941,55.004-28.976c13.947-11.37,25.497-24.946,34.842-40.352c0.76-1.254,0.903-2.693,0.903-4.158V300.509  C212.71,298.173,211.957,295.951,210.184,294.428z M196.676,404.783c-7.482,13.063-18.139,24.612-30.093,34.356  c-13.75,11.209-29.869,19.939-47.001,25.335c-17.132-5.396-33.585-14.125-47.335-25.335c-11.952-9.743-22.01-21.293-30.561-34.356  v-95.156c10.689,1.056,20.638,1.313,30.667-0.389c18.023-3.06,33.618-8.33,47.229-16.063c13.61,7.733,28.872,13.002,46.893,16.062  c10.028,1.706,20.58,1.444,30.201,0.39V404.783z"/>
<path d="M143.457,335.056l-36.568,36.57l-10.916-10.917c-8.127-8.126-21.349-8.125-29.478,0.001  c-8.126,8.128-8.125,21.352,0.001,29.477L92.15,415.84c8.035,8.036,21.442,8.036,29.478,0.001l51.307-51.307  c8.126-8.126,8.127-21.349,0-29.478C164.809,326.932,151.586,326.931,143.457,335.056z M161.597,353.196l-51.307,51.308  c-1.853,1.854-4.95,1.853-6.802-0.001L77.835,378.85c-1.689-1.688-1.865-4.462-0.4-6.349c1.748-2.251,5.186-2.467,7.202-0.453  l16.584,16.585c3.086,3.087,8.251,3.088,11.338,0.001l42.236-42.238c1.832-1.833,4.969-1.834,6.802-0.001  C163.43,348.227,163.432,351.363,161.597,353.196z"/>
<g>
</g>
<g>
</g>
<g>
</g>
<g>
</g>
<g>
</g>
<g>
</g>
<g>
</g>
<g>
</g>
<g>
</g>
<g>
</g>
<g>
</g>
<g>
</g>
<g>
</g>
<g>
</g>
<g>
</g>
</svg>
