<?xml version="1.0" encoding="iso-8859-1"?>
<!-- Generator: Adobe Illustrator 19.0.0, SVG Export Plug-In . SVG Version: 6.00 Build 0)  -->
<svg xmlns="http://www.w3.org/2000/svg" xmlns:xlink="http://www.w3.org/1999/xlink" version="1.1" id="Layer_1" x="0px" y="0px" viewBox="0 0 511.999 511.999" style="enable-background:new 0 0 511.999 511.999;" xml:space="preserve">
<path style="fill:#FDD042;" d="M324.459,435.527c-9.442,0-17.098,7.655-17.098,17.098c0,9.427-7.671,17.098-17.098,17.098  s-17.098-7.671-17.098-17.098V25.178c0-9.443-7.656-17.098-17.098-17.098c-9.442,0-17.098,7.655-17.098,17.098v427.448  c0,28.283,23.011,51.294,51.294,51.294c28.283,0,51.294-23.011,51.294-51.294C341.557,443.182,333.902,435.527,324.459,435.527z"/>
<rect x="238.965" y="67.92" style="fill:#E1A527;" width="34.196" height="265.018"/>
<g>
	<path style="fill:#CF442B;" d="M256.068,290.195c18.499,0,35.939,9.103,51.282,17.098c-0.505-134.808-23.269-247.92-51.282-247.92   c-28.012,0-50.777,113.111-51.282,247.92C220.129,299.298,237.569,290.195,256.068,290.195z"/>
	<path style="fill:#CF442B;" d="M256.068,59.374c28.012,0,50.776,113.111,51.282,247.92c0,0,30.335-17.098,51.305-17.098   c18.674,0,44.731,8.379,59.815,17.098c-0.018-2.06,28.774-8.549,42.773-8.549c13.999,0,42.745,8.549,42.745,8.549   C503.987,170.37,392.99,59.374,256.068,59.374z"/>
</g>
<path style="fill:#F58F6C;" d="M307.35,307.293c0,0,30.335-17.098,51.305-17.098c18.674,0,44.731,8.379,59.815,17.098  c-1.189-135.359-73.437-247.92-162.402-247.92C284.08,59.374,306.844,172.484,307.35,307.293z"/>
<path style="fill:#CF442B;" d="M256.068,59.374c-28.012,0-50.777,113.111-51.282,247.92c0,0-30.335-17.098-51.305-17.098  c-18.674,0-44.731,8.379-59.815,17.098c0.018-2.06-28.774-8.549-42.773-8.549s-42.745,8.549-42.745,8.549  C8.148,170.37,119.146,59.374,256.068,59.374z"/>
<path style="fill:#F58F6C;" d="M204.786,307.293c0,0-30.335-17.098-51.305-17.098c-18.674,0-44.731,8.379-59.815,17.098  c1.189-135.359,73.437-247.92,162.402-247.92C228.056,59.374,205.291,172.484,204.786,307.293z"/>
<path d="M438.972,128.272c-3.096-3.164-8.171-3.219-11.334-0.121c-3.163,3.096-3.218,8.171-0.121,11.333  c41.671,42.57,65.669,98.061,68.227,157.236c-10.063-2.596-25.038-5.99-34.502-5.99c-9.307,0-22.031,2.392-27.07,3.421  c-3.103,0.634-5.724,1.227-7.957,1.782c-2.352-63.034-19.694-122.228-49.314-167.732c-12.682-19.483-27.018-35.508-42.515-47.801  c24.166,8.335,46.97,20.593,67.755,36.571c3.74,2.875,9.303,1.82,11.744-2.207c2.088-3.446,0.95-8.048-2.242-10.501  c-38.344-29.476-82.91-47.107-130.998-51.692V25.178c0-13.847-11.265-25.113-25.113-25.113S230.42,11.331,230.42,25.178v27.393  c-58.774,5.697-113.222,31.379-155.593,73.75C26.488,174.659,0,238.93,0,307.293c0,5.269,5.307,9.189,10.366,7.681  c7.684-2.286,29.967-8.216,40.494-8.216c11.409,0,32.372,4.59,37.52,6.573c2.55,2.23,6.356,2.58,9.288,0.9  c13.625-7.876,38.227-16.022,55.808-16.022c15.432,0,39.431,11.599,47.375,16.067c2.368,1.334,5.033,1.349,7.438,0.089  c7.079-3.689,14.651-7.611,22.131-10.669v57.028c0,4.427,3.588,8.015,8.015,8.015s8.015-3.587,8.015-8.015v-61.7  c3.206-0.52,6.051-0.814,9.083-0.814c3.033,0,6.946,0.294,9.083,0.814v153.601c0,13.847,11.533,25.113,25.38,25.113  c13.847,0,25.247-11.265,25.247-25.113c0-5.009,4.141-9.083,9.151-9.083s9.116,4.075,9.116,9.083  c0,23.864-19.666,43.279-43.529,43.279c-23.863,0-43.529-19.415-43.529-43.279V394.92c0-4.427-3.588-8.015-8.015-8.015  c-4.426,0-8.015,3.587-8.015,8.015v57.705c0,32.703,26.873,59.308,59.576,59.308s59.441-26.606,59.441-59.308  c0-13.847-11.198-25.113-25.046-25.113c-13.848,0-25.079,11.265-25.079,25.113c0,5.009-4.325,9.083-9.333,9.083  s-9.333-4.075-9.333-9.083V303.696c8.549,3.065,15.619,6.996,22.733,10.704c2.378,1.237,5.437,1.186,7.772-0.126  c7.927-4.468,31.959-16.065,47.437-16.065c17.581,0,42.213,8.146,55.836,16.022c2.919,1.708,6.755,1.31,9.296-0.899  c5.149-1.983,26.105-6.574,37.513-6.574c10.51,0,32.775,5.932,40.465,8.217c5.057,1.499,10.3-2.411,10.3-7.682  C512,239.96,486.066,176.382,438.972,128.272z M246.45,25.178c0-5.009,4.075-9.083,9.083-9.083s9.083,4.075,9.083,9.083v26.348  c-2.137-0.104-6.046-0.167-9.083-0.167c-3.037,0-5.877,0.072-9.083,0.176V25.178z M50.893,290.73c-9.465,0-24.438,3.395-34.5,5.989  C20.76,196.558,86.84,112.148,177.458,80.631c-15.386,12.265-29.621,28.208-42.224,47.571  c-29.62,45.504-46.962,104.698-49.314,167.732c-2.233-0.557-4.855-1.15-7.958-1.784C72.924,293.121,60.2,290.73,50.893,290.73z   M102.021,294.254c2.566-59.305,18.943-114.749,46.646-157.308c23.214-35.662,52.083-58.569,83.072-66.467  c-7.42,13.233-13.879,33.387-19.48,60.69c-9.104,44.387-14.502,101.914-15.372,163.177c-11.436-5.29-29.062-12.166-43.408-12.166  C137.327,282.181,117.333,287.702,102.021,294.254z M256.068,282.181c-15.613,0-29.992,5.573-43.147,11.976  c0.872-60.123,6.154-116.43,15.043-159.767c11.273-54.965,24.11-67.001,28.105-67.001c3.995,0,16.831,12.037,28.105,67.001  c8.888,43.337,14.17,99.643,15.043,159.766C286.081,287.761,271.693,282.181,256.068,282.181z M358.655,282.181  c-14.346,0-31.972,6.877-43.408,12.166c-0.87-61.264-6.269-118.791-15.372-163.177c-5.6-27.303-12.058-47.457-19.48-60.69  c30.99,7.899,59.859,30.805,83.072,66.467c27.703,42.559,44.081,98.003,46.646,157.308  C394.802,287.702,374.809,282.181,358.655,282.181z"/>
<g>
</g>
<g>
</g>
<g>
</g>
<g>
</g>
<g>
</g>
<g>
</g>
<g>
</g>
<g>
</g>
<g>
</g>
<g>
</g>
<g>
</g>
<g>
</g>
<g>
</g>
<g>
</g>
<g>
</g>
</svg>
