<?xml version="1.0" encoding="iso-8859-1"?>
<!-- Generator: Adobe Illustrator 19.0.0, SVG Export Plug-In . SVG Version: 6.00 Build 0)  -->
<svg xmlns="http://www.w3.org/2000/svg" xmlns:xlink="http://www.w3.org/1999/xlink" version="1.1" id="Layer_1" x="0px" y="0px" viewBox="0 0 512 512" style="enable-background:new 0 0 512 512;" xml:space="preserve">
<g>
	<circle style="fill:#FDE5A2;" cx="444.413" cy="195.608" r="25.653"/>
	<circle style="fill:#FDE5A2;" cx="204.981" cy="195.608" r="25.653"/>
	<circle style="fill:#FDE5A2;" cx="324.697" cy="152.852" r="119.716"/>
</g>
<path style="fill:#FDDD85;" d="M350.346,264.017c-66.117,0-119.716-53.599-119.716-119.716c0-48.088,28.358-89.547,69.259-108.586  c-54.214,11.423-94.912,59.525-94.912,117.137c0,66.117,53.599,119.716,119.716,119.716c18.029,0,35.123-3.993,50.457-11.13  C367.146,263.123,358.851,264.017,350.346,264.017z"/>
<path style="fill:#6AC8B7;" d="M452.96,127.198H196.426V75.891c0-37.781,30.628-68.409,68.409-68.409h119.716  c37.781,0,68.409,30.628,68.409,68.409V127.198z"/>
<rect x="196.43" y="92.994" style="fill:#FDD042;" width="256.534" height="34.205"/>
<path style="fill:#74757B;" d="M418.756,169.954H230.63c-18.891,0-34.205-15.314-34.205-34.205v-8.551H452.96v8.551  C452.96,154.64,437.646,169.954,418.756,169.954z"/>
<path style="fill:#2DB59F;" d="M299.04,7.482h-34.205c-37.781,0-68.409,30.628-68.409,68.409v51.307h34.205V75.891  C230.63,38.11,261.257,7.482,299.04,7.482z"/>
<path style="fill:#606268;" d="M230.63,135.749v-8.551h-34.205v8.551c0,18.891,15.314,34.205,34.205,34.205h34.205  C245.944,169.954,230.63,154.64,230.63,135.749z"/>
<rect x="196.43" y="92.994" style="fill:#F2C127;" width="34.205" height="34.205"/>
<path style="fill:#6AC8B7;" d="M470.062,503.449H179.323V349.528c0-28.336,22.971-51.307,51.307-51.307h188.125  c28.336,0,51.307,22.97,51.307,51.307V503.449z"/>
<rect x="299.044" y="272.568" style="fill:#FEEDBE;" width="51.307" height="25.653"/>
<polygon style="fill:#FDD042;" points="213.528,503.449 256.504,503.449 412.622,298.221 369.645,298.221 "/>
<rect x="42.505" y="264.017" style="fill:#74757B;" width="188.125" height="239.432"/>
<rect x="68.159" y="289.67" style="fill:#FFFFFF;" width="136.818" height="188.125"/>
<rect x="68.159" y="289.67" style="fill:#EBEBEC;" width="25.653" height="188.125"/>
<path style="fill:#FDD042;" d="M153.67,298.221h-34.205c-4.722,0-8.551-3.829-8.551-8.551v-25.653h51.307v25.653  C162.221,294.393,158.392,298.221,153.67,298.221z"/>
<path style="fill:#F2C127;" d="M128.017,289.67v-25.653h-17.102v25.653c0,4.722,3.829,8.551,8.551,8.551h17.102  C131.844,298.221,128.017,294.393,128.017,289.67z"/>
<path d="M418.756,290.739h-60.927v-14.651c20.309-5.396,38.412-15.538,53.732-29.837c6.677-6.232,12.741-13.086,17.869-20.438  c4.6,2.264,9.725,3.465,14.913,3.465c18.566,0,33.703-15.105,33.703-33.67c0-15.863-10.803-29.295-26.025-32.795  c0.013-0.164,0.038-0.327,0.05-0.491c0.018-0.239-0.244-0.477-0.247-0.713c5.559-7.151,8.618-16.122,8.618-25.86V75.891  C460.442,33.75,426.692,0,384.551,0H264.835c-42.141,0-76.96,33.75-76.96,75.891v59.858c0,9.74,3.59,18.712,9.152,25.863  c-0.005,0.252,0.133,0.508,0.152,0.764c0.011,0.146,0.093,0.291,0.104,0.437c-15.223,3.5-26.008,16.928-26.008,32.794  c0,18.566,15.121,33.67,33.687,33.67c5.225,0,10.269-1.197,14.858-3.462c5.132,7.358,10.804,14.217,17.487,20.452  c15.316,14.289,33.943,24.425,53.183,29.819v14.652h-52.376v-26.722c0-4.428-3.054-7.482-7.482-7.482H42.505  c-4.428,0-8.551,3.054-8.551,7.482v239.432c0,4.428,4.123,8.551,8.551,8.551h427.557c4.428,0,7.482-4.123,7.482-8.551V349.528  C477.545,316.817,451.466,290.739,418.756,290.739z M396.45,306.772L252.531,495.967h-14.418v-12.298l135.507-176.897H396.45z   M203.908,135.749L203.908,135.749h240.501l0,0c0,14.441-11.213,26.722-25.653,26.722H230.63  C216.19,162.472,203.908,150.19,203.908,135.749z M462.046,195.608c0,9.725-7.912,17.637-17.637,17.637  c-2.238,0-4.43-0.426-6.476-1.235c5.455-10.426,9.448-21.585,11.843-33.199C457.017,181.094,462.046,187.779,462.046,195.608z   M264.835,16.033h119.716c33.3,0,59.858,26.558,59.858,59.858v9.62h-51.307c-4.428,0-8.017,3.588-8.017,8.017  c0,4.428,3.588,8.017,8.017,8.017h51.307v18.171H203.908v-18.171h155.346c4.428,0,8.017-3.588,8.017-8.017  c0-4.428-3.588-8.017-8.017-8.017H203.908v-9.62C203.908,42.591,231.534,16.033,264.835,16.033z M204.977,213.244  c-9.725,0-17.637-7.912-17.637-17.637c0-7.829,5.028-14.513,12.27-16.797c2.396,11.612,6.389,22.773,11.844,33.199  C209.412,212.817,207.228,213.244,204.977,213.244z M215.209,175.309c4.781,1.883,9.979,3.196,15.421,3.196h188.125  c5.442,0,10.64-1.314,15.421-3.196c-10.375,51.183-56.011,89.509-109.484,89.509C271.229,264.818,225.584,226.489,215.209,175.309z   M306.522,281.119h35.273v9.62h-35.273V281.119z M104.977,298.221c2.829,4.276,8.26,8.551,14.489,8.551h34.205  c6.228,0,11.66-4.276,14.489-8.551h28.267v172.092H75.641V298.221H104.977z M153.67,272.568v17.102c0,0.294,0.294,1.069,0,1.069  h-34.205c-0.294,0-1.069-0.775-1.069-1.069v-17.102H153.67z M222.079,495.967H49.987V272.568h52.376v9.62H68.159  c-4.428,0-8.551,3.054-8.551,7.482v188.125c0,4.428,4.123,8.551,8.551,8.551h136.818c4.428,0,7.482-4.123,7.482-8.551V289.67  c0-4.428-3.054-7.482-7.482-7.482h-35.273v-9.62h52.376v59.858c0,4.428,3.588,8.017,8.017,8.017c4.428,0,8.017-3.588,8.017-8.017  v-25.653h115.362L238.113,457.187v-90.201c0-4.428-3.588-8.017-8.017-8.017c-4.428,0-8.017,3.588-8.017,8.017V495.967z   M461.511,495.967H272.675l143.92-189.194h2.16c23.871,0,42.756,18.885,42.756,42.756V495.967z"/>
<path d="M355.155,227.675c3.542-2.656,4.261-7.682,1.605-11.223c-2.655-3.543-7.682-4.258-11.223-1.605  c-3.461,2.595-10.771,6.949-20.844,6.949c-4.325,0-12.784-0.903-20.843-6.948c-3.541-2.656-8.567-1.938-11.223,1.603  s-1.938,8.567,1.603,11.223c11.78,8.835,24.143,10.154,30.463,10.154C339.415,237.829,350.097,231.467,355.155,227.675z"/>
<path d="M280.792,183.989c-2.69-6.394-12.155-6.503-14.815,0c-1.238,3.027-0.498,6.573,1.856,8.842  c2.567,2.477,6.608,2.939,9.671,1.104C280.892,191.905,282.247,187.634,280.792,183.989z"/>
<path d="M381.664,181.391c-2.256-2.256-5.783-2.958-8.733-1.743c-3.279,1.35-5.336,4.865-4.884,8.388  c0.445,3.472,3.122,6.303,6.577,6.913c3.24,0.571,6.579-0.969,8.259-3.797C384.73,188.042,384.239,183.946,381.664,181.391z"/>
<path d="M410.204,401.904H376c-4.428,0-8.017,3.588-8.017,8.017s3.588,8.017,8.017,8.017h34.205c4.428,0,8.017-3.588,8.017-8.017  S414.632,401.904,410.204,401.904z"/>
<path d="M317.284,326.942c1.321,3.116,4.511,5.145,7.908,4.931c3.15-0.198,5.991-2.315,7.045-5.297  c2.452-6.941-5.341-13.37-11.663-9.579C317.186,319.027,315.829,323.296,317.284,326.942z"/>
<path d="M332.099,449.074c-2.691-6.397-12.154-6.506-14.815,0c-1.324,3.238-0.372,7.04,2.325,9.262  c2.578,2.125,6.318,2.396,9.184,0.691C332.196,457.001,333.558,452.728,332.099,449.074z"/>
<path d="M323.122,469.938c-3.23,0.623-5.788,3.302-6.334,6.532c-0.578,3.415,1.203,6.936,4.303,8.481  c3.019,1.503,6.711,0.959,9.147-1.375c2.488-2.384,3.166-6.207,1.654-9.302C330.32,471.06,326.636,469.218,323.122,469.938z"/>
<path d="M110.914,349.528h51.307c4.428,0,8.017-3.588,8.017-8.017c0-4.428-3.588-8.017-8.017-8.017h-51.307  c-4.428,0-8.017,3.588-8.017,8.017C102.898,345.94,106.486,349.528,110.914,349.528z"/>
<path d="M110.914,392.284h51.307c4.428,0,8.017-3.588,8.017-8.017s-3.588-8.017-8.017-8.017h-51.307  c-4.428,0-8.017,3.588-8.017,8.017S106.486,392.284,110.914,392.284z"/>
<path d="M110.914,435.04h51.307c4.428,0,8.017-3.588,8.017-8.017s-3.588-8.017-8.017-8.017h-51.307  c-4.428,0-8.017,3.588-8.017,8.017S106.486,435.04,110.914,435.04z"/>
<g>
</g>
<g>
</g>
<g>
</g>
<g>
</g>
<g>
</g>
<g>
</g>
<g>
</g>
<g>
</g>
<g>
</g>
<g>
</g>
<g>
</g>
<g>
</g>
<g>
</g>
<g>
</g>
<g>
</g>
</svg>
