<?xml version="1.0" encoding="iso-8859-1"?>
<!-- Generator: Adobe Illustrator 19.0.0, SVG Export Plug-In . SVG Version: 6.00 Build 0)  -->
<svg xmlns="http://www.w3.org/2000/svg" xmlns:xlink="http://www.w3.org/1999/xlink" version="1.1" id="Layer_1" x="0px" y="0px" viewBox="0 0 512.001 512.001" style="enable-background:new 0 0 512.001 512.001;" xml:space="preserve">
<circle style="fill:#FDDD85;" cx="299.296" cy="33.872" r="25.807"/>
<circle style="fill:#F2C127;" cx="299.296" cy="33.872" r="8.602"/>
<circle style="fill:#FDDD85;" cx="213.273" cy="33.872" r="25.807"/>
<circle style="fill:#F2C127;" cx="213.273" cy="33.872" r="8.602"/>
<path style="fill:#E5563C;" d="M428.326,409.147H84.234c-9.502,0-17.205-7.702-17.205-17.205V129.181  c0-7.758,5.193-14.557,12.678-16.598l172.046-46.921c2.963-0.809,6.089-0.809,9.054,0l172.046,46.921  c7.485,2.041,12.678,8.84,12.678,16.598v262.761C445.531,401.444,437.827,409.147,428.326,409.147z"/>
<path style="fill:#CF442B;" d="M101.439,383.34c-4.751,0-8.602-3.852-8.602-8.602V109.002l-13.129,3.581  c-7.485,2.041-12.678,8.84-12.678,16.598v262.761c0,9.501,7.702,17.205,17.205,17.205h344.092c9.501,0,17.205-7.703,17.205-17.205  v-8.602H101.439z"/>
<g>
	<circle style="fill:#FDDD85;" cx="393.921" cy="323.124" r="17.205"/>
	<circle style="fill:#FDDD85;" cx="118.648" cy="323.124" r="17.205"/>
</g>
<polygon style="fill:#EBEBEC;" points="411.121,142.322 273.485,104.785 273.485,262.908 411.121,262.908 "/>
<g>
	<polygon style="fill:#9B9DA1;" points="377.025,133.023 273.485,236.563 273.485,262.908 341.228,262.908 411.121,193.014    411.121,142.322  "/>
	<polygon style="fill:#9B9DA1;" points="273.485,104.785 273.485,168.82 323.798,118.506  "/>
	<polygon style="fill:#9B9DA1;" points="362.734,262.908 411.121,262.908 411.121,214.52  "/>
</g>
<polygon style="fill:#EBEBEC;" points="101.439,142.322 101.439,262.908 239.076,262.908 239.076,104.785 "/>
<g>
	<polygon style="fill:#9B9DA1;" points="101.439,142.322 101.439,193.552 171.88,123.111  "/>
	<polygon style="fill:#9B9DA1;" points="102.514,262.908 165.956,262.908 239.076,189.788 239.076,126.346  "/>
	<polygon style="fill:#9B9DA1;" points="189.075,262.908 239.076,262.908 239.076,212.907  "/>
</g>
<path d="M419.186,323.124c0-13.934-11.336-25.269-25.269-25.269c-13.934,0-25.269,11.336-25.269,25.269  c0,13.934,11.336,25.269,25.269,25.269C407.85,348.393,419.186,337.057,419.186,323.124z M393.917,332.264  c-5.04,0-9.14-4.1-9.14-9.14c0-5.04,4.1-9.14,9.14-9.14s9.14,4.1,9.14,9.14C403.057,328.164,398.956,332.264,393.917,332.264z"/>
<path d="M143.913,323.124c0-13.934-11.336-25.269-25.269-25.269s-25.269,11.336-25.269,25.269c0,13.934,11.336,25.269,25.269,25.269  S143.913,337.057,143.913,323.124z M118.643,332.264c-5.04,0-9.14-4.1-9.14-9.14c0-5.04,4.1-9.14,9.14-9.14  c5.04,0,9.14,4.1,9.14,9.14C127.783,328.164,123.682,332.264,118.643,332.264z"/>
<path d="M444.993,193.552c4.455,0,8.065-3.61,8.065-8.065v-56.305c0-11.364-7.388-21.39-18.351-24.379L298.938,67.738  c0.073,0,0.213,0.005,0.287,0.005c18.677,0,33.905-15.195,33.905-33.872S317.951,0,299.274,0c-18.677,0-33.863,15.195-33.863,33.872  c0,12.499,6.814,23.431,16.914,29.3l-19.401-5.291c-4.347-1.185-8.943-1.186-13.295,0.001l-19.401,5.291  c10.1-5.869,16.912-16.801,16.912-29.3c0-18.677-15.195-33.872-33.872-33.872s-33.872,15.195-33.872,33.872  s15.195,33.872,33.872,33.872c0.074,0,0.147-0.005,0.222-0.005L77.316,104.803c-10.963,2.989-18.888,13.015-18.888,24.379v262.76  c0,13.934,11.873,25.807,25.807,25.807h20.824L59.95,500.178c-1.969,3.61-0.833,8.121,2.576,10.417  c3.889,2.619,9.341,1.483,11.583-2.625l7.092-12.8h350.158l7.091,12.734c2.245,4.115,7.688,5.302,11.583,2.693  c3.414-2.288,4.542-6.745,2.576-10.35l-45.107-82.498h20.824c13.934,0,24.732-11.873,24.732-25.807V219.896  c0-4.455-3.61-8.065-8.065-8.065s-8.065,3.61-8.065,8.065v172.046c0,5.04-3.562,9.678-8.602,9.678H84.234  c-5.04,0-9.678-4.638-9.678-9.678v-262.76c0-4.11,3.038-7.737,7.004-8.818l172.178-46.921c1.575-0.43,3.308-0.429,4.879-0.001  l171.81,46.922c3.966,1.082,6.5,4.709,6.5,8.818v56.305C436.928,189.942,440.538,193.552,444.993,193.552z M299.292,16.129  c9.783,0,17.742,7.959,17.742,17.742s-7.959,17.742-17.742,17.742c-9.783,0-17.742-7.959-17.742-17.742  S289.509,16.129,299.292,16.129z M195.526,33.872c0-9.783,7.959-17.742,17.742-17.742c9.783,0,17.742,7.959,17.742,17.742  s-7.959,17.742-17.742,17.742C203.486,51.614,195.526,43.654,195.526,33.872z M407.898,452.158l14.663,26.882H89.999l14.663-26.882  H407.898z M123.431,417.749H389.13l9.971,18.28H113.459L123.431,417.749z"/>
<path d="M263.807,340.328v-34.409c0-4.455-3.61-8.065-8.065-8.065c-4.455,0-8.065,3.61-8.065,8.065v34.409  c0,4.455,3.61,8.065,8.065,8.065C260.197,348.393,263.807,344.783,263.807,340.328z"/>
<path d="M298.216,340.328v-34.409c0-4.455-3.61-8.065-8.065-8.065s-8.065,3.61-8.065,8.065v34.409c0,4.455,3.61,8.065,8.065,8.065  S298.216,344.783,298.216,340.328z"/>
<path d="M332.626,340.328v-34.409c0-4.455-3.61-8.065-8.065-8.065s-8.065,3.61-8.065,8.065v34.409c0,4.455,3.61,8.065,8.065,8.065  S332.626,344.783,332.626,340.328z"/>
<path d="M213.269,305.919v34.409c0,4.455,3.61,8.065,8.065,8.065c4.455,0,8.065-3.61,8.065-8.065v-34.409  c0-4.455-3.61-8.065-8.065-8.065C216.878,297.854,213.269,301.464,213.269,305.919z"/>
<path d="M178.859,305.919v34.409c0,4.455,3.61,8.065,8.065,8.065c4.455,0,8.065-3.61,8.065-8.065v-34.409  c0-4.455-3.61-8.065-8.065-8.065C182.469,297.854,178.859,301.464,178.859,305.919z"/>
<path d="M418.648,142.322c0-3.637-2.166-6.824-5.673-7.78L275.203,97.005c-5.048-1.381-10.322,2.553-10.322,7.78v158.123  c0,4.455,4.147,8.602,8.602,8.602H411.12c4.455,0,7.527-4.147,7.527-8.602V142.322H418.648z M402.519,255.381H281.012V115.344  l121.507,33.138V255.381z"/>
<path d="M246.603,262.908V104.785c0-5.226-4.869-9.164-9.918-7.78L98.913,134.542c-3.509,0.957-6.076,4.144-6.076,7.78v120.586  c0,4.455,4.147,8.602,8.602,8.602h137.637C243.529,271.51,246.603,267.363,246.603,262.908z M230.473,255.381H108.966V148.482  l121.507-33.138V255.381z"/>
<path d="M153.053,383.34h206.455c4.455,0,8.065-3.61,8.065-8.065s-3.61-8.065-8.065-8.065H153.053c-4.455,0-8.065,3.61-8.065,8.065  S148.598,383.34,153.053,383.34z"/>
<path d="M400.627,370.264c-1.826-2.672-5.096-4.07-8.29-3.43c-3.309,0.662-5.89,3.382-6.394,6.718  c-0.503,3.33,1.209,6.711,4.174,8.296c3.046,1.628,6.897,1.086,9.386-1.301C402.271,377.89,402.777,373.459,400.627,370.264z"/>
<path d="M125.341,370.264c-3.979-6.054-13.602-3.799-14.672,3.288c-0.495,3.275,1.143,6.562,4.003,8.198  c3.01,1.722,6.902,1.249,9.444-1.094C126.95,378.045,127.579,373.46,125.341,370.264z"/>
<g>
</g>
<g>
</g>
<g>
</g>
<g>
</g>
<g>
</g>
<g>
</g>
<g>
</g>
<g>
</g>
<g>
</g>
<g>
</g>
<g>
</g>
<g>
</g>
<g>
</g>
<g>
</g>
<g>
</g>
</svg>
