<?xml version="1.0" encoding="iso-8859-1"?>
<!-- Generator: Adobe Illustrator 19.0.0, SVG Export Plug-In . SVG Version: 6.00 Build 0)  -->
<svg xmlns="http://www.w3.org/2000/svg" xmlns:xlink="http://www.w3.org/1999/xlink" version="1.1" id="Layer_1" x="0px" y="0px" viewBox="0 0 512.001 512.001" style="enable-background:new 0 0 512.001 512.001;" xml:space="preserve">
<path style="fill:#74757B;" d="M418.836,503.458H94.232c-9.436,0-17.084-7.648-17.084-17.084V84.89  c0-9.436,7.648-17.084,17.084-17.084h324.604c9.436,0,17.084,7.648,17.084,17.084v401.484  C435.921,495.809,428.272,503.458,418.836,503.458z"/>
<path d="M418.836,512.001H94.232c-13.836,0-25.627-11.79-25.627-25.627V84.89c0-13.836,11.523-25.093,25.36-25.093  c4.423,0,8.142,3.585,8.142,8.008s-3.785,8.008-8.209,8.008c-5.005,0-9.277,4.071-9.277,9.076v401.484c0,5.005,4.605,9.61,9.61,9.61  h324.604c5.005,0,8.542-4.605,8.542-9.61V84.89c0-5.005-3.804-9.076-8.809-9.076c-4.424,0-7.875-3.585-7.875-8.008  s3.385-8.008,7.809-8.008c13.836,0,24.893,11.257,24.893,25.093v401.484C443.395,500.21,432.672,512.001,418.836,512.001z"/>
<g>
	<path style="fill:#E5563C;" d="M179.654,366.783h-51.253c-4.717,0-8.542-3.825-8.542-8.542v-51.253   c0-4.717,3.825-8.542,8.542-8.542h51.253c4.717,0,8.542,3.825,8.542,8.542v51.253C188.196,362.958,184.373,366.783,179.654,366.783   z"/>
	<path style="fill:#E5563C;" d="M282.161,366.783h-51.253c-4.717,0-8.542-3.825-8.542-8.542v-51.253   c0-4.717,3.825-8.542,8.542-8.542h51.253c4.717,0,8.542,3.825,8.542,8.542v51.253C290.703,362.958,286.879,366.783,282.161,366.783   z"/>
	<path style="fill:#E5563C;" d="M179.654,469.289h-51.253c-4.717,0-8.542-3.825-8.542-8.542v-51.253   c0-4.717,3.825-8.542,8.542-8.542h51.253c4.717,0,8.542,3.825,8.542,8.542v51.253C188.196,465.465,184.373,469.289,179.654,469.289   z"/>
	<path style="fill:#E5563C;" d="M282.161,469.289h-51.253c-4.717,0-8.542-3.825-8.542-8.542v-51.253   c0-4.717,3.825-8.542,8.542-8.542h51.253c4.717,0,8.542,3.825,8.542,8.542v51.253C290.703,465.465,286.879,469.289,282.161,469.289   z"/>
</g>
<g>
	<path style="fill:#CF442B;" d="M136.943,349.698v-51.253h-8.542c-4.717,0-8.542,3.825-8.542,8.542v51.253   c0,4.717,3.825,8.542,8.542,8.542h51.253c4.717,0,8.542-3.825,8.542-8.542v-8.542H136.943z"/>
	<path style="fill:#CF442B;" d="M239.45,349.698v-51.253h-8.542c-4.717,0-8.542,3.825-8.542,8.542v51.253   c0,4.717,3.825,8.542,8.542,8.542h51.253c4.717,0,8.542-3.825,8.542-8.542v-8.542H239.45z"/>
	<path style="fill:#CF442B;" d="M239.45,452.205v-51.253h-8.542c-4.717,0-8.542,3.825-8.542,8.542v51.253   c0,4.717,3.825,8.542,8.542,8.542h51.253c4.717,0,8.542-3.825,8.542-8.542v-8.542H239.45z"/>
	<path style="fill:#CF442B;" d="M136.943,452.205v-51.253h-8.542c-4.717,0-8.542,3.825-8.542,8.542v51.253   c0,4.717,3.825,8.542,8.542,8.542h51.253c4.717,0,8.542-3.825,8.542-8.542v-8.542H136.943z"/>
</g>
<path style="fill:#6AC8B7;" d="M384.667,469.289h-51.253c-4.717,0-8.542-3.825-8.542-8.542v-153.76c0-4.717,3.825-8.542,8.542-8.542  h51.253c4.717,0,8.542,3.825,8.542,8.542v153.76C393.21,465.465,389.386,469.289,384.667,469.289z"/>
<path style="fill:#2DB59F;" d="M341.956,452.205v-153.76h-8.542c-4.717,0-8.542,3.825-8.542,8.542v153.76  c0,4.717,3.825,8.542,8.542,8.542h51.253c4.717,0,8.542-3.825,8.542-8.542v-8.542H341.956z"/>
<polygon style="fill:#EBEBEC;" points="393.21,264.276 119.859,264.276 119.859,8.01 171.112,42.179 213.823,8.01 256.534,42.179   299.245,8.01 341.956,42.179 393.21,8.01 "/>
<rect x="119.859" y="238.649" style="fill:#D7D8D9;" width="273.351" height="25.627"/>
<path d="M195.671,307.521c0-9.14-7.41-16.551-16.551-16.551h-51.253c-9.14,0-16.551,7.41-16.551,16.551v51.253  c0,9.14,7.41,16.551,16.551,16.551h51.253c9.14,0,16.551-7.41,16.551-16.551V307.521z M179.654,358.775  c0,0.295-0.239,0.534-0.534,0.534h-51.253c-0.295,0-0.534-0.239-0.534-0.534v-51.253c0-0.295,0.239-0.534,0.534-0.534h51.253  c0.295,0,0.534,0.239,0.534,0.534V358.775z"/>
<path d="M298.177,307.521c0-9.14-7.41-16.551-16.551-16.551h-51.253c-9.14,0-16.551,7.41-16.551,16.551v51.253  c0,9.14,7.41,16.551,16.551,16.551h51.253c9.14,0,16.551-7.41,16.551-16.551V307.521z M282.161,358.775  c0,0.295-0.239,0.534-0.534,0.534h-51.253c-0.295,0-0.534-0.239-0.534-0.534v-51.253c0-0.295,0.239-0.534,0.534-0.534h51.253  c0.295,0,0.534,0.239,0.534,0.534V358.775z"/>
<path d="M195.671,410.028c0-9.14-7.41-16.551-16.551-16.551h-51.253c-9.14,0-16.551,7.41-16.551,16.551v51.253  c0,9.14,7.41,16.551,16.551,16.551h51.253c9.14,0,16.551-7.41,16.551-16.551V410.028z M179.654,461.281  c0,0.295-0.239,0.534-0.534,0.534h-51.253c-0.295,0-0.534-0.239-0.534-0.534v-51.253c0-0.295,0.239-0.534,0.534-0.534h51.253  c0.295,0,0.534,0.239,0.534,0.534V461.281z"/>
<path d="M298.177,410.028c0-9.14-7.41-16.551-16.551-16.551h-51.253c-9.14,0-16.551,7.41-16.551,16.551v51.253  c0,9.14,7.41,16.551,16.551,16.551h51.253c9.14,0,16.551-7.41,16.551-16.551V410.028z M282.161,461.281  c0,0.295-0.239,0.534-0.534,0.534h-51.253c-0.295,0-0.534-0.239-0.534-0.534v-51.253c0-0.295,0.239-0.534,0.534-0.534h51.253  c0.295,0,0.534,0.239,0.534,0.534V461.281z"/>
<path d="M400.684,307.521c0-9.14-7.41-16.551-16.551-16.551H332.88c-9.14,0-16.551,7.41-16.551,16.551v153.76  c0,9.14,7.41,16.551,16.551,16.551h51.253c9.14,0,16.551-7.41,16.551-16.551V307.521z M384.667,461.281  c0,0.295-0.239,0.534-0.534,0.534H332.88c-0.295,0-0.534-0.239-0.534-0.534v-153.76c0-0.295,0.239-0.534,0.534-0.534h51.253  c0.295,0,0.534,0.239,0.534,0.534V461.281z"/>
<path d="M162.57,325.14h-1.068v-1.068c0-4.424-3.586-8.008-8.008-8.008s-8.008,3.585-8.008,8.008v1.068l0,0  c-4.423,0-8.008,3.585-8.008,8.008c0,4.424,3.586,8.008,8.008,8.008l0,0l0,0c0,4.424,3.586,8.008,8.008,8.008  s8.008-3.585,8.008-8.008l0,0h1.068c4.423,0,8.008-3.585,8.008-8.008C170.578,328.724,166.993,325.14,162.57,325.14z"/>
<path d="M265.076,325.14h-17.084c-4.423,0-8.008,3.585-8.008,8.008c0,4.424,3.586,8.008,8.008,8.008h17.084  c4.424,0,8.008-3.585,8.008-8.008C273.085,328.724,269.5,325.14,265.076,325.14z"/>
<path d="M259.414,420.915l-17.084,17.084c-3.128,3.129-3.128,8.198,0,11.326c1.563,1.563,3.613,2.345,5.662,2.345  s4.099-0.782,5.662-2.345l17.084-17.084c3.128-3.129,3.128-8.198,0-11.326C267.611,417.788,262.542,417.788,259.414,420.915z"/>
<path d="M168.233,420.915c-3.128-3.126-8.198-3.126-11.325,0l-2.88,2.88l-2.88-2.88c-3.128-3.126-8.198-3.126-11.325,0  c-3.128,3.129-3.128,8.198,0,11.326l2.879,2.879l-2.879,2.879c-3.128,3.129-3.128,8.198,0,11.326  c1.563,1.563,3.613,2.345,5.662,2.345s4.099-0.782,5.662-2.345l2.88-2.88l2.88,2.88c1.563,1.563,3.613,2.345,5.662,2.345  s4.099-0.782,5.662-2.345c3.128-3.129,3.128-8.198,0-11.326l-2.879-2.879l2.879-2.879  C171.361,429.113,171.361,424.044,168.233,420.915z"/>
<path d="M367.583,359.309h-17.084c-4.424,0-8.008,3.585-8.008,8.008c0,4.424,3.585,8.008,8.008,8.008h17.084  c4.424,0,8.008-3.585,8.008-8.008C375.591,362.893,372.007,359.309,367.583,359.309z"/>
<path d="M367.583,384.935h-17.084c-4.424,0-8.008,3.585-8.008,8.008s3.585,8.008,8.008,8.008h17.084  c4.424,0,8.008-3.585,8.008-8.008S372.007,384.935,367.583,384.935z"/>
<path d="M392.676,127.067c4.424,0,8.008-3.585,8.008-8.008V8.01c0-2.953-1.358-5.668-3.962-7.06  c-2.603-1.395-5.628-1.243-8.087,0.397l-46.315,30.92L304.216,1.756c-2.926-2.339-7.063-2.339-9.989,0l-37.7,30.167L218.822,1.756  c-2.925-2.339-7.078-2.339-10.003,0l-38.138,30.511L124.301,1.346c-2.458-1.639-5.885-1.793-8.488-0.397  c-2.603,1.393-4.496,4.108-4.496,7.06v256.266c0,4.424,4.119,8.542,8.542,8.542H393.21c4.424,0,7.474-4.118,7.474-8.542V153.227  c0-4.424-3.585-8.008-8.008-8.008c-4.424,0-8.008,3.585-8.008,8.008v103.574H127.333V22.973l39.07,25.869  c2.902,1.936,6.856,1.769,9.578-0.41l37.775-30.167l37.742,30.167c2.926,2.339,7.098,2.339,10.022,0l37.716-30.167l37.712,30.167  c2.724,2.179,6.28,2.346,9.181,0.41l38.538-25.869v96.085C384.667,123.481,388.253,127.067,392.676,127.067z"/>
<path d="M290.703,101.974c4.424,0,8.008-3.585,8.008-8.008s-3.585-8.008-8.008-8.008h-26.694v-9.61c0-4.424-3.585-8.008-8.008-8.008  c-4.423,0-8.008,3.585-8.008,8.008v9.61h-8.542c-13.836,0-25.627,10.723-25.627,24.559v25.627c0,13.836,11.79,25.627,25.627,25.627  h8.542v43.779h-25.627c-4.423,0-8.008,3.585-8.008,8.008c0,4.424,3.586,8.008,8.008,8.008h25.627v8.542  c0,4.424,3.586,8.008,8.008,8.008c4.424,0,8.008-3.585,8.008-8.008v-8.542h9.61c13.836,0,24.559-11.79,24.559-25.627v-25.627  c0-13.836-10.723-24.559-24.559-24.559h-9.61v-43.779C264.009,101.974,290.703,101.974,290.703,101.974z M273.619,161.77  c5.005,0,8.542,3.538,8.542,8.542v25.627c0,5.005-3.538,9.61-8.542,9.61h-9.61V161.77H273.619z M247.992,145.753h-8.542  c-5.005,0-9.61-4.605-9.61-9.61v-25.627c0-5.005,4.605-8.542,9.61-8.542h8.542V145.753z"/>
<g>
</g>
<g>
</g>
<g>
</g>
<g>
</g>
<g>
</g>
<g>
</g>
<g>
</g>
<g>
</g>
<g>
</g>
<g>
</g>
<g>
</g>
<g>
</g>
<g>
</g>
<g>
</g>
<g>
</g>
</svg>
