<?xml version="1.0" encoding="iso-8859-1"?>
<!-- Generator: Adobe Illustrator 19.0.0, SVG Export Plug-In . SVG Version: 6.00 Build 0)  -->
<svg xmlns="http://www.w3.org/2000/svg" xmlns:xlink="http://www.w3.org/1999/xlink" version="1.1" id="Layer_1" x="0px" y="0px" viewBox="0 0 512 512" style="enable-background:new 0 0 512 512;" xml:space="preserve">
<polygon style="fill:#FDDD85;" points="427.023,443.591 33.67,443.591 110.63,67.34 503.983,67.34 "/>
<polygon style="fill:#FDD042;" points="110.63,67.34 33.67,443.591 67.875,443.591 144.835,67.34 "/>
<polygon style="fill:#EBEBEC;" points="129.676,169.954 119.182,221.261 428.966,221.261 439.461,169.954 "/>
<polygon style="fill:#D7D8D9;" points="129.676,169.954 119.182,221.261 144.835,221.261 155.329,169.954 "/>
<polygon style="fill:#F2C127;" points="273.102,443.591 187.591,443.591 213.244,315.324 230.347,332.426 256,315.324   273.102,332.426 298.756,315.324 "/>
<polygon style="fill:#E1A527;" points="230.347,332.426 213.244,315.324 187.591,443.591 213.244,443.591 236.266,328.48 "/>
<path d="M42.221,84.443h34.205c4.427,0,8.017-3.588,8.017-8.017s-3.589-8.017-8.017-8.017H42.221c-4.427,0-8.017,3.588-8.017,8.017  S37.794,84.443,42.221,84.443z"/>
<path d="M75.891,136.284c0-4.428-3.589-8.017-8.017-8.017H8.017c-4.427,0-8.017,3.588-8.017,8.017c0,4.428,3.589,8.017,8.017,8.017  h59.858C72.302,144.301,75.891,140.712,75.891,136.284z"/>
<path d="M58.789,196.142c0-4.428-3.589-8.017-8.017-8.017H16.568c-4.427,0-8.017,3.588-8.017,8.017c0,4.428,3.589,8.017,8.017,8.017  h34.205C55.2,204.159,58.789,200.57,58.789,196.142z"/>
<path d="M510.195,62.539c-1.523-1.865-3.803-2.681-6.211-2.681h-76.96c-4.427,0-8.017,3.588-8.017,8.017s3.589,8.017,8.017,8.017  h67.138l-10.714,52.376H106.46l10.714-52.376h275.645c4.427,0,8.017-3.588,8.017-8.017s-3.589-8.017-8.017-8.017H110.63  c-3.808,0-7.091,2.412-7.854,6.143l-76.96,376.384c-1.002,4.896,2.861,9.757,7.854,9.757h393.353c3.808,0,7.091-2.947,7.854-6.677  l76.96-376.251C512.32,66.855,511.717,64.404,510.195,62.539z M197.369,436.109l20.799-104.257l6.511,6.377  c2.702,2.701,6.935,3.054,10.115,0.934l20.186-13.489l12.455,12.439c2.701,2.701,6.935,3.113,10.115,0.993l9.551-6.103  l-20.569,103.107H197.369z M420.48,436.109H282.882l23.736-118.945c1.369-6.846-6.483-12.261-12.308-8.376l-20.185,13.389  l-12.455-12.489c-2.701-2.7-6.935-3.138-10.115-1.018l-20.186,13.448l-12.456-12.459c-4.447-4.444-12.3-1.79-13.53,4.362  l-24.364,122.088H43.492l59.688-291.808h376.988L420.48,436.109z"/>
<path d="M445.672,165.153c-1.522-1.865-3.803-2.681-6.211-2.681H221.795c-4.427,0-8.017,3.588-8.017,8.017s3.589,8.017,8.017,8.017  h207.842l-7.215,35.273H129.004l7.215-35.273h51.372c4.427,0,8.017-3.588,8.017-8.017s-3.589-8.017-8.017-8.017h-57.915  c-3.808,0-7.091,2.412-7.854,6.143l-10.494,51.441c-1.002,4.896,2.861,9.757,7.854,9.757h309.785c3.808,0,7.091-2.947,7.854-6.677  l10.494-51.307C447.798,169.469,447.194,167.018,445.672,165.153z"/>
<path d="M419.992,239.043c-4.344-0.841-8.552,2.004-9.391,6.35l-6.608,34.205c-0.806,4.175,1.912,8.369,6.056,9.33  c4.369,1.012,8.834-1.886,9.685-6.288l6.608-34.205C427.182,244.087,424.339,239.883,419.992,239.043z"/>
<path d="M369.118,289.137c3.764,0,7.122-2.664,7.862-6.497l6.608-34.205c0.84-4.347-2.004-8.552-6.35-9.392  c-4.347-0.841-8.551,2.004-9.391,6.35l-6.608,34.205C360.295,284.475,364.15,289.137,369.118,289.137z"/>
<path d="M339.992,288.99c4.289,0.828,8.563-2.063,9.391-6.35l6.608-34.205c0.84-4.347-2.004-8.552-6.35-9.392  c-4.345-0.841-8.551,2.004-9.391,6.35l-6.608,34.205C332.801,283.946,335.644,288.15,339.992,288.99z"/>
<path d="M300.276,239.043c-4.344-0.841-8.552,2.004-9.391,6.35l-6.608,34.205c-0.806,4.175,1.912,8.369,6.056,9.33  c4.369,1.012,8.834-1.886,9.685-6.288l6.608-34.205C307.466,244.087,304.623,239.883,300.276,239.043z"/>
<path d="M272.679,239.043c-4.346-0.841-8.551,2.004-9.391,6.35l-6.608,34.205c-0.806,4.175,1.912,8.369,6.056,9.33  c4.369,1.012,8.834-1.886,9.685-6.288l6.608-34.205C279.869,244.087,277.026,239.883,272.679,239.043z"/>
<path d="M245.083,239.043c-4.354-0.837-8.552,2.004-9.392,6.35l-6.608,34.205c-0.806,4.174,1.912,8.369,6.056,9.33  c4.369,1.012,8.835-1.886,9.686-6.288l6.608-34.205C252.273,244.087,249.431,239.883,245.083,239.043z"/>
<path d="M217.486,239.043c-4.347-0.841-8.551,2.004-9.391,6.35l-6.608,34.205c-0.806,4.175,1.912,8.369,6.056,9.33  c4.369,1.012,8.834-1.886,9.685-6.288l6.608-34.205C224.676,244.087,221.833,239.883,217.486,239.043z"/>
<path d="M176.674,239.043c-4.351-0.837-8.551,2.004-9.392,6.35l-6.608,34.205c-0.806,4.174,1.912,8.369,6.056,9.33  c4.369,1.012,8.835-1.886,9.686-6.288l6.608-34.205C183.864,244.087,181.021,239.883,176.674,239.043z"/>
<path d="M152.963,239.043c-4.346-0.841-8.551,2.004-9.391,6.35l-6.608,34.205c-0.806,4.175,1.912,8.369,6.056,9.33  c4.369,1.012,8.834-1.886,9.685-6.288l6.608-34.205C160.153,244.087,157.31,239.883,152.963,239.043z"/>
<path d="M109.111,288.99c4.289,0.828,8.563-2.063,9.391-6.35l6.608-34.205c0.84-4.347-2.004-8.552-6.35-9.392  c-4.345-0.841-8.551,2.004-9.391,6.35l-6.608,34.205C101.92,283.946,104.763,288.15,109.111,288.99z"/>
<path d="M382.386,353.633c-2.52-3.773-7.848-4.687-11.48-1.967l-34.205,25.653c-3.494,2.621-4.224,7.729-1.603,11.223  c2.621,3.494,7.729,4.224,11.223,1.603l15.14-11.355l-10.555,36.943c-1.153,4.038,1.113,8.394,5.077,9.774  c4.293,1.493,9.092-1.004,10.339-5.369l12.339-43.19l7.487,11.229c2.615,3.922,8.22,4.721,11.833,1.687  c3.086-2.592,3.741-7.23,1.507-10.581L382.386,353.633z"/>
<path d="M134.403,353.633c-2.523-3.775-7.846-4.685-11.48-1.967l-34.205,25.653c-3.541,2.656-4.26,7.682-1.603,11.223  c2.656,3.541,7.682,4.26,11.223,1.603l15.14-11.355l-10.555,36.943c-1.153,4.038,1.113,8.394,5.077,9.774  c4.293,1.493,9.092-1.004,10.339-5.369l12.339-43.19l7.487,11.229c2.615,3.922,8.22,4.721,11.833,1.687  c3.086-2.592,3.741-7.23,1.507-10.581L134.403,353.633z"/>
<g>
</g>
<g>
</g>
<g>
</g>
<g>
</g>
<g>
</g>
<g>
</g>
<g>
</g>
<g>
</g>
<g>
</g>
<g>
</g>
<g>
</g>
<g>
</g>
<g>
</g>
<g>
</g>
<g>
</g>
</svg>
