<?xml version="1.0" encoding="iso-8859-1"?>
<!-- Generator: Adobe Illustrator 19.0.0, SVG Export Plug-In . SVG Version: 6.00 Build 0)  -->
<svg xmlns="http://www.w3.org/2000/svg" xmlns:xlink="http://www.w3.org/1999/xlink" version="1.1" id="Layer_1" x="0px" y="0px" viewBox="0 0 512.001 512.001" style="enable-background:new 0 0 512.001 512.001;" xml:space="preserve">
<circle style="fill:#74DBC9;" cx="317.558" cy="460.804" r="43.117"/>
<circle style="fill:#EBEBEC;" cx="317.558" cy="465.115" r="17.247"/>
<rect x="103.064" y="101.896" transform="matrix(-0.9805 0.1966 -0.1966 -0.9805 562.0851 458.4447)" style="fill:#FDD042;" width="310.448" height="310.448"/>
<polygon style="fill:#F2C127;" points="75.567,135.445 136.588,439.833 166.032,433.93 107.941,128.955 "/>
<path style="fill:#606268;" d="M278.532,182.707l-67.641,13.56c-18.678,3.745-36.857-8.361-40.601-27.041l-3.39-16.911  l135.283-27.121l3.39,16.911C309.317,160.784,297.21,178.962,278.532,182.707z"/>
<path style="fill:#4C4E55;" d="M305.573,142.106l-3.39-16.911l-0.316,0.064c1.038,16.933-10.545,32.461-27.647,35.89l-67.641,13.56  c-17.101,3.429-33.775-6.434-39.344-22.46l-0.335,0.067l3.39,16.911c3.745,18.678,21.922,30.786,40.601,27.041l67.641-13.56  C297.21,178.962,309.317,160.784,305.573,142.106z"/>
<g>
	<polygon style="fill:#E1A527;" points="337.718,170.841 396.905,158.976 386.735,108.245 327.548,120.109 349.544,142.085  "/>
	<polygon style="fill:#E1A527;" points="141.534,157.4 82.347,169.266 92.517,219.997 151.704,208.132 129.708,186.156  "/>
</g>
<g>
	<path style="fill:#D7D8D9;" d="M174.079,8.084c0,19.05,11.582,34.494,25.87,34.494c-14.288,0-25.87,15.443-25.87,34.494   c0-19.05-11.582-34.494-25.87-34.494C162.496,42.578,174.079,27.135,174.079,8.084z"/>
	<path style="fill:#D7D8D9;" d="M475.899,171.93c0,19.05,11.582,34.494,25.87,34.494c-14.288,0-25.87,15.443-25.87,34.494   c0-19.05-11.582-34.494-25.87-34.494C464.316,206.423,475.899,190.98,475.899,171.93z"/>
	<path style="fill:#D7D8D9;" d="M36.104,335.775c0,19.05,11.582,34.494,25.87,34.494c-14.288,0-25.87,15.443-25.87,34.494   c0-19.05-11.582-34.494-25.87-34.494C24.521,370.269,36.104,354.825,36.104,335.775z"/>
</g>
<path d="M508.088,365.355c-0.876-4.377-5.131-7.215-9.516-6.337l-51.259,10.276l-22.479-112.129  c-0.876-4.377-5.132-7.216-9.516-6.337c-4.378,0.877-7.215,5.138-6.337,9.516l22.479,112.128l-288.534,57.843l-40.893-203.98  l51.26-10.277c6.203-1.244,8.611-9.165,4.124-13.645l-18.182-18.166l9.775-23.772c2.409-5.861-2.859-12.25-9.066-11.001  l-51.259,10.276l-3.601-17.966l288.534-57.844l3.602,17.967l-51.26,10.277c-6.203,1.244-8.611,9.165-4.124,13.646l18.183,18.166  l-9.775,23.772c-2.408,5.859,2.857,12.249,9.066,11.001l51.259-10.276l11.268,56.204c0.876,4.377,5.132,7.215,9.516,6.337  c4.377-0.877,7.215-5.138,6.337-9.516L387.881,72.833c-0.863-4.311-5.199-7.208-9.516-6.337L81.905,125.929L59.763,15.482  c-0.876-4.377-5.13-7.213-9.516-6.337L8.643,17.486c-4.377,0.877-7.215,5.138-6.337,9.516c0.876,4.377,5.129,7.213,9.516,6.337  l33.676-6.751l83.162,414.833c0.861,4.307,5.2,7.207,9.516,6.337l152.551-30.582c-6.229,3.826-11.614,8.982-15.786,15.248  c-7.58,11.383-10.275,25.037-7.586,38.446v-0.001c2.687,13.409,10.438,24.971,21.821,32.552c11.261,7.5,25.179,10.246,38.446,7.586  c27.681-5.549,45.687-32.585,40.138-60.267c-4.329-21.592-21.732-37.293-42.316-40.525l176.307-35.345  C506.128,373.994,508.966,369.734,508.088,365.355z M380.396,117.76l6.991,34.876l-36.448,7.307l6.081-14.785  c1.241-3.019,0.545-6.488-1.763-8.794l-11.309-11.299L380.396,117.76z M91.864,175.603l36.448-7.306l-6.081,14.785  c-1.241,3.019-0.545,6.488,1.763,8.794l11.309,11.299l-36.448,7.306L91.864,175.603z M351.908,453.92  c3.795,18.94-8.523,37.438-27.465,41.236c-9.177,1.836-18.518-0.005-26.305-5.191c-7.789-5.187-13.091-13.096-14.93-22.271  c0-0.001,0-0.001,0-0.001c-1.839-9.175,0.004-18.517,5.191-26.305c6.452-9.688,17.521-15.617,29.169-15.617  C333.912,425.769,348.574,437.295,351.908,453.92z"/>
<path d="M331.6,439.724c-5.632-3.75-12.383-5.084-19.021-3.753c-13.695,2.744-22.603,16.119-19.859,29.815v0.001  c1.33,6.634,5.164,12.353,10.797,16.103c5.571,3.71,12.457,5.068,19.02,3.752c6.635-1.329,12.354-5.163,16.104-10.794  c3.75-5.632,5.085-12.386,3.753-19.021C341.064,449.193,337.231,443.474,331.6,439.724z M325.184,465.885  c-2.767,4.153-8.546,5.316-12.704,2.546c-2.037-1.356-3.423-3.425-3.905-5.823c-0.993-4.955,2.229-9.793,7.183-10.786  c4.9-0.977,9.803,2.287,10.785,7.183C327.023,461.405,326.541,463.848,325.184,465.885z"/>
<path d="M178.679,254.944c4.379-0.877,7.215-5.138,6.337-9.516c-0.877-4.377-5.128-7.214-9.516-6.337l-42.276,8.476  c-4.377,0.877-7.215,5.138-6.337,9.516l13.56,67.641c0.888,4.435,5.413,7.323,9.812,6.272c4.172-0.997,6.884-5.247,6.041-9.451  l-5.191-25.894l17.439-3.496c4.379-0.876,7.216-5.138,6.338-9.515c-0.876-4.379-5.137-7.212-9.515-6.338l-17.44,3.496l-3.602-17.968  L178.679,254.944z"/>
<path d="M264.318,306.486c2.976-3.329,2.689-8.439-0.64-11.415l-20.09-17.959l9.513-1.908c4.377-0.877,7.215-5.138,6.337-9.516  l-6.78-33.82c-0.876-4.377-5.129-7.212-9.516-6.337l-42.276,8.475c-4.313,0.863-7.204,5.198-6.337,9.516l13.56,67.641  c0.888,4.435,5.413,7.323,9.812,6.272c4.172-0.997,6.884-5.247,6.041-9.451l-11.97-59.713l26.422-5.297l3.602,17.967l-17.44,3.496  c-6.398,1.283-8.673,9.596-3.798,13.954l32.145,28.735C256.232,310.103,261.343,309.815,264.318,306.486z"/>
<path d="M333.86,285.949c-0.876-4.377-5.131-7.215-9.516-6.337l-25.893,5.19l-3.602-17.967l17.439-3.496  c4.379-0.876,7.216-5.138,6.338-9.515c-0.876-4.379-5.135-7.217-9.515-6.338l-17.44,3.496l-3.602-17.967l25.894-5.191  c4.377-0.877,7.215-5.138,6.337-9.516c-0.876-4.377-5.129-7.215-9.516-6.337l-33.821,6.78c-4.313,0.863-7.204,5.198-6.337,9.516  l13.56,67.641c0.866,4.32,5.196,7.202,9.516,6.337l33.821-6.78C331.899,294.587,334.737,290.327,333.86,285.949z"/>
<path d="M393.046,274.086c-0.876-4.379-5.138-7.215-9.515-6.338l-25.893,5.189l-3.602-17.967l17.438-3.496  c4.379-0.877,7.215-5.138,6.337-9.516c-0.876-4.377-5.13-7.214-9.516-6.337l-17.438,3.496l-3.602-17.967l25.893-5.191  c4.377-0.877,7.215-5.138,6.337-9.516c-0.876-4.377-5.128-7.212-9.516-6.337l-33.82,6.78c-4.377,0.877-7.215,5.138-6.337,9.516  l13.56,67.641c0.866,4.318,5.196,7.203,9.515,6.337l33.82-6.779C391.085,282.723,393.923,278.462,393.046,274.086z"/>
<path d="M280.12,190.633c11.152-2.235,20.765-8.679,27.069-18.145c6.304-9.465,8.546-20.819,6.31-31.97l-3.39-16.911  c-0.863-4.311-5.198-7.21-9.516-6.338L165.31,144.39c-4.377,0.877-7.215,5.138-6.337,9.515l3.39,16.912  c2.235,11.151,8.679,20.764,18.146,27.068c7.074,4.712,15.203,7.153,23.513,7.153c2.809,0,5.64-0.279,8.458-0.844L280.12,190.633  L280.12,190.633z M276.942,174.78l-67.641,13.56c-6.917,1.387-13.958-0.003-19.83-3.913c-5.871-3.911-9.868-9.873-11.255-16.789  l-1.801-8.985l119.43-23.943l1.801,8.985c1.386,6.916-0.003,13.958-3.914,19.83C289.822,169.395,283.859,173.392,276.942,174.78  L276.942,174.78z"/>
<path d="M155.259,357.484c-4.377,0.877-7.215,5.138-6.337,9.516l5.086,25.366c0.888,4.435,5.413,7.323,9.812,6.272  c4.172-0.997,6.884-5.247,6.041-9.451l-5.086-25.366C163.899,359.444,159.647,356.606,155.259,357.484z"/>
<path d="M187.829,385.586c0.888,4.435,5.413,7.323,9.812,6.272c4.172-0.997,6.884-5.247,6.041-9.451l-5.086-25.366  c-0.876-4.377-5.129-7.211-9.516-6.337c-4.377,0.877-7.215,5.138-6.337,9.516L187.829,385.586z"/>
<path d="M231.357,342.228c-4.379,0.877-7.215,5.138-6.337,9.516l5.086,25.365c0.888,4.435,5.413,7.323,9.812,6.272  c4.173-0.997,6.884-5.247,6.041-9.451l-5.086-25.365C239.995,344.189,235.743,341.353,231.357,342.228z"/>
<path d="M272.38,368.634c0.888,4.435,5.413,7.323,9.812,6.272c4.173-0.997,6.884-5.247,6.041-9.451l-5.086-25.365  c-0.876-4.377-5.131-7.212-9.516-6.337c-4.379,0.877-7.215,5.138-6.337,9.516L272.38,368.634z"/>
<path d="M307.454,326.974c-4.379,0.876-7.216,5.138-6.338,9.515l5.085,25.365c0.888,4.435,5.411,7.325,9.811,6.274  c4.173-0.997,6.885-5.246,6.042-9.45l-5.085-25.365C316.092,328.933,311.834,326.096,307.454,326.974z"/>
<path d="M331.567,356.771c0.888,4.435,5.413,7.323,9.812,6.272c4.172-0.997,6.884-5.247,6.041-9.451l-5.086-25.366  c-0.876-4.377-5.13-7.211-9.516-6.337c-4.377,0.877-7.215,5.138-6.337,9.516L331.567,356.771z"/>
<path d="M358.186,316.802c-4.379,0.876-7.216,5.138-6.338,9.515l5.085,25.366c0.888,4.435,5.411,7.325,9.811,6.274  c4.173-0.997,6.885-5.246,6.042-9.45l-5.085-25.366C366.824,318.763,362.562,315.927,358.186,316.802z"/>
<path d="M390.753,344.905c0.888,4.435,5.413,7.323,9.812,6.272c4.172-0.997,6.884-5.247,6.041-9.451l-5.086-25.366  c-0.876-4.377-5.129-7.215-9.516-6.337c-4.377,0.877-7.215,5.138-6.337,9.516L390.753,344.905z"/>
<path d="M148.208,50.663c9.641,0,17.786,12.094,17.786,26.409c0,4.466,3.619,8.084,8.084,8.084s8.084-3.619,8.084-8.084  c0-14.315,8.145-26.409,17.786-26.409c4.466,0,8.084-3.619,8.084-8.084s-3.619-8.084-8.084-8.084  c-9.641,0-17.786-12.094-17.786-26.409c0-4.466-3.619-8.084-8.084-8.084s-8.084,3.619-8.084,8.084  c0,14.315-8.145,26.409-17.786,26.409c-4.466,0-8.084,3.619-8.084,8.084S143.742,50.663,148.208,50.663z M174.079,35.633  c1.766,2.602,3.776,4.937,5.985,6.945c-2.209,2.008-4.219,4.343-5.985,6.945c-1.766-2.602-3.776-4.937-5.985-6.945  C170.303,40.57,172.313,38.235,174.079,35.633z"/>
<path d="M450.028,214.508c9.641,0,17.786,12.094,17.786,26.409c0,4.466,3.619,8.084,8.084,8.084c4.466,0,8.084-3.619,8.084-8.084  c0-14.315,8.145-26.409,17.786-26.409c4.466,0,8.084-3.619,8.084-8.084c0-4.466-3.619-8.084-8.084-8.084  c-9.641,0-17.786-12.094-17.786-26.409c0-4.466-3.619-8.084-8.084-8.084c-4.466,0-8.084,3.619-8.084,8.084  c0,14.315-8.145,26.409-17.786,26.409c-4.466,0-8.084,3.619-8.084,8.084C441.944,210.889,445.563,214.508,450.028,214.508z   M475.899,199.478c1.766,2.602,3.776,4.937,5.985,6.945c-2.209,2.008-4.219,4.343-5.985,6.945c-1.766-2.602-3.776-4.937-5.985-6.945  C472.123,204.415,474.133,202.08,475.899,199.478z"/>
<path d="M61.974,362.184c-9.641,0-17.786-12.094-17.786-26.409c0-4.466-3.619-8.084-8.084-8.084s-8.084,3.619-8.084,8.084  c0,14.315-8.145,26.409-17.786,26.409c-4.466,0-8.084,3.619-8.084,8.084c0,4.466,3.619,8.084,8.084,8.084  c9.641,0,17.786,12.094,17.786,26.409c0,4.466,3.619,8.084,8.084,8.084s8.084-3.619,8.084-8.084  c0-14.315,8.145-26.409,17.786-26.409c4.466,0,8.084-3.619,8.084-8.084C70.058,365.803,66.44,362.184,61.974,362.184z   M36.104,377.214c-1.766-2.602-3.776-4.937-5.985-6.945c2.209-2.008,4.219-4.343,5.985-6.945c1.766,2.602,3.776,4.937,5.985,6.945  C39.88,372.277,37.869,374.612,36.104,377.214z"/>
<g>
</g>
<g>
</g>
<g>
</g>
<g>
</g>
<g>
</g>
<g>
</g>
<g>
</g>
<g>
</g>
<g>
</g>
<g>
</g>
<g>
</g>
<g>
</g>
<g>
</g>
<g>
</g>
<g>
</g>
</svg>
