<?xml version="1.0" encoding="iso-8859-1"?>
<!-- Generator: Adobe Illustrator 19.0.0, SVG Export Plug-In . SVG Version: 6.00 Build 0)  -->
<svg xmlns="http://www.w3.org/2000/svg" xmlns:xlink="http://www.w3.org/1999/xlink" version="1.1" id="Layer_1" x="0px" y="0px" viewBox="0 0 512 512" style="enable-background:new 0 0 512 512;" xml:space="preserve">
<rect x="8.551" y="7.759" style="fill:#FDD042;" width="495.967" height="427.557"/>
<rect x="8.551" y="7.759" style="fill:#F2C127;" width="25.653" height="427.557"/>
<rect x="384.802" y="7.759" style="fill:#FDDD85;" width="119.716" height="427.557"/>
<circle style="fill:#74757B;" cx="196.751" cy="238.641" r="153.921"/>
<circle style="fill:#C3C4C6;" cx="196.751" cy="238.641" r="119.716"/>
<circle style="fill:#EBEBEC;" cx="196.751" cy="238.641" r="102.614"/>
<path style="fill:#74DBC9;" d="M456.753,498.643L456.753,498.643c-6.678,6.678-17.507,6.678-24.186,0l-96.746-96.746l24.186-24.186  l96.746,96.746C463.432,481.135,463.432,491.963,456.753,498.643z"/>
<path style="fill:#6AC8B7;" d="M441.117,487.838l-95.619-95.619l-9.678,9.678l96.746,96.746c6.678,6.68,17.507,6.68,24.186,0l0,0  c2.229-2.229,3.696-4.922,4.437-7.767C454.732,494.284,446.552,493.271,441.117,487.838z"/>
<g>
	<path style="fill:#CF442B;" d="M196.676,161.679c-7.084,0-12.827,5.743-12.827,12.827v68.409c0,7.084,5.743,12.827,12.827,12.827   s12.827-5.743,12.827-12.827v-68.409C209.503,167.422,203.76,161.679,196.676,161.679z"/>
	<circle style="fill:#CF442B;" cx="196.676" cy="298.499" r="17.102"/>
</g>
<polygon style="fill:#F2C127;" points="419.006,110.372 444.66,76.168 470.313,110.372 470.313,7.759 419.006,7.759 "/>
<path d="M504.518,0.276H8.551C4.124,0.276,0,3.33,0,7.759v427.557c0,4.428,4.124,8.551,8.551,8.551h357.01  c0.114,0,0.227-0.28,0.34-0.284l60.996,60.863c4.897,4.897,11.329,7.278,17.762,7.278c6.433,0,12.865-2.481,17.762-7.378  c9.668-9.698,9.694-25.581,0-35.275l-25.454-25.203h67.55c4.427,0,7.482-4.123,7.482-8.551V7.76  C512,3.33,508.945,0.276,504.518,0.276z M461.762,16.31v70.013l-10.956-14.965c-1.515-2.019-3.756-3.207-6.28-3.207  s-5.1,1.188-6.614,3.207l-11.423,14.965V16.31C426.489,16.31,461.762,16.31,461.762,16.31z M453.745,486.548  c0,2.427-0.945,4.708-2.662,6.425c-3.542,3.542-9.306,3.542-12.849,0l-91.077-91.076l12.849-12.849l91.076,91.077  C452.8,481.841,453.745,484.122,453.745,486.548z M495.967,427.834h-74.823c-0.067,0-0.4-0.259-0.467-0.258l-28.393-28.393V187.689  c0-4.428-3.589-8.017-8.017-8.017c-4.427,0-8.017,3.588-8.017,8.017V383.15l-10.842-11.109c-3.086-3.086-8.117-3.086-11.203,0  l-6.358,6.424l-31.092-31.126c27.078-29.835,41.916-68.129,41.916-108.701c0-43.255-16.836-83.921-47.423-114.507  c-63.14-63.137-165.871-63.137-229.01,0c-30.586,30.586-47.428,71.252-47.428,114.507s16.845,83.921,47.431,114.507  c31.574,31.573,73.033,47.354,114.507,47.354c38.967,0,77.945-13.947,108.698-41.827l31.129,31.129l-6.424,6.424  c-3.131,3.132-3.131,8.474,0,11.605l19.733,20H16.033V16.307h360.217v137.174c0,4.428,3.589,8.017,8.017,8.017  c4.427,0,8.017-3.588,8.017-8.017V16.31h18.171v94.063c0,3.451,2.476,6.515,5.748,7.605c3.274,1.091,7.012-0.035,9.082-2.795  l19.306-25.653l19.273,25.653c2.18,2.905,5.912,3.987,9.264,2.582c2.947-1.236,4.665-4.198,4.665-7.392V16.31h18.171v411.524  H495.967z M93.581,341.808c-56.888-56.888-56.888-149.451,0-206.338c28.444-28.444,65.806-42.666,103.17-42.666  s74.726,14.222,103.171,42.666c27.557,27.557,42.734,64.197,42.734,103.17s-15.177,75.611-42.734,103.17  C243.032,398.698,150.469,398.698,93.581,341.808z"/>
<path d="M297.033,159.506c-2.747-3.471-7.789-4.062-11.261-1.314c-3.473,2.746-4.061,7.788-1.314,11.26  c35.11,44.387,31.359,108.087-8.723,148.17c-21.779,21.779-50.376,32.666-78.984,32.664c-28.6-0.003-57.209-10.89-78.984-32.664  c-43.551-43.551-43.551-114.415,0-157.966c37.359-37.36,96.422-43.381,140.439-14.319c3.694,2.438,8.667,1.422,11.107-2.272  c2.439-3.695,1.422-8.668-2.272-11.108c-50.345-33.24-117.89-26.358-160.61,16.362c-49.803,49.804-49.803,130.839,0,180.643  c24.901,24.901,57.611,37.351,90.32,37.351c32.71,0,65.42-12.451,90.322-37.351C332.907,283.124,337.19,210.274,297.033,159.506z"/>
<path d="M196.142,263.759c11.493,0,20.843-9.351,20.843-20.843v-68.409c0-11.493-9.351-20.843-20.843-20.843  s-20.843,9.351-20.843,20.843v68.409C175.299,254.408,184.649,263.759,196.142,263.759z M191.332,174.506  c0-2.652,2.158-4.81,4.81-4.81s4.81,2.158,4.81,4.81v68.409c0,2.652-2.158,4.81-4.81,4.81s-4.81-2.158-4.81-4.81V174.506z"/>
<path d="M196.676,323.617c13.851,0,25.119-11.268,25.119-25.119c0-13.851-11.268-25.119-25.119-25.119  c-13.851,0-25.119,11.268-25.119,25.119C171.557,312.348,182.826,323.617,196.676,323.617z M196.676,289.412  c5.01,0,9.086,4.076,9.086,9.086s-4.076,9.086-9.086,9.086c-5.01,0-9.086-4.076-9.086-9.086S191.667,289.412,196.676,289.412z"/>
<path d="M50.772,42.498c-4.427,0-8.017,3.588-8.017,8.017v8.551c0,4.428,3.589,8.017,8.017,8.017s8.017-3.588,8.017-8.017v-8.551  C58.789,46.086,55.2,42.498,50.772,42.498z"/>
<path d="M76.426,42.498c-4.427,0-8.017,3.588-8.017,8.017v8.551c0,4.428,3.589,8.017,8.017,8.017s8.017-3.588,8.017-8.017v-8.551  C84.443,46.086,80.853,42.498,76.426,42.498z"/>
<path d="M341.511,42.498c-4.427,0-8.017,3.588-8.017,8.017v8.551c0,4.428,3.589,8.017,8.017,8.017c4.427,0,8.017-3.588,8.017-8.017  v-8.551C349.528,46.086,345.939,42.498,341.511,42.498z"/>
<path d="M315.858,42.498c-4.427,0-8.017,3.588-8.017,8.017v8.551c0,4.428,3.589,8.017,8.017,8.017c4.427,0,8.017-3.588,8.017-8.017  v-8.551C323.875,46.086,320.285,42.498,315.858,42.498z"/>
<path d="M290.205,42.498c-4.427,0-8.017,3.588-8.017,8.017v8.551c0,4.428,3.589,8.017,8.017,8.017c4.427,0,8.017-3.588,8.017-8.017  v-8.551C298.221,46.086,294.632,42.498,290.205,42.498z"/>
<path d="M247.449,42.498c-4.427,0-8.017,3.588-8.017,8.017v8.551c0,4.428,3.589,8.017,8.017,8.017s8.017-3.588,8.017-8.017v-8.551  C255.466,46.086,251.876,42.498,247.449,42.498z"/>
<path d="M221.795,42.498c-4.427,0-8.017,3.588-8.017,8.017v8.551c0,4.428,3.589,8.017,8.017,8.017s8.017-3.588,8.017-8.017v-8.551  C229.812,46.086,226.223,42.498,221.795,42.498z"/>
<path d="M196.142,42.498c-4.427,0-8.017,3.588-8.017,8.017v8.551c0,4.428,3.589,8.017,8.017,8.017s8.017-3.588,8.017-8.017v-8.551  C204.159,46.086,200.569,42.498,196.142,42.498z"/>
<path d="M170.489,42.498c-4.427,0-8.017,3.588-8.017,8.017v8.551c0,4.428,3.589,8.017,8.017,8.017s8.017-3.588,8.017-8.017v-8.551  C178.505,46.086,174.916,42.498,170.489,42.498z"/>
<path d="M119.182,42.498c-4.427,0-8.017,3.588-8.017,8.017v8.551c0,4.428,3.589,8.017,8.017,8.017c4.427,0,8.017-3.588,8.017-8.017  v-8.551C127.198,46.086,123.609,42.498,119.182,42.498z"/>
<g>
</g>
<g>
</g>
<g>
</g>
<g>
</g>
<g>
</g>
<g>
</g>
<g>
</g>
<g>
</g>
<g>
</g>
<g>
</g>
<g>
</g>
<g>
</g>
<g>
</g>
<g>
</g>
<g>
</g>
</svg>
