<?xml version="1.0" encoding="iso-8859-1"?>
<!-- Generator: Adobe Illustrator 19.0.0, SVG Export Plug-In . SVG Version: 6.00 Build 0)  -->
<svg xmlns="http://www.w3.org/2000/svg" xmlns:xlink="http://www.w3.org/1999/xlink" version="1.1" id="Layer_1" x="0px" y="0px" viewBox="0 0 512.001 512.001" style="enable-background:new 0 0 512.001 512.001;" xml:space="preserve">
<circle style="fill:#6AC8B7;" cx="255.997" cy="97.522" r="85.517"/>
<path style="fill:#2DB59F;" d="M273.104,157.388c-47.23,0-85.517-38.287-85.517-85.517c0-11.988,2.477-23.395,6.93-33.752  c-14.869,15.386-24.034,36.32-24.034,59.407c0,47.23,38.287,85.517,85.517,85.517c35.242,0,65.495-21.323,78.587-51.766  C319.038,147.367,297.247,157.388,273.104,157.388z"/>
<path style="fill:#FFFFFF;" d="M243.174,136.008c-3.283,0-6.566-1.253-9.07-3.757l-25.655-25.655c-5.009-5.01-5.009-13.131,0-18.141  c5.01-5.009,13.131-5.009,18.141,0l16.585,16.585l42.24-42.24c5.01-5.009,13.131-5.009,18.141,0c5.009,5.01,5.009,13.131,0,18.141  l-51.31,51.31C249.739,134.756,246.457,136.008,243.174,136.008z"/>
<rect x="59.307" y="217.246" style="fill:#FDD042;" width="290.759" height="282.207"/>
<rect x="59.307" y="217.246" style="fill:#F2C127;" width="25.655" height="282.207"/>
<g>
	<polygon style="fill:#FDDD85;" points="298.759,328.422 8,328.422 59.31,217.25 350.069,217.25  "/>
	<rect x="350.066" y="217.246" style="fill:#FDDD85;" width="102.621" height="282.207"/>
</g>
<polygon style="fill:#FDE5A2;" points="504.001,328.422 401.38,328.422 350.069,217.25 452.69,217.25 "/>
<rect x="375.721" y="439.592" style="fill:#74757B;" width="51.31" height="25.655"/>
<rect x="93.514" y="362.626" style="fill:#E1A527;" width="222.345" height="34.207"/>
<path d="M256,191.06c51.576,0,93.535-41.959,93.535-93.535c0-13.004-2.62-25.592-7.786-37.417  c-1.773-4.058-6.501-5.912-10.556-4.136c-4.058,1.772-5.909,6.498-4.137,10.556c4.277,9.787,6.445,20.216,6.445,30.997  c0,42.734-34.766,77.5-77.5,77.5s-77.5-34.766-77.5-77.5s34.766-77.5,77.5-77.5c20.413,0,39.68,7.869,54.253,22.158  c3.162,3.099,8.237,3.051,11.337-0.111c3.1-3.162,3.05-8.237-0.112-11.337C303.891,13.489,280.637,3.991,256,3.991  c-51.576,0-93.535,41.959-93.535,93.535S204.426,191.06,256,191.06z"/>
<path d="M279.744,57.13l-36.57,36.572l-10.916-10.916c-8.127-8.127-21.352-8.126-29.479,0.001c-8.126,8.127-8.126,21.352,0,29.479  l25.655,25.655c8.036,8.034,21.442,8.033,29.479,0l51.31-51.311c8.126-8.127,8.126-21.352-0.001-29.479  C301.097,49.006,287.873,49.006,279.744,57.13z M297.885,75.272l-51.309,51.31c-1.854,1.854-4.95,1.855-6.804,0l-25.655-25.654  c-1.876-1.876-1.876-4.928-0.001-6.803c1.85-1.849,4.954-1.85,6.804,0l16.585,16.585c3.131,3.13,8.208,3.13,11.337,0l42.239-42.24  c1.875-1.875,4.927-1.875,6.803-0.001C299.761,70.345,299.761,73.397,297.885,75.272z"/>
<path d="M511.28,325.331l-51.31-111.039c-1.311-2.839-4.152-4.524-7.28-4.524H59.31c-3.127,0-5.969,1.551-7.28,4.39L0.72,325.464  c-2.412,5.225,1.54,11.511,7.28,11.511h42.759v162.483c0,4.429,4.124,8.552,8.552,8.552h393.38c4.428,0,7.483-4.123,7.483-8.552  V336.975h43.828C509.74,336.974,513.692,330.556,511.28,325.331z M66.793,336.974h120.793c4.428,0,8.017-3.589,8.017-8.017  c0-4.429-3.59-8.017-8.017-8.017H20.53l43.91-95.138h273.099l-43.91,95.138h-71.836c-4.428,0-8.017,3.589-8.017,8.017  c0,4.429,3.59,8.017,8.017,8.017h76.966c3.127,0,5.702-2.086,7.012-4.925l35.746-78.298v238.223H66.793V336.974z M444.139,491.974  h-86.586V253.752l36.281,78.298c1.311,2.839,4.419,4.925,7.547,4.925h42.759V491.974z M406.51,320.94l-43.91-95.138h84.96  l43.91,95.138H406.51z"/>
<path d="M92.983,431.578c-4.428,0-8.017,3.589-8.017,8.017v25.655c0,4.429,3.59,8.017,8.017,8.017c4.428,0,8.017-3.589,8.017-8.017  v-25.655C101,435.167,97.41,431.578,92.983,431.578z"/>
<path d="M118.638,431.578c-4.428,0-8.017,3.589-8.017,8.017v25.655c0,4.429,3.59,8.017,8.017,8.017c4.428,0,8.017-3.589,8.017-8.017  v-25.655C126.655,435.167,123.066,431.578,118.638,431.578z"/>
<path d="M161.397,431.578c-4.428,0-8.017,3.589-8.017,8.017v25.655c0,4.429,3.59,8.017,8.017,8.017s8.017-3.589,8.017-8.017v-25.655  C169.414,435.167,165.824,431.578,161.397,431.578z"/>
<path d="M187.052,431.578c-4.428,0-8.017,3.589-8.017,8.017v25.655c0,4.429,3.59,8.017,8.017,8.017s8.017-3.589,8.017-8.017v-25.655  C195.069,435.167,191.48,431.578,187.052,431.578z"/>
<path d="M212.707,431.578c-4.428,0-8.017,3.589-8.017,8.017v25.655c0,4.429,3.59,8.017,8.017,8.017s8.017-3.589,8.017-8.017v-25.655  C220.724,435.167,217.135,431.578,212.707,431.578z"/>
<path d="M246.914,431.578c-4.428,0-8.017,3.589-8.017,8.017v25.655c0,4.429,3.59,8.017,8.017,8.017c4.428,0,8.017-3.589,8.017-8.017  v-25.655C254.931,435.167,251.342,431.578,246.914,431.578z"/>
<path d="M272.569,431.578c-4.428,0-8.017,3.589-8.017,8.017v25.655c0,4.429,3.59,8.017,8.017,8.017c4.428,0,8.017-3.589,8.017-8.017  v-25.655C280.587,435.167,276.997,431.578,272.569,431.578z"/>
<path d="M315.328,431.578c-4.428,0-8.017,3.589-8.017,8.017v25.655c0,4.429,3.59,8.017,8.017,8.017c4.428,0,8.017-3.589,8.017-8.017  v-25.655C323.345,435.167,319.756,431.578,315.328,431.578z"/>
<path d="M434.518,440.129c0-4.428-3.59-8.017-8.017-8.017h-51.31c-4.428,0-8.017,3.59-8.017,8.017v25.655  c0,4.428,3.59,8.017,8.017,8.017h51.31c4.428,0,8.017-3.59,8.017-8.017V440.129z M418.483,457.767h-35.276v-9.621h35.276V457.767z"/>
<path d="M323.345,363.164c0-4.428-3.59-8.017-8.017-8.017H92.983c-4.428,0-8.017,3.59-8.017,8.017v34.207  c0,4.428,3.59,8.017,8.017,8.017h222.345c4.428,0,8.017-3.59,8.017-8.017V363.164z M307.311,389.353H101v-18.172h206.311V389.353z"/>
<path d="M395.711,356.96l-25.655,25.655c-3.131,3.132-3.131,8.208,0,11.339c3.131,3.13,7.94,3.13,11.07,0l11.702-11.969v23.403  c0,4.429,3.59,8.017,8.017,8.017c4.428,0,8.017-3.589,8.017-8.017v-23.403l12.236,11.969c3.26,3.259,8.9,3.041,11.898-0.461  c2.687-3.138,2.56-7.96-0.359-10.879l-25.622-25.655C403.885,353.831,398.842,353.831,395.711,356.96z"/>
<g>
</g>
<g>
</g>
<g>
</g>
<g>
</g>
<g>
</g>
<g>
</g>
<g>
</g>
<g>
</g>
<g>
</g>
<g>
</g>
<g>
</g>
<g>
</g>
<g>
</g>
<g>
</g>
<g>
</g>
</svg>
