<?xml version="1.0" encoding="iso-8859-1"?>
<!-- Generator: Adobe Illustrator 19.0.0, SVG Export Plug-In . SVG Version: 6.00 Build 0)  -->
<svg xmlns="http://www.w3.org/2000/svg" xmlns:xlink="http://www.w3.org/1999/xlink" version="1.1" id="Layer_1" x="0px" y="0px" viewBox="0 0 512 512" style="enable-background:new 0 0 512 512;" xml:space="preserve">
<rect x="9.101" y="102.461" style="fill:#FDDD85;" width="494.865" height="401.012"/>
<polygon style="fill:#FDD042;" points="34.697,477.871 34.697,102.456 9.101,102.456 9.101,503.468 503.966,503.468   503.966,477.871 "/>
<g>
	<polygon style="fill:#C3C4C6;" points="362.197,228.727 331.344,197.875 377.623,161.88 398.192,182.449  "/>
	<polygon style="fill:#C3C4C6;" points="315.918,264.721 295.35,244.153 331.344,197.875 362.197,228.727  "/>
</g>
<rect x="242.245" y="234.193" transform="matrix(-0.7071 -0.7071 0.7071 -0.7071 223.9134 699.3001)" style="fill:#AFB0B4;" width="29.084" height="138.166"/>
<rect x="217.234" y="290.365" transform="matrix(-0.7071 0.7071 -0.7071 -0.7071 651.1759 340.0871)" style="fill:#9B9DA1;" width="75.839" height="29.084"/>
<path style="fill:#CF442B;" d="M134.165,442.911l-17.004-17.004c-6.664-6.664-6.664-17.469,0-24.132l63.282-63.282  c6.664-6.664,17.469-6.664,24.132,0l17.004,17.004c6.664,6.664,6.664,17.469,0,24.132l-63.282,63.282  C151.634,449.574,140.829,449.574,134.165,442.911z"/>
<path style="fill:#B83C26;" d="M129.922,419.918l66.846-66.846c5.68-5.68,14.889-5.68,20.568,0l9.328,9.328  c-0.707-1.865-1.8-3.619-3.303-5.121l-20.568-20.568c-5.679-5.68-14.889-5.68-20.568,0l-66.846,66.846  c-5.679,5.68-5.679,14.889,0,20.568l11.241,11.24C124.652,430.178,125.745,424.095,129.922,419.918z"/>
<path style="fill:#D7D8D9;" d="M321.405,340.917l-98.56-98.56c8.969-21.177,4.838-46.583-12.425-63.845  s-42.668-21.394-63.845-12.425l40.275,40.275l-30.852,30.852l-40.275-40.275c-8.969,21.177-4.838,46.583,12.425,63.845  c17.263,17.262,42.668,21.394,63.845,12.425l98.56,98.56c-8.969,21.177-4.838,46.583,12.425,63.845  c17.262,17.262,42.668,21.394,63.845,12.425l-41.137-41.137l30.852-30.852l41.137,41.137c8.969-21.177,4.838-46.583-12.425-63.845  S342.582,331.948,321.405,340.917z"/>
<path style="fill:#C3C4C6;" d="M317.24,421.352c-17.262-17.262-21.394-42.668-12.425-63.845l-98.56-98.56  c-21.177,8.969-46.583,4.838-63.845-12.425c-11.047-11.047-16.707-25.429-17.007-39.903l-9.68-9.68  c-8.969,21.177-4.838,46.583,12.425,63.845c17.262,17.262,42.668,21.394,63.845,12.425l98.56,98.56  c-8.969,21.177-4.838,46.583,12.425,63.845c17.262,17.262,42.668,21.394,63.845,12.424l-9.68-9.68  C342.668,438.059,328.286,432.399,317.24,421.352z"/>
<path d="M503.966,94.991H302.932c18.387-7.466,36.827-15.916,43.722-22.811c16.423-16.425,16.423-43.285,0-59.71  c-7.957-7.957-18.537-12.406-29.79-12.406c-11.253,0-21.833,4.348-29.788,12.306c-9.678,9.677-22.545,42.076-30.736,65.173  c-8.191-23.097-21.137-55.522-30.736-65.199V12.34C218.139,4.383,207.261,0,196.009,0c-11.252,0-21.736,4.38-29.693,12.338  c-16.423,16.425-16.375,43.417,0.049,59.844c6.895,6.895,25.382,15.344,43.77,22.81H9.101c-4.419,0-8.532,3.048-8.532,7.466v401.012  c0,4.418,4.114,8.532,8.532,8.532h494.865c4.419,0,7.466-4.115,7.466-8.532V102.456C511.432,98.039,508.384,94.991,503.966,94.991z   M298.388,23.649C298.389,23.649,298.389,23.649,298.388,23.649c4.936-4.935,11.497-7.653,18.476-7.653s13.542,2.717,18.476,7.653  c10.188,10.187,10.188,26.765,0.001,36.953c-7.22,7.219-39.9,20.078-66.13,29.174C278.306,63.549,291.165,30.873,298.388,23.649z   M177.726,23.649c4.935-4.935,11.497-7.653,18.476-7.653c6.979,0,13.541,2.717,18.475,7.653c0,0,0,0,0.001,0  c7.219,7.219,20.078,39.897,29.174,66.127c-26.23-9.095-58.908-21.954-66.127-29.174C167.537,50.414,167.537,33.836,177.726,23.649z   M495.434,496.002H16.566V110.988h478.867V496.002z"/>
<path d="M325.032,192.963l-35.687,45.883l-29.349,29.35l-27.852-27.852c7.822-23.656,1.789-49.632-16.066-67.487  c-19.158-19.158-47.664-24.705-72.62-14.134c-2.45,1.038-4.223,3.225-4.732,5.836c-0.51,2.611,0.314,5.305,2.195,7.185  l34.619,34.619L156,225.903l-34.618-34.618c-1.882-1.881-4.576-2.703-7.185-2.196c-2.611,0.509-4.799,2.282-5.837,4.732  c-10.571,24.958-5.023,53.464,14.135,72.62c17.856,17.857,43.829,23.89,67.485,16.066l27.852,27.852l-16.093,16.093  c-8.29-3.712-18.373-2.193-25.169,4.601l-66.845,66.846c-4.259,4.259-6.604,9.92-6.604,15.941s2.345,11.683,6.603,15.94  l20.568,20.568c4.258,4.258,9.919,6.603,15.94,6.603c6.022,0,11.683-2.345,15.94-6.603l31.351-31.351  c3.124-3.124,3.124-8.189,0-11.311c-3.125-3.124-8.189-3.124-11.313,0l-31.351,31.351c-1.236,1.236-2.88,1.917-4.628,1.917  s-3.392-0.68-4.628-1.917l-20.569-20.569c-1.236-1.236-1.918-2.88-1.918-4.628c0-1.748,0.682-3.392,1.919-4.629l66.845-66.846  c2.553-2.551,6.704-2.552,9.257,0l20.568,20.569c2.552,2.552,2.552,6.704,0,9.256l-15.8,15.801c-3.124,3.124-3.124,8.189,0,11.311  c3.125,3.124,8.189,3.124,11.313,0l15.8-15.8c6.795-6.796,8.312-16.879,4.6-25.169l16.093-16.093l31.542,31.542  c-7.822,23.656-1.79,49.632,16.066,67.487c12.708,12.708,29.524,19.427,46.694,19.425c8.715,0,17.524-1.732,25.927-5.291  c2.45-1.038,4.223-3.225,4.732-5.836c0.51-2.611-0.314-5.305-2.195-7.185l-35.482-35.481l19.541-19.54l35.48,35.48  c1.882,1.881,4.575,2.703,7.185,2.196c2.611-0.509,4.799-2.282,5.837-4.732c10.571-24.959,5.023-53.464-14.135-72.62  c-17.854-17.856-43.829-23.889-67.486-16.066l-31.543-31.543l29.346-29.347l45.885-35.688c0.037-0.03,0.07-0.064,0.108-0.094  c0.111-0.09,0.217-0.185,0.322-0.279c0.107-0.096,0.212-0.191,0.312-0.291c0.096-0.096,0.187-0.198,0.278-0.3  c0.1-0.111,0.199-0.221,0.292-0.337c0.029-0.035,0.061-0.067,0.089-0.102l35.994-46.278c2.476-3.185,2.195-7.714-0.657-10.567  l-20.568-20.569c-2.852-2.852-7.382-3.134-10.567-0.658l-46.278,35.995c-0.036,0.028-0.068,0.061-0.103,0.09  c-0.114,0.092-0.223,0.19-0.333,0.288c-0.103,0.093-0.207,0.186-0.305,0.284c-0.098,0.098-0.191,0.202-0.285,0.305  c-0.098,0.109-0.195,0.218-0.287,0.332C325.092,192.895,325.059,192.927,325.032,192.963z M332.096,209.938l18.038,18.039  l-33.553,26.096L306,243.491L332.096,209.938z M223.361,345.965l-9.255-9.255l15.037-15.037l9.255,9.255L223.361,345.965z   M324.524,348.283c18.93-8.018,40.545-3.811,55.07,10.714c11.493,11.493,16.526,27.426,14.155,42.951l-31.554-31.554  c-3.124-3.124-8.189-3.125-11.311,0l-30.854,30.852c-1.5,1.5-2.342,3.534-2.342,5.656c0,2.121,0.843,4.156,2.342,5.656  l31.556,31.555c-15.53,2.372-31.459-2.663-42.951-14.155c-14.526-14.526-18.731-36.142-10.715-55.07c1.27-3,0.595-6.472-1.71-8.776  l-98.56-98.56c-1.532-1.532-3.577-2.343-5.659-2.343c-1.051,0-2.111,0.207-3.117,0.633c-18.929,8.019-40.544,3.811-55.069-10.714  c-11.493-11.493-16.526-27.426-14.155-42.951l30.692,30.693c3.125,3.124,8.189,3.124,11.313,0l30.852-30.852  c3.124-3.124,3.124-8.189,0-11.312l-30.693-30.694c15.524-2.368,31.459,2.663,42.95,14.155  c14.526,14.526,18.732,36.142,10.716,55.07c-1.27,3-0.595,6.472,1.71,8.775l98.559,98.56  C318.052,348.877,321.526,349.554,324.524,348.283z M271.308,279.508l24.042-24.043l9.255,9.255l-24.041,24.043L271.308,279.508z   M376.959,172.529l10.582,10.582l-26.096,33.552l-18.038-18.038L376.959,172.529z"/>
<g>
</g>
<g>
</g>
<g>
</g>
<g>
</g>
<g>
</g>
<g>
</g>
<g>
</g>
<g>
</g>
<g>
</g>
<g>
</g>
<g>
</g>
<g>
</g>
<g>
</g>
<g>
</g>
<g>
</g>
</svg>
