<?xml version="1.0" encoding="iso-8859-1"?>
<!-- Generator: Adobe Illustrator 19.0.0, SVG Export Plug-In . SVG Version: 6.00 Build 0)  -->
<svg xmlns="http://www.w3.org/2000/svg" xmlns:xlink="http://www.w3.org/1999/xlink" version="1.1" id="Layer_1" x="0px" y="0px" viewBox="0 0 512 512" style="enable-background:new 0 0 512 512;" xml:space="preserve">
<path style="fill:#D7D8D9;" d="M487.174,503.458H25.894c-9.436,0-17.084-7.648-17.084-17.084V76.346  c0-9.436,7.649-17.084,17.084-17.084h461.28c9.436,0,17.084,7.649,17.084,17.084v410.027  C504.259,495.809,496.61,503.458,487.174,503.458z"/>
<path style="fill:#E5563C;" d="M504.259,76.346c0-9.435-7.65-17.084-17.084-17.084H25.894c-9.436,0-17.084,7.65-17.084,17.084  v68.338h495.449V76.346z"/>
<path style="fill:#C3C4C6;" d="M42.978,486.373V76.346c0-9.435,7.649-17.084,17.084-17.084H25.894  c-9.436,0-17.084,7.65-17.084,17.084v410.027c0,9.435,7.649,17.084,17.084,17.084h34.169  C50.627,503.458,42.978,495.808,42.978,486.373z"/>
<path style="fill:#CF442B;" d="M60.063,59.262H25.894c-9.436,0-17.084,7.65-17.084,17.084v68.338h34.169V76.346  C42.978,66.911,50.627,59.262,60.063,59.262z"/>
<g>
	<path style="fill:#88898E;" d="M273.618,76.346c0,9.436-7.648,17.084-17.084,17.084l0,0c-9.436,0-17.084-7.648-17.084-17.084   V25.093c0-9.436,7.648-17.084,17.084-17.084l0,0c9.436,0,17.084,7.649,17.084,17.084V76.346z"/>
	<path style="fill:#88898E;" d="M376.125,76.346c0,9.436-7.648,17.084-17.084,17.084l0,0c-9.436,0-17.084-7.648-17.084-17.084   V25.093c0-9.436,7.648-17.084,17.084-17.084l0,0c9.436,0,17.084,7.649,17.084,17.084V76.346z"/>
	<path style="fill:#88898E;" d="M171.112,76.346c0,9.436-7.648,17.084-17.084,17.084l0,0c-9.436,0-17.084-7.648-17.084-17.084   V25.093c0-9.436,7.648-17.084,17.084-17.084l0,0c9.436,0,17.084,7.649,17.084,17.084V76.346z"/>
</g>
<g>
	<rect x="68.605" y="178.853" style="fill:#EBEBEC;" width="68.338" height="68.338"/>
	<rect x="171.112" y="178.853" style="fill:#EBEBEC;" width="68.338" height="68.338"/>
	<rect x="273.618" y="178.853" style="fill:#EBEBEC;" width="68.338" height="68.338"/>
	<rect x="376.125" y="178.853" style="fill:#EBEBEC;" width="68.338" height="68.338"/>
	<rect x="68.605" y="289.902" style="fill:#EBEBEC;" width="68.338" height="68.338"/>
	<rect x="171.112" y="289.902" style="fill:#EBEBEC;" width="68.338" height="68.338"/>
	<rect x="376.125" y="289.902" style="fill:#EBEBEC;" width="68.338" height="68.338"/>
	<rect x="68.605" y="400.951" style="fill:#EBEBEC;" width="68.338" height="68.338"/>
	<rect x="171.112" y="400.951" style="fill:#EBEBEC;" width="68.338" height="68.338"/>
	<rect x="273.618" y="400.951" style="fill:#EBEBEC;" width="68.338" height="68.338"/>
	<rect x="376.125" y="400.951" style="fill:#EBEBEC;" width="68.338" height="68.338"/>
</g>
<rect x="273.618" y="289.902" style="fill:#FDD042;" width="68.338" height="68.338"/>
<path d="M487.174,51.787H383.6V25.093C383.6,11.257,372.343,0,358.507,0c-13.836,0-25.093,11.257-25.093,25.093v26.694h-52.321  V25.093C281.093,11.257,269.836,0,256,0c-13.836,0-25.093,11.257-25.093,25.093v26.694h-52.321V25.093  C178.586,11.257,167.33,0,153.493,0S128.4,11.257,128.4,25.093v26.694H25.894c-13.836,0-25.627,10.723-25.627,24.559v410.027  C0.267,500.21,12.057,512,25.894,512h461.28c13.836,0,24.559-11.79,24.559-25.627V76.346  C511.733,62.51,501.01,51.787,487.174,51.787z M349.431,25.093c0-5.005,4.071-9.076,9.076-9.076s9.076,4.071,9.076,9.076v51.253  c0,5.005-4.071,9.076-9.076,9.076s-9.076-4.071-9.076-9.076V25.093z M246.924,25.093c0-5.005,4.071-9.076,9.076-9.076  s9.076,4.071,9.076,9.076v51.253c0,5.005-4.071,9.076-9.076,9.076s-9.076-4.071-9.076-9.076V25.093z M144.417,25.093  c0-5.005,4.071-9.076,9.076-9.076c5.005,0,9.076,4.071,9.076,9.076v51.253c0,5.005-4.071,9.076-9.076,9.076  c-5.005,0-9.076-4.071-9.076-9.076V25.093z M487.174,495.983H25.894c-5.005,0-9.61-4.605-9.61-9.61V153.226H393.21  c4.424,0,8.008-3.586,8.008-8.008c0-4.423-3.585-8.008-8.008-8.008H16.284V76.346c0-5.005,4.605-8.542,9.61-8.542H128.4v8.542  c0,13.836,11.257,25.093,25.093,25.093s25.093-11.257,25.093-25.093v-8.542h52.321v8.542c0,13.836,11.257,25.093,25.093,25.093  c13.836,0,25.093-11.257,25.093-25.093v-8.542h52.321v8.542c0,13.836,11.257,25.093,25.093,25.093  c13.836,0,25.093-11.257,25.093-25.093v-8.542h103.575c5.005,0,8.542,3.538,8.542,8.542v60.863h-67.27  c-4.424,0-8.008,3.586-8.008,8.008c0,4.423,3.585,8.008,8.008,8.008h67.27v333.147C495.716,491.378,492.179,495.983,487.174,495.983  z"/>
<path d="M144.417,179.387c0-4.423-3.586-8.008-8.008-8.008H68.071c-4.423,0-8.008,3.586-8.008,8.008v68.338  c0,4.423,3.586,8.008,8.008,8.008h68.338c4.423,0,8.008-3.586,8.008-8.008V179.387z M128.4,239.716H76.079v-52.321H128.4V239.716z"/>
<path d="M246.924,179.387c0-4.423-3.586-8.008-8.008-8.008h-68.338c-4.423,0-8.008,3.586-8.008,8.008v68.338  c0,4.423,3.586,8.008,8.008,8.008h68.338c4.423,0,8.008-3.586,8.008-8.008V179.387z M230.907,239.716h-52.321v-52.321h52.321  V239.716z"/>
<path d="M349.431,179.387c0-4.423-3.586-8.008-8.008-8.008h-68.338c-4.423,0-8.008,3.586-8.008,8.008v68.338  c0,4.423,3.586,8.008,8.008,8.008h68.338c4.423,0,8.008-3.586,8.008-8.008V179.387z M333.414,239.716h-52.321v-52.321h52.321  V239.716z"/>
<path d="M451.937,179.387c0-4.423-3.586-8.008-8.008-8.008h-68.338c-4.423,0-8.008,3.586-8.008,8.008v68.338  c0,4.423,3.586,8.008,8.008,8.008h68.338c4.423,0,8.008-3.586,8.008-8.008V179.387z M435.921,239.716H383.6v-52.321h52.321V239.716z  "/>
<path d="M144.417,290.436c0-4.423-3.586-8.008-8.008-8.008H68.071c-4.423,0-8.008,3.586-8.008,8.008v68.338  c0,4.423,3.586,8.008,8.008,8.008h68.338c4.423,0,8.008-3.586,8.008-8.008V290.436z M128.4,350.765H76.079v-52.321H128.4V350.765z"/>
<path d="M246.924,290.436c0-4.423-3.586-8.008-8.008-8.008h-68.338c-4.423,0-8.008,3.586-8.008,8.008v68.338  c0,4.423,3.586,8.008,8.008,8.008h68.338c4.423,0,8.008-3.586,8.008-8.008V290.436z M230.907,350.765h-52.321v-52.321h52.321  V350.765z"/>
<path d="M451.937,290.436c0-4.423-3.586-8.008-8.008-8.008h-68.338c-4.423,0-8.008,3.586-8.008,8.008v68.338  c0,4.423,3.586,8.008,8.008,8.008h68.338c4.423,0,8.008-3.586,8.008-8.008V290.436z M435.921,350.765H383.6v-52.321h52.321V350.765z  "/>
<path d="M144.417,401.485c0-4.423-3.586-8.008-8.008-8.008H68.071c-4.423,0-8.008,3.586-8.008,8.008v68.338  c0,4.423,3.586,8.008,8.008,8.008h68.338c4.423,0,8.008-3.586,8.008-8.008V401.485z M128.4,461.814H76.079v-52.321H128.4V461.814z"/>
<path d="M246.924,401.485c0-4.423-3.586-8.008-8.008-8.008h-68.338c-4.423,0-8.008,3.586-8.008,8.008v68.338  c0,4.423,3.586,8.008,8.008,8.008h68.338c4.423,0,8.008-3.586,8.008-8.008V401.485z M230.907,461.814h-52.321v-52.321h52.321  V461.814z"/>
<path d="M349.431,401.485c0-4.423-3.586-8.008-8.008-8.008h-68.338c-4.423,0-8.008,3.586-8.008,8.008v68.338  c0,4.423,3.586,8.008,8.008,8.008h68.338c4.423,0,8.008-3.586,8.008-8.008V401.485z M333.414,461.814h-52.321v-52.321h52.321  V461.814z"/>
<path d="M451.937,401.485c0-4.423-3.586-8.008-8.008-8.008h-68.338c-4.423,0-8.008,3.586-8.008,8.008v68.338  c0,4.423,3.586,8.008,8.008,8.008h68.338c4.423,0,8.008-3.586,8.008-8.008V401.485z M435.921,461.814H383.6v-52.321h52.321V461.814z  "/>
<path d="M341.956,282.428h-7.719l3.62-2.68c3.68-2.453,4.675-7.559,2.221-11.238c-2.454-3.681-7.425-4.741-11.105-2.288  l-21.185,14.089l-21.185-14.14c-3.679-2.454-8.652-1.468-11.105,2.212c-2.454,3.68-1.459,8.915,2.221,11.368l3.62,2.676h-7.719  c-4.424,0-8.542,3.052-8.542,7.474v68.338c0,4.423,4.118,8.542,8.542,8.542h68.338c4.424,0,7.474-4.12,7.474-8.542v-68.338  C349.431,285.479,346.38,282.428,341.956,282.428z M299.245,308.054h-18.152v-9.61h18.152V308.054z M315.262,298.444h18.152v9.61  h-18.152V298.444z M281.093,324.071h18.152v26.694h-18.152V324.071z M315.262,350.765v-26.694h18.152v26.694H315.262z"/>
<g>
</g>
<g>
</g>
<g>
</g>
<g>
</g>
<g>
</g>
<g>
</g>
<g>
</g>
<g>
</g>
<g>
</g>
<g>
</g>
<g>
</g>
<g>
</g>
<g>
</g>
<g>
</g>
<g>
</g>
</svg>
