<?xml version="1.0" encoding="iso-8859-1"?>
<!-- Generator: Adobe Illustrator 19.0.0, SVG Export Plug-In . SVG Version: 6.00 Build 0)  -->
<svg xmlns="http://www.w3.org/2000/svg" xmlns:xlink="http://www.w3.org/1999/xlink" version="1.1" id="Layer_1" x="0px" y="0px" viewBox="0 0 512.001 512.001" style="enable-background:new 0 0 512.001 512.001;" xml:space="preserve">
<g>
	<path style="fill:#FDE5A2;" d="M376.251,503.717v-42.756l51.307-34.205l76.96-76.96V255.25c0-9.719-8.108-17.545-17.929-17.083   c-9.199,0.433-16.276,8.358-16.276,17.566v59.858l-68.409,42.756h-34.205c-37.781,0-68.409,30.628-68.409,68.409v76.96"/>
	<path style="fill:#FDE5A2;" d="M447.103,312.14l-45.199,45.884l24.187,24.187l45.38-46.067c6.628-6.729,6.547-17.558-0.182-24.186   C464.56,305.33,453.731,305.412,447.103,312.14z"/>
</g>
<path style="fill:#F2C127;" d="M416.139,372.26l9.951,9.952l45.38-46.067c5.751-5.838,6.443-14.759,2.132-21.349L416.139,372.26z"/>
<path style="fill:#FDD042;" d="M487.415,238.171v103.073l-76.96,76.96l-55.549,31.743c-2.665,1.522-4.309,4.356-4.309,7.425v46.344  h25.653v-42.756l51.307-34.205l76.96-76.96V255.25C504.518,245.807,497.035,238.175,487.415,238.171z"/>
<g>
	<path style="fill:#FDE5A2;" d="M136.818,503.717v-42.756l-51.307-34.205l-76.96-76.96V255.25c0-9.719,8.108-17.545,17.929-17.083   c9.199,0.433,16.276,8.358,16.276,17.566v59.858l68.409,42.756h34.205c37.781,0,68.409,30.628,68.409,68.409v76.96"/>
	<path style="fill:#FDE5A2;" d="M65.966,312.14l45.199,45.884l-24.187,24.187l-45.38-46.067c-6.628-6.729-6.547-17.558,0.182-24.186   C48.509,305.33,59.337,305.412,65.966,312.14z"/>
</g>
<path style="fill:#F2C127;" d="M96.929,372.26l-9.951,9.952l-45.38-46.067c-5.751-5.838-6.443-14.759-2.132-21.349L96.929,372.26z"/>
<path style="fill:#FDD042;" d="M25.653,238.171v103.073l76.96,76.96l55.549,31.743c2.665,1.522,4.309,4.356,4.309,7.425v46.344  h-25.653v-42.756l-51.307-34.205l-76.96-76.96V255.25C8.551,245.807,16.033,238.175,25.653,238.171z"/>
<rect x="102.614" y="76.159" style="fill:#6AC8B7;" width="307.841" height="230.881"/>
<rect x="102.614" y="76.159" style="fill:#2DB59F;" width="307.841" height="17.102"/>
<rect x="85.511" y="7.75" style="fill:#74DBC9;" width="342.046" height="68.409"/>
<path style="fill:#2DB59F;" d="M256.534,204.426L256.534,204.426c-18.891,0-34.205-15.314-34.205-34.205v-51.307h68.409v51.307  C290.739,189.112,275.425,204.426,256.534,204.426z"/>
<path d="M85.511,84.71h8.551v222.33c0,4.427,4.124,8.551,8.551,8.551h307.841c4.428,0,7.482-4.124,7.482-8.551V84.71h9.62  c4.428,0,7.482-4.124,7.482-8.551V7.75c0-4.427-3.054-7.482-7.482-7.482H85.511c-4.427,0-8.551,3.055-8.551,7.482v68.409  C76.96,80.587,81.084,84.71,85.511,84.71z M401.904,299.558H110.096V84.71h291.808V299.558z M92.994,16.301h326.013v52.376H92.994  V16.301z"/>
<path d="M504.486,237.074c-5.015-4.785-11.725-7.246-18.675-6.915c-13.41,0.631-24.049,11.865-24.049,25.573v43.507  c-6.413-0.893-14.969,1.787-20.637,7.541l-42.895,44.083h-30.531c-42.141,0-76.96,33.75-76.96,75.891v76.96  c0,4.427,3.588,8.017,8.017,8.017s8.017-3.589,8.017-8.017v-76.96c0-33.3,27.627-59.858,60.927-59.858h34.205  c2.91,0,5.449-1.822,6.854-4.141l44.057-44.857c3.516-3.568,9.281-3.679,12.849-0.164c3.569,3.517,3.613,9.246,0.097,12.816  l-45.38,46.05c-2.859,2.902-3.053,7.625-0.444,10.753c2.992,3.586,8.59,3.812,11.866,0.486l45.113-46.069  c9.225-9.365,9.432-24.186,0.881-33.982v-52.056c0-5.046,3.874-9.334,8.636-9.558c5.121-0.231,9.536,3.934,9.536,9.075v91.226  l-23.039,23.305c-2.918,2.918-2.979,7.74-0.292,10.877c2.998,3.502,8.57,3.72,11.831,0.46l25.419-25.653  c1.503-1.503,2.114-3.542,2.114-5.668V255.25C512,248.417,509.431,241.792,504.486,237.074z"/>
<path d="M447.541,395.434l-25.092,25.092l-50.912,33.764c-2.231,1.487-3.837,3.989-3.837,6.67v42.756  c0,4.427,3.588,8.017,8.017,8.017c4.428,0,8.017-3.589,8.017-8.017v-38.465l48.004-31.824c0.439-0.293,0.982-0.629,1.356-1.002  l25.721-25.653c3.131-3.131,3.164-8.207,0.033-11.337C455.715,392.304,450.673,392.304,447.541,395.434z"/>
<path d="M145.37,350.865h-30.531l-43.162-44.083c-4.708-4.78-11.264-7.573-17.973-7.624c-1.08-0.005-2.396-0.055-3.465,0.072  v-43.495c0-13.71-10.238-24.943-23.648-25.573c-6.935-0.33-13.658,2.128-18.675,6.915C2.969,241.792,0,248.417,0,255.25v17.585  c0,4.427,3.589,8.017,8.017,8.017s8.017-3.589,8.017-8.017V255.25c0-5.131,4.416-9.321,9.536-9.075  c4.762,0.223,8.636,4.512,8.636,9.558v52.036c-3.207,4.502-5.763,10.173-5.808,16.184c-0.05,6.709,2.649,13.037,7.357,17.816  l45.447,46.067c3.28,3.331,8.9,3.088,11.899-0.491c2.616-3.121,2.427-7.864-0.426-10.762l-45.371-46.067  c-3.222-3.271-3.457-8.625-0.528-12.165c3.386-4.092,9.749-4.374,13.479-0.588l44.059,44.993c1.405,2.318,3.945,4.14,6.854,4.14  h34.205c33.3,0,59.858,26.558,59.858,59.858v76.96c0,4.427,3.589,8.017,8.017,8.017s8.017-3.589,8.017-8.017v-76.96  C221.261,384.615,187.511,350.865,145.37,350.865z"/>
<path d="M140.998,454.291l-50.78-33.764l-74.184-74.051v-30.885c0-4.427-3.589-8.017-8.017-8.017S0,311.164,0,315.591v34.205  c0,2.126,1.112,4.165,2.616,5.668l77.094,76.96c0.373,0.373,0.581,0.709,1.022,1.002l47.536,31.825v38.465  c0,4.427,3.589,8.017,8.017,8.017c4.427,0,8.017-3.589,8.017-8.017v-42.756C144.301,458.28,143.229,455.777,140.998,454.291z"/>
<path d="M208.561,219.064c3.318,2.843,8.462,2.447,11.304-0.869l11.594-13.839c4.907,3.577,11.178,6.12,16.523,7.314v19.478h-8.551  c-4.427,0-8.017,3.589-8.017,8.017s3.589,8.017,8.017,8.017h34.205c4.428,0,8.017-3.589,8.017-8.017s-3.588-8.017-8.017-8.017h-9.62  V211.67c20.309-3.757,34.205-20.909,34.205-41.449v-51.307c0-3.546-2.037-6.548-5.228-7.606l3.771-4.364  c2.834-3.401,2.441-8.456-0.959-11.291c-3.401-2.833-8.422-2.107-11.258,1.293l-11.814,14.485H222.33  c-4.427,0-8.551,3.055-8.551,7.482v51.307c0,8.196,2.623,15.848,6.681,22.332l-12.9,15.207  C204.677,211.122,205.2,216.183,208.561,219.064z M282.188,127.466v42.756c0,14.44-11.48,26.188-25.921,26.188  c-5.285,0-10.072-1.579-14.192-4.282l29.03-33.791c2.037-2.377,2.539-5.723,1.229-8.567c-1.306-2.84-4.127-4.394-7.252-4.4  l15.159-17.904H282.188z M229.812,170.222v-42.756h29.559l-17.547,20.789c-1.991,2.389-2.421,5.582-1.101,8.398  c1.273,2.719,3.955,4.424,6.938,4.543l-15.921,18.229C230.669,176.57,229.812,173.448,229.812,170.222z"/>
<path d="M256,264.819c-4.427,0-8.017,3.589-8.017,8.017v8.551c0,4.427,3.589,8.017,8.017,8.017c4.428,0,8.017-3.589,8.017-8.017  v-8.551C264.017,268.408,260.428,264.819,256,264.819z"/>
<path d="M221.795,264.819c-4.427,0-8.017,3.589-8.017,8.017v8.551c0,4.427,3.589,8.017,8.017,8.017s8.017-3.589,8.017-8.017v-8.551  C229.812,268.408,226.223,264.819,221.795,264.819z"/>
<path d="M161.937,289.403c4.427,0,8.017-3.589,8.017-8.017v-8.551c0-4.427-3.589-8.017-8.017-8.017s-8.017,3.589-8.017,8.017v8.551  C153.921,285.814,157.51,289.403,161.937,289.403z"/>
<path d="M179.04,289.403c4.427,0,8.017-3.589,8.017-8.017v-8.551c0-4.427-3.589-8.017-8.017-8.017s-8.017,3.589-8.017,8.017v8.551  C171.023,285.814,174.612,289.403,179.04,289.403z"/>
<path d="M238.898,264.819c-4.427,0-8.017,3.589-8.017,8.017v8.551c0,4.427,3.589,8.017,8.017,8.017s8.017-3.589,8.017-8.017v-8.551  C246.914,268.408,243.325,264.819,238.898,264.819z"/>
<path d="M290.205,264.819c-4.428,0-8.017,3.589-8.017,8.017v8.551c0,4.427,3.588,8.017,8.017,8.017s8.017-3.589,8.017-8.017v-8.551  C298.221,268.408,294.633,264.819,290.205,264.819z"/>
<path d="M307.307,289.403c4.428,0,8.017-3.589,8.017-8.017v-8.551c0-4.427-3.588-8.017-8.017-8.017  c-4.428,0-8.017,3.589-8.017,8.017v8.551C299.29,285.814,302.878,289.403,307.307,289.403z"/>
<path d="M332.96,289.403c4.428,0,8.017-3.589,8.017-8.017v-8.551c0-4.427-3.588-8.017-8.017-8.017c-4.428,0-8.017,3.589-8.017,8.017  v8.551C324.944,285.814,328.532,289.403,332.96,289.403z"/>
<path d="M350.063,289.403c4.428,0,8.017-3.589,8.017-8.017v-8.551c0-4.427-3.588-8.017-8.017-8.017  c-4.428,0-8.017,3.589-8.017,8.017v8.551C342.046,285.814,345.634,289.403,350.063,289.403z"/>
<g>
</g>
<g>
</g>
<g>
</g>
<g>
</g>
<g>
</g>
<g>
</g>
<g>
</g>
<g>
</g>
<g>
</g>
<g>
</g>
<g>
</g>
<g>
</g>
<g>
</g>
<g>
</g>
<g>
</g>
</svg>
