<?xml version="1.0" encoding="iso-8859-1"?>
<!-- Generator: Adobe Illustrator 19.0.0, SVG Export Plug-In . SVG Version: 6.00 Build 0)  -->
<svg xmlns="http://www.w3.org/2000/svg" xmlns:xlink="http://www.w3.org/1999/xlink" version="1.1" id="Layer_1" x="0px" y="0px" viewBox="0 0 512 512" style="enable-background:new 0 0 512 512;" xml:space="preserve">
<path style="fill:#FDD042;" d="M419.006,503.449H94.063c-14.168,0-25.653-11.485-25.653-25.653V33.136  c0-14.168,11.485-25.653,25.653-25.653h324.944c14.168,0,25.653,11.485,25.653,25.653v444.66  C444.66,491.964,433.174,503.449,419.006,503.449z"/>
<path style="fill:#F2C127;" d="M444.66,101.545L273.935,202.427c-10.734,6.343-24.068,6.343-34.802,0L68.409,101.545V58.789  c0-14.168,11.485-25.653,25.653-25.653h324.944c14.168,0,25.653,11.485,25.653,25.653V101.545z"/>
<path style="fill:#9B9DA1;" d="M205.228,147.507c-7.084,0-12.827,5.743-12.827,12.827v95.132c0,7.084,5.743,12.827,12.827,12.827  c7.084,0,12.827-5.743,12.827-12.827v-95.132C218.054,153.249,212.311,147.507,205.228,147.507z"/>
<path style="fill:#88898E;" d="M205.228,147.507c-7.084,0-12.827,5.743-12.827,12.827v14.479l25.653,15.159v-29.638  C218.054,153.249,212.311,147.507,205.228,147.507z"/>
<path style="fill:#FDD042;" d="M444.66,75.891L273.935,176.774c-10.734,6.343-24.068,6.343-34.802,0L68.409,75.891V33.136  c0-14.168,11.485-25.653,25.653-25.653h324.944c14.168,0,25.653,11.485,25.653,25.653V75.891z"/>
<path style="fill:#9B9DA1;" d="M273.637,105.82h-17.102c-7.084,0-12.827,5.743-12.827,12.827s5.743,12.827,12.827,12.827h17.102  c11.788,0,21.378,9.59,21.378,21.378v102.614c0,7.084,5.743,12.827,12.827,12.827c7.084,0,12.827-5.743,12.827-12.827V152.852  C320.668,126.918,299.57,105.82,273.637,105.82z"/>
<path style="fill:#E5563C;" d="M333.495,400.835H179.574V272.568c0-9.446,7.656-17.102,17.102-17.102h119.716  c9.446,0,17.102,7.656,17.102,17.102V400.835z"/>
<path style="fill:#CF442B;" d="M222.33,255.466h-25.653c-9.446,0-17.102,7.658-17.102,17.102v128.267h25.653V272.568  C205.228,263.123,212.884,255.466,222.33,255.466z"/>
<circle style="fill:#606268;" cx="256.534" cy="315.324" r="25.653"/>
<path style="fill:#4C4E55;" d="M273.637,332.426c-14.168,0-25.653-11.485-25.653-25.653c0-6.528,2.442-12.483,6.457-17.01  c-13.187,1.067-23.559,12.099-23.559,25.562c0,14.168,11.485,25.653,25.653,25.653c7.64,0,14.496-3.344,19.196-8.643  C275.039,332.39,274.342,332.426,273.637,332.426z"/>
<path d="M419.006,0H94.063C75.497,0,59.858,14.57,59.858,33.136v42.756v401.904c0,18.566,15.639,34.205,34.205,34.205h324.944  c18.566,0,33.136-15.639,33.136-34.205V187.056c0-4.427-3.589-8.017-8.017-8.017c-4.427,0-8.017,3.589-8.017,8.017v290.739  c0,9.725-7.378,18.171-17.102,18.171H94.063c-9.725,0-18.171-8.446-18.171-18.171V89.941l107.968,63.799  c-0.002,0.06-0.01,0.119-0.01,0.181v96.754c-7.482,4.311-12.827,12.506-12.827,21.893v128.267c0,4.427,4.124,8.551,8.551,8.551  h153.921c4.427,0,7.482-4.124,7.482-8.551V272.568c0-9.387-4.276-17.582-12.827-21.893v-96.94l107.958-63.794v62.911  c0,4.427,3.589,8.017,8.017,8.017c4.427,0,8.017-3.589,8.017-8.017v-76.96V33.136C452.142,14.57,437.572,0,419.006,0z   M209.503,168.893v79.091h-9.62v-84.775L209.503,168.893z M312.117,247.983h-9.62v-95.132c0-16.209-12.651-28.86-28.86-28.86  h-17.102c-2.652,0-4.81-2.158-4.81-4.81c0-2.652,2.158-4.81,4.81-4.81h17.102c21.513,0,38.48,16.968,38.48,38.48V247.983z   M286.463,247.983h-60.927v-69.616l9.251,5.309c6.624,3.914,14.185,5.871,21.613,5.871c7.428,0,14.655-1.957,21.278-5.871  l8.784-5.309V247.983z M324.944,393.353H187.056V272.568c0-5.01,4.61-8.551,9.62-8.551h119.716c5.01,0,8.551,3.541,8.551,8.551  V393.353z M325.957,136.831c-6.961-22.426-27.635-38.493-52.32-38.493h-17.102c-11.493,0-20.843,9.351-20.843,20.843  s9.351,20.843,20.843,20.843h17.102c7.368,0,12.827,5.459,12.827,12.827v6.892l-16.874,10.129c-8.218,4.855-18.561,4.855-26.779,0  L75.891,71.317V33.136c0-9.725,8.446-17.102,18.171-17.102h324.944c9.725,0,17.102,7.378,17.102,17.102v38.181L325.957,136.831z"/>
<path d="M256.534,281.653c-18.566,0-33.937,15.105-33.937,33.67c0,15.804,11.491,29.091,25.386,32.699v18.608  c0,4.427,3.589,8.017,8.017,8.017c4.427,0,8.017-3.589,8.017-8.017v-18.608c14.965-3.606,25.921-16.895,25.921-32.699  C289.937,296.758,275.1,281.653,256.534,281.653z M256.534,332.96c-9.725,0-17.637-7.912-17.637-17.637  c0-9.725,7.912-17.637,17.637-17.637c9.725,0,17.637,7.912,17.637,17.637C274.171,325.048,266.259,332.96,256.534,332.96z"/>
<g>
</g>
<g>
</g>
<g>
</g>
<g>
</g>
<g>
</g>
<g>
</g>
<g>
</g>
<g>
</g>
<g>
</g>
<g>
</g>
<g>
</g>
<g>
</g>
<g>
</g>
<g>
</g>
<g>
</g>
</svg>
