<?xml version="1.0" encoding="iso-8859-1"?>
<!-- Generator: Adobe Illustrator 19.0.0, SVG Export Plug-In . SVG Version: 6.00 Build 0)  -->
<svg xmlns="http://www.w3.org/2000/svg" xmlns:xlink="http://www.w3.org/1999/xlink" version="1.1" id="Layer_1" x="0px" y="0px" viewBox="0 0 512 512" style="enable-background:new 0 0 512 512;" xml:space="preserve">
<path style="fill:#74DBC9;" d="M256,8C152.208,8,68.068,92.14,68.068,195.932h375.864C443.932,92.14,359.792,8,256,8z"/>
<path style="fill:#6AC8B7;" d="M268.813,8.444C264.578,8.159,260.307,8,256,8C152.208,8,68.068,92.14,68.068,195.932h25.627  C93.695,96.448,170.999,15.031,268.813,8.444z"/>
<path style="fill:#EBEBEC;" d="M256,8c-61.332,0-111.051,84.14-111.051,187.932h222.102C367.051,92.14,317.332,8,256,8z"/>
<path style="fill:#74DBC9;" d="M256,8c-23.589,0-42.712,84.14-42.712,187.932h85.424C298.712,92.14,279.589,8,256,8z"/>
<rect x="119.326" y="281.354" style="fill:#FDDD85;" width="273.356" height="222.102"/>
<rect x="119.326" y="281.354" style="fill:#FDD042;" width="34.169" height="222.102"/>
<polygon style="fill:#F2C127;" points="281.627,349.695 256,332.61 230.373,349.695 230.373,281.356 281.627,281.356 "/>
<rect x="187.665" y="375.32" style="fill:#EBEBEC;" width="136.678" height="34.169"/>
<path d="M449.991,201.16c1.295-1.502,2.006-3.484,1.947-5.47c-0.061-49.681-18.734-97.033-52.602-133.354  c-2.976-3.192-8.127-3.372-11.319-0.396s-3.372,8.394-0.396,11.586c29.323,31.448,46.244,71.153,48.127,114.932h-60.792  c-1.17-49.119-12.968-94.415-33.535-129.22c-7.65-12.947-16.213-24.041-25.465-32.876c15.35,5.422,29.971,12.885,43.519,22.426  c3.568,2.514,8.646,1.597,11.158-1.97c2.513-3.568,1.632-8.663-1.936-11.176C335.595,12.33,296.624,0,256,0  C148.04,0,60.196,87.761,60.062,195.69c-0.093,3.187,1.791,6.479,4.692,7.802l154.274,70.389h-99.707  c-4.423,0-8.542,3.052-8.542,7.475v222.102c0,4.423,4.12,8.542,8.542,8.542h273.356c4.423,0,7.475-4.12,7.475-8.542V281.356  c0-4.423-3.052-7.475-7.475-7.475h-99.707l154.274-70.391C448.293,203.013,449.24,202.031,449.991,201.16z M237.847,289.898h35.237  v44.833l-12.91-8.785c-2.661-1.774-6.357-1.775-9.018,0l-13.31,8.785V289.898z M278.393,65.086  c7.51,33.044,11.828,76.389,12.273,123.372h-69.331c0.445-46.983,4.762-90.328,12.273-123.372c9.1-40.042,19.249-48.81,22.393-48.81  C259.145,16.276,269.292,25.044,278.393,65.086z M168.495,204.475h175.01L256,271.786L168.495,204.475z M231.139,21.375  c-4.964,9.896-9.357,23.47-13.15,40.161c-7.763,34.158-12.22,78.871-12.669,126.922h-52.262  c1.152-45.915,12.169-88.675,31.312-121.072C197.675,44.87,213.762,29.003,231.139,21.375z M142.225,204.475l53.712,41.317  l-90.898-41.317H142.225z M369.775,204.475h37.186l-90.898,41.317L369.775,204.475z M327.63,67.385  c19.143,32.397,30.16,75.157,31.312,121.072H306.68c-0.448-48.051-4.905-92.764-12.669-126.922  c-3.794-16.691-8.186-29.998-13.15-39.894C298.237,29.27,314.325,44.87,327.63,67.385z M195.96,26.577  c-9.219,8.82-17.753,19.887-25.379,32.793c-20.567,34.806-32.366,79.968-33.535,129.087H76.251  C79.538,113.712,128.577,50.499,195.96,26.577z M384.135,495.983H126.796V289.898h95.034v59.797c0,6.265,7.488,10.15,12.717,6.663  l21.319-14.124l20.984,14.124c5.232,3.49,12.251-0.403,12.251-6.663v-59.797h95.034V495.983z"/>
<path d="M184.781,429.456c-3.128-3.128-8.199-3.128-11.325,0l-25.627,25.627c-3.128,3.128-3.128,8.199,0,11.325  c3.128,3.128,7.932,3.128,11.058,0l11.689-11.956v23.378c0,4.423,3.586,8.008,8.008,8.008s8.008-3.586,8.008-8.008v-23.378  l12.223,11.956c3.257,3.258,8.889,3.038,11.885-0.459c2.684-3.134,2.557-7.951-0.359-10.866L184.781,429.456z"/>
<path d="M301.592,455.083c-3.086,3.085-3.086,8.24,0,11.325c3.085,3.085,7.973,3.085,11.058,0l11.689-11.956v23.378  c0,4.423,3.586,8.008,8.008,8.008s8.008-3.586,8.008-8.008v-23.378l12.223,11.956c3.258,3.258,8.889,3.038,11.885-0.459  c2.684-3.134,2.557-7.951-0.359-10.866l-25.594-25.627c-3.128-3.128-8.181-3.128-11.309,0L301.592,455.083z"/>
<path d="M331.813,375.856c0-4.423-3.586-8.008-8.008-8.008H187.127c-4.423,0-8.008,3.586-8.008,8.008v34.169  c0,4.423,3.586,8.008,8.008,8.008h136.678c4.423,0,8.008-3.586,8.008-8.008V375.856z M195.135,383.864h120.661v18.153H195.135  V383.864z"/>
<path d="M323.805,340.619c4.423,0,8.008-3.586,8.008-8.008v-17.085c0-4.423-3.586-8.008-8.008-8.008  c-4.423,0-8.008,3.586-8.008,8.008v17.085C315.797,337.033,319.382,340.619,323.805,340.619z"/>
<path d="M349.432,340.619c4.423,0,8.008-3.586,8.008-8.008v-17.085c0-4.423-3.586-8.008-8.008-8.008s-8.008,3.586-8.008,8.008  v17.085C341.424,337.033,345.009,340.619,349.432,340.619z"/>
<path d="M187.127,340.619c4.423,0,8.008-3.586,8.008-8.008v-17.085c0-4.423-3.586-8.008-8.008-8.008s-8.008,3.586-8.008,8.008  v17.085C179.119,337.033,182.704,340.619,187.127,340.619z"/>
<path d="M161.5,340.619c4.423,0,8.008-3.586,8.008-8.008v-17.085c0-4.423-3.586-8.008-8.008-8.008s-8.008,3.586-8.008,8.008v17.085  C153.491,337.033,157.077,340.619,161.5,340.619z"/>
<g>
</g>
<g>
</g>
<g>
</g>
<g>
</g>
<g>
</g>
<g>
</g>
<g>
</g>
<g>
</g>
<g>
</g>
<g>
</g>
<g>
</g>
<g>
</g>
<g>
</g>
<g>
</g>
<g>
</g>
</svg>
