<?xml version="1.0" encoding="iso-8859-1"?>
<!-- Generator: Adobe Illustrator 19.0.0, SVG Export Plug-In . SVG Version: 6.00 Build 0)  -->
<svg xmlns="http://www.w3.org/2000/svg" xmlns:xlink="http://www.w3.org/1999/xlink" version="1.1" id="Layer_1" x="0px" y="0px" viewBox="0 0 511.999 511.999" style="enable-background:new 0 0 511.999 511.999;" xml:space="preserve">
<polygon style="fill:#F07B52;" points="470.089,503.456 42.978,503.456 42.978,153.225 256.534,8.007 470.089,153.225 "/>
<polygon style="fill:#E5563C;" points="273.618,19.624 256.534,8.007 42.978,153.225 42.978,503.456 77.147,503.456 77.147,153.225   "/>
<rect x="179.654" y="187.394" style="fill:#74757B;" width="153.76" height="281.894"/>
<rect x="17.351" y="469.287" style="fill:#D7D8D9;" width="478.365" height="34.169"/>
<rect x="17.351" y="486.372" style="fill:#C3C4C6;" width="478.365" height="17.084"/>
<rect x="77.147" y="221.563" style="fill:#D7D8D9;" width="68.338" height="76.88"/>
<g>
	<polygon style="fill:#9B9DA1;" points="77.147,221.563 77.147,254.664 110.248,221.563  "/>
	<polygon style="fill:#9B9DA1;" points="134.273,221.563 77.147,278.689 77.147,298.443 105.977,298.443 145.485,258.935    145.485,221.563  "/>
	<polygon style="fill:#9B9DA1;" points="145.485,298.443 145.485,277.621 124.663,298.443  "/>
</g>
<rect x="367.583" y="221.563" style="fill:#D7D8D9;" width="68.338" height="76.88"/>
<g>
	<polygon style="fill:#9B9DA1;" points="367.583,221.563 367.583,254.664 400.684,221.563  "/>
	<polygon style="fill:#9B9DA1;" points="424.709,221.563 367.583,278.689 367.583,298.443 396.413,298.443 435.921,258.935    435.921,221.563  "/>
	<polygon style="fill:#9B9DA1;" points="435.921,298.443 435.921,277.621 415.099,298.443  "/>
</g>
<rect x="205.28" y="366.78" style="fill:#FDDD85;" width="102.507" height="102.507"/>
<rect x="205.28" y="366.78" style="fill:#FDD042;" width="17.084" height="102.507"/>
<rect x="222.365" y="298.443" style="fill:#F2C127;" width="68.338" height="68.338"/>
<rect x="222.365" y="298.443" style="fill:#E1A527;" width="17.084" height="68.338"/>
<rect x="239.449" y="366.78" style="fill:#FDD042;" width="34.169" height="51.253"/>
<circle style="fill:#6AC8B7;" cx="111.316" cy="400.949" r="42.711"/>
<path style="fill:#2DB59F;" d="M128.4,426.576c-23.588,0-42.711-19.123-42.711-42.711c0-7.401,1.884-14.362,5.196-20.431  c-13.274,7.245-22.28,21.328-22.28,37.515c0,23.588,19.123,42.711,42.711,42.711c16.188,0,30.27-9.007,37.515-22.28  C142.762,424.693,135.801,426.576,128.4,426.576z"/>
<circle style="fill:#6AC8B7;" cx="401.752" cy="400.949" r="42.711"/>
<path style="fill:#2DB59F;" d="M418.836,426.576c-23.588,0-42.711-19.123-42.711-42.711c0-7.401,1.884-14.362,5.196-20.431  c-13.275,7.245-22.28,21.327-22.28,37.515c0,23.588,19.123,42.711,42.711,42.711c16.188,0,30.27-9.007,37.515-22.28  C433.198,424.693,426.237,426.576,418.836,426.576z"/>
<path d="M495.716,461.813h-18.152V153.225c0-2.651-1.045-5.132-3.238-6.622l-85.291-58.088c-3.659-2.487-8.571-1.538-11.059,2.12  c-2.487,3.657-1.771,8.638,1.886,11.125l81.686,55.704v304.35h-52.321V451.03c24.559-3.851,42.978-24.84,42.978-50.081  c0-27.966-22.62-50.72-50.586-50.72s-50.92,22.753-50.92,50.72c0,25.241,19.02,46.229,42.511,50.081v10.782h-52.321V187.394  c0-4.423-3.051-7.474-7.474-7.474h-153.76c-4.424,0-8.542,3.052-8.542,7.474v274.419h-52.321V451.03  c24.559-3.851,42.978-24.84,42.978-50.081c0-27.966-22.62-50.72-50.586-50.72s-50.92,22.753-50.92,50.72  c0,25.241,19.02,46.229,42.511,50.081v10.782H50.453V157.464L256.267,17.691l98.136,66.643c3.66,2.487,8.706,1.538,11.192-2.12  c2.487-3.657,1.572-8.638-2.085-11.125L261.02,1.385c-2.72-1.847-6.28-1.847-8.999,0L38.203,146.603  c-2.192,1.491-3.767,3.971-3.767,6.622v308.588H17.351c-4.424,0-8.542,3.052-8.542,7.474v34.169c0,4.423,4.118,8.542,8.542,8.542  h478.365c4.424,0,7.474-4.12,7.474-8.542v-34.169C503.191,464.865,500.14,461.813,495.716,461.813z M367.049,400.949  c0-19.135,15.567-34.703,34.703-34.703s34.703,15.568,34.703,34.703s-15.567,34.703-34.703,34.703S367.049,420.084,367.049,400.949z   M76.613,400.949c0-19.135,15.567-34.703,34.703-34.703s34.703,15.568,34.703,34.703s-15.567,34.703-34.703,34.703  S76.613,420.084,76.613,400.949z M187.128,195.936h137.743v265.877h-9.61V366.78c0-4.423-3.051-7.474-7.474-7.474h-9.61v-60.863  c0-4.423-3.051-7.474-7.474-7.474h-68.338c-4.424,0-8.542,3.052-8.542,7.474v60.863h-8.542c-4.424,0-8.542,3.052-8.542,7.474v95.032  h-9.61V195.936z M282.16,359.306h-8.542h-34.169h-9.61v-52.321h52.321V359.306z M246.924,375.323h18.152v35.237h-18.152V375.323z   M230.907,375.323v42.711c0,4.423,4.118,8.542,8.542,8.542h34.169c4.424,0,7.474-4.119,7.474-8.542v-42.711h18.152v86.49h-86.49  v-86.49H230.907z M487.174,495.982H24.826v-18.152h462.348V495.982z"/>
<path d="M290.703,145.75h-68.338c-4.424,0-8.008,3.586-8.008,8.008c0,4.423,3.585,8.008,8.008,8.008h68.338  c4.424,0,8.008-3.586,8.008-8.008C298.711,149.336,295.126,145.75,290.703,145.75z"/>
<path d="M290.703,111.581h-68.338c-4.424,0-8.008,3.586-8.008,8.008s3.585,8.008,8.008,8.008h68.338  c4.424,0,8.008-3.586,8.008-8.008S295.126,111.581,290.703,111.581z"/>
<path d="M290.703,77.412h-68.338c-4.424,0-8.008,3.586-8.008,8.008c0,4.423,3.585,8.008,8.008,8.008h68.338  c4.424,0,8.008-3.586,8.008-8.008C298.711,80.998,295.126,77.412,290.703,77.412z"/>
<path d="M152.959,222.096c0-4.423-3.586-8.008-8.008-8.008H76.613c-4.423,0-8.008,3.586-8.008,8.008v76.88  c0,4.423,3.586,8.008,8.008,8.008h68.338c4.423,0,8.008-3.586,8.008-8.008V222.096z M136.942,290.968H84.621v-60.863h52.321V290.968  z"/>
<path d="M443.395,222.096c0-4.423-3.586-8.008-8.008-8.008h-68.338c-4.423,0-8.008,3.586-8.008,8.008v76.88  c0,4.423,3.586,8.008,8.008,8.008h68.338c4.423,0,8.008-3.586,8.008-8.008V222.096z M375.057,230.105h52.321v60.863h-52.321V230.105  z"/>
<path d="M247.991,332.612h17.084c4.424,0,8.008-3.586,8.008-8.008c0-4.423-3.585-8.008-8.008-8.008h-17.084  c-4.424,0-8.008,3.586-8.008,8.008C239.983,329.026,243.568,332.612,247.991,332.612z"/>
<path d="M239.449,452.203h34.169c4.424,0,8.008-3.586,8.008-8.008c0-4.423-3.585-8.008-8.008-8.008h-34.169  c-4.424,0-8.008,3.586-8.008,8.008C231.441,448.617,235.025,452.203,239.449,452.203z"/>
<path d="M256,255.198c4.424,0,8.008-3.586,8.008-8.008v-17.084c0-4.423-3.585-8.008-8.008-8.008s-8.008,3.586-8.008,8.008v17.084  C247.991,251.612,251.576,255.198,256,255.198z"/>
<path d="M214.629,267.864c3.258,3.258,8.756,3.038,11.751-0.459c2.684-3.134,2.491-7.95-0.425-10.866l-12.08-12.081  c-3.128-3.128-8.198-3.129-11.325,0c-3.129,3.128-3.129,8.197-0.001,11.325L214.629,267.864z"/>
<path d="M292.775,270.209c2.049,0,4.099-0.782,5.663-2.346l12.08-12.081c3.128-3.128,3.128-8.198-0.001-11.325  c-3.126-3.129-8.197-3.128-11.325,0l-12.08,12.081C282.18,261.472,285.772,270.209,292.775,270.209z"/>
<g>
</g>
<g>
</g>
<g>
</g>
<g>
</g>
<g>
</g>
<g>
</g>
<g>
</g>
<g>
</g>
<g>
</g>
<g>
</g>
<g>
</g>
<g>
</g>
<g>
</g>
<g>
</g>
<g>
</g>
</svg>
