<?xml version="1.0" encoding="iso-8859-1"?>
<!-- Generator: Adobe Illustrator 19.0.0, SVG Export Plug-In . SVG Version: 6.00 Build 0)  -->
<svg xmlns="http://www.w3.org/2000/svg" xmlns:xlink="http://www.w3.org/1999/xlink" version="1.1" id="Layer_1" x="0px" y="0px" viewBox="0 0 512 512" style="enable-background:new 0 0 512 512;" xml:space="preserve">
<rect x="121.206" y="116.586" style="fill:#EBEBEC;" width="382.641" height="278.285"/>
<rect x="147.295" y="142.675" style="fill:#D7D8D9;" width="330.463" height="226.106"/>
<rect x="147.295" y="142.675" style="fill:#C3C4C6;" width="26.089" height="226.106"/>
<path style="fill:#6AC8B7;" d="M442.972,150.828c-2.086,0-4.173-0.796-5.766-2.388c-3.184-3.184-3.184-8.346,0-11.529l26.089-26.089  c3.185-3.184,8.346-3.184,11.53,0c3.184,3.184,3.184,8.346,0,11.529l-26.089,26.089  C447.146,150.032,445.058,150.828,442.972,150.828z"/>
<path style="fill:#F07B52;" d="M373.401,150.828c-2.086,0-4.173-0.796-5.766-2.388c-3.184-3.184-3.184-8.346,0-11.529l26.089-26.089  c3.185-3.184,8.346-3.184,11.53,0s3.184,8.346,0,11.529l-26.089,26.089C377.574,150.032,375.487,150.828,373.401,150.828z"/>
<path style="fill:#6AC8B7;" d="M303.83,150.828c-2.086,0-4.173-0.796-5.766-2.388c-3.184-3.184-3.184-8.346,0-11.529l26.089-26.089  c3.185-3.184,8.346-3.184,11.53,0c3.184,3.184,3.184,8.346,0,11.529l-26.089,26.089C308.003,150.032,305.916,150.828,303.83,150.828  z"/>
<path style="fill:#F07B52;" d="M234.259,150.828c-2.086,0-4.173-0.796-5.766-2.388c-3.184-3.184-3.184-8.346,0-11.529l26.089-26.089  c3.185-3.184,8.346-3.184,11.53,0s3.184,8.346,0,11.529l-26.089,26.089C238.432,150.032,236.345,150.828,234.259,150.828z"/>
<g>
	<path style="fill:#6AC8B7;" d="M164.688,150.828c-2.086,0-4.173-0.796-5.766-2.388c-3.184-3.184-3.184-8.346,0-11.529   l26.089-26.089c3.185-3.184,8.346-3.184,11.53,0c3.184,3.184,3.184,8.346,0,11.529l-26.089,26.089   C168.861,150.032,166.774,150.828,164.688,150.828z"/>
	<path style="fill:#6AC8B7;" d="M442.972,403.023c-2.086,0-4.173-0.796-5.766-2.388c-3.184-3.184-3.184-8.346,0-11.529   l26.089-26.089c3.185-3.184,8.346-3.184,11.53,0c3.184,3.184,3.184,8.346,0,11.529l-26.089,26.089   C447.146,402.227,445.058,403.023,442.972,403.023z"/>
</g>
<g>
	<path style="fill:#F07B52;" d="M373.401,403.023c-2.086,0-4.173-0.796-5.766-2.388c-3.184-3.184-3.184-8.346,0-11.529   l26.089-26.089c3.185-3.184,8.346-3.184,11.53,0c3.184,3.184,3.184,8.346,0,11.529l-26.089,26.089   C377.574,402.227,375.487,403.023,373.401,403.023z"/>
	<path style="fill:#F07B52;" d="M303.83,403.023c-2.086,0-4.173-0.796-5.766-2.388c-3.184-3.184-3.184-8.346,0-11.529l26.089-26.089   c3.185-3.184,8.346-3.184,11.53,0c3.184,3.184,3.184,8.346,0,11.529l-26.089,26.089   C308.003,402.227,305.916,403.023,303.83,403.023z"/>
</g>
<path style="fill:#6AC8B7;" d="M234.259,403.023c-2.086,0-4.173-0.796-5.766-2.388c-3.184-3.184-3.184-8.346,0-11.529l26.089-26.089  c3.185-3.184,8.346-3.184,11.53,0c3.184,3.184,3.184,8.346,0,11.529l-26.089,26.089  C238.432,402.227,236.345,403.023,234.259,403.023z"/>
<path style="fill:#F07B52;" d="M164.688,403.023c-2.086,0-4.173-0.796-5.766-2.388c-3.184-3.184-3.184-8.346,0-11.529l26.089-26.089  c3.185-3.184,8.346-3.184,11.53,0c3.184,3.184,3.184,8.346,0,11.529l-26.089,26.089  C168.861,402.227,166.774,403.023,164.688,403.023z"/>
<path style="fill:#6AC8B7;" d="M477.758,368.238c-2.086,0-4.173-0.796-5.766-2.388c-3.184-3.184-3.184-8.346,0-11.529l26.089-26.089  c3.185-3.184,8.346-3.184,11.53,0c3.184,3.184,3.184,8.346,0,11.529l-26.089,26.089  C481.931,367.442,479.844,368.238,477.758,368.238z"/>
<path style="fill:#F07B52;" d="M477.758,307.363c-2.086,0-4.173-0.796-5.766-2.388c-3.184-3.184-3.184-8.346,0-11.529l26.089-26.089  c3.185-3.184,8.346-3.184,11.53,0c3.184,3.184,3.184,8.346,0,11.529l-26.089,26.089  C481.931,306.567,479.844,307.363,477.758,307.363z"/>
<path style="fill:#6AC8B7;" d="M477.758,246.488c-2.086,0-4.173-0.796-5.766-2.388c-3.184-3.184-3.184-8.346,0-11.529l26.089-26.089  c3.185-3.184,8.346-3.184,11.53,0c3.184,3.184,3.184,8.346,0,11.529L483.523,244.1C481.931,245.692,479.844,246.488,477.758,246.488  z"/>
<path style="fill:#F07B52;" d="M477.758,185.613c-2.086,0-4.173-0.796-5.766-2.388c-3.184-3.184-3.184-8.346,0-11.529l26.089-26.089  c3.185-3.184,8.346-3.184,11.53,0c3.184,3.184,3.184,8.346,0,11.529l-26.089,26.089  C481.931,184.818,479.844,185.613,477.758,185.613z"/>
<g>
	<path style="fill:#6AC8B7;" d="M121.206,376.934c-2.086,0-4.173-0.796-5.766-2.388c-3.184-3.184-3.184-8.346,0-11.529   l26.089-26.089c3.185-3.184,8.346-3.184,11.53,0c3.184,3.184,3.184,8.346,0,11.529l-26.089,26.089   C125.379,376.138,123.292,376.934,121.206,376.934z"/>
	<path style="fill:#6AC8B7;" d="M121.206,316.059c-2.086,0-4.173-0.796-5.766-2.388c-3.184-3.184-3.184-8.346,0-11.529   l26.089-26.089c3.185-3.184,8.346-3.184,11.53,0s3.184,8.346,0,11.529l-26.089,26.089   C125.379,315.263,123.292,316.059,121.206,316.059z"/>
</g>
<path style="fill:#F07B52;" d="M121.206,255.184c-2.086,0-4.173-0.796-5.766-2.388c-3.184-3.184-3.184-8.346,0-11.529l26.089-26.089  c3.185-3.184,8.346-3.184,11.53,0c3.184,3.184,3.184,8.346,0,11.529l-26.089,26.089  C125.379,254.389,123.292,255.184,121.206,255.184z"/>
<path style="fill:#6AC8B7;" d="M121.206,194.31c-2.086,0-4.173-0.796-5.766-2.388c-3.184-3.184-3.184-8.346,0-11.529l26.089-26.089  c3.185-3.184,8.346-3.184,11.53,0c3.184,3.184,3.184,8.346,0,11.529l-26.089,26.089C125.379,193.514,123.292,194.31,121.206,194.31z  "/>
<rect x="373.401" y="177.46" style="fill:#F58F6C;" width="69.571" height="78.268"/>
<rect x="390.794" y="194.853" style="fill:#FDDD85;" width="34.786" height="43.482"/>
<path d="M503.847,108.976h-60.875c-4.504,0-8.153,3.65-8.153,8.153s3.649,8.153,8.153,8.153h52.178v261.979H128.815V125.282h279.372  c4.504,0,8.153-3.65,8.153-8.153s-3.649-8.153-8.153-8.153H121.206c-4.504,0-8.696,3.107-8.696,7.609V394.87  c0,4.503,4.193,8.696,8.696,8.696h382.641c4.504,0,7.609-4.194,7.609-8.696V116.586  C511.457,112.083,508.351,108.976,503.847,108.976z"/>
<path d="M485.367,143.218c0-4.503-3.65-8.153-8.153-8.153H146.752c-4.503,0-8.153,3.65-8.153,8.153v226.106  c0,4.503,3.65,8.153,8.153,8.153h330.463c4.503,0,8.153-3.65,8.153-8.153V143.218z M154.904,151.371h314.157v209.8H154.904V151.371z  "/>
<path d="M242.412,186.7c0-4.503-3.649-8.153-8.153-8.153h-43.482c-4.504,0-8.153,3.65-8.153,8.153s3.649,8.153,8.153,8.153h43.482  C238.763,194.853,242.412,191.203,242.412,186.7z"/>
<path d="M329.919,230.726H216.866c-4.504,0-8.153,3.65-8.153,8.153c0,4.503,3.649,8.153,8.153,8.153h113.053  c4.504,0,8.153-3.65,8.153-8.153C338.072,234.376,334.423,230.726,329.919,230.726z"/>
<path d="M329.919,265.511H216.866c-4.504,0-8.153,3.65-8.153,8.153c0,4.503,3.649,8.153,8.153,8.153h113.053  c4.504,0,8.153-3.65,8.153-8.153C338.072,269.162,334.423,265.511,329.919,265.511z"/>
<path d="M295.134,300.297h-78.268c-4.504,0-8.153,3.65-8.153,8.153s3.649,8.153,8.153,8.153h78.268c4.504,0,8.153-3.65,8.153-8.153  S299.637,300.297,295.134,300.297z"/>
<path d="M451.669,203.55c4.504,0,8.153-3.65,8.153-8.153c0-4.503-3.649-8.153-8.153-8.153h-1.087v-9.783  c0-4.503-3.106-7.609-7.609-7.609h-1.087v-1.087c0-4.503-3.649-8.153-8.153-8.153c-4.504,0-8.153,3.65-8.153,8.153v1.087h-9.783  v-1.087c0-4.503-3.649-8.153-8.153-8.153c-4.504,0-8.153,3.65-8.153,8.153v1.087h-9.783v-1.087c0-4.503-3.649-8.153-8.153-8.153  c-4.504,0-8.153,3.65-8.153,8.153v1.087l0,0c-4.504,0-8.696,3.107-8.696,7.609v9.783l0,0c-4.504,0-8.153,3.65-8.153,8.153  c0,4.503,3.649,8.153,8.153,8.153l0,0v9.783l0,0c-4.504,0-8.153,3.65-8.153,8.153c0,4.503,3.649,8.153,8.153,8.153l0,0v9.783l0,0  c-4.504,0-8.153,3.65-8.153,8.153c0,4.503,3.649,8.153,8.153,8.153l0,0l0,0c0,4.503,4.193,8.696,8.696,8.696l0,0l0,0  c0,4.503,3.649,8.153,8.153,8.153c4.504,0,8.153-3.65,8.153-8.153l0,0h9.783l0,0c0,4.503,3.649,8.153,8.153,8.153  c4.504,0,8.153-3.65,8.153-8.153l0,0h9.783l0,0c0,4.503,3.649,8.153,8.153,8.153c4.504,0,8.153-3.65,8.153-8.153l0,0h1.087  c4.504,0,7.609-4.194,7.609-8.696l0,0h1.087c4.504,0,8.153-3.65,8.153-8.153c0-4.503-3.649-8.153-8.153-8.153h-1.087v-9.783h1.087  c4.504,0,8.153-3.65,8.153-8.153c0-4.503-3.649-8.153-8.153-8.153h-1.087v-9.783H451.669z M381.011,248.119v-61.962h53.265v61.962  H381.011z"/>
<path d="M416.883,195.94H399.49c-4.504,0-8.153,3.65-8.153,8.153c0,4.503,3.649,8.153,8.153,8.153h17.393  c4.504,0,8.153-3.65,8.153-8.153C425.036,199.591,421.387,195.94,416.883,195.94z"/>
<path d="M416.883,222.029H399.49c-4.504,0-8.153,3.65-8.153,8.153c0,4.503,3.649,8.153,8.153,8.153h17.393  c4.504,0,8.153-3.65,8.153-8.153C425.036,225.68,421.387,222.029,416.883,222.029z"/>
<path d="M95.117,143.762H8.153c-4.504,0-8.153,3.65-8.153,8.153c0,4.503,3.649,8.153,8.153,8.153h86.964  c4.504,0,8.153-3.65,8.153-8.153C103.27,147.412,99.62,143.762,95.117,143.762z"/>
<path d="M95.117,213.333H25.546c-4.504,0-8.153,3.65-8.153,8.153c0,4.503,3.649,8.153,8.153,8.153h69.571  c4.504,0,8.153-3.65,8.153-8.153C103.27,216.983,99.62,213.333,95.117,213.333z"/>
<path d="M95.117,282.904H34.242c-4.504,0-8.153,3.65-8.153,8.153s3.649,8.153,8.153,8.153h60.875c4.504,0,8.153-3.65,8.153-8.153  S99.62,282.904,95.117,282.904z"/>
<path d="M95.117,352.475H51.635c-4.504,0-8.153,3.65-8.153,8.153s3.649,8.153,8.153,8.153h43.482c4.504,0,8.153-3.65,8.153-8.153  S99.62,352.475,95.117,352.475z"/>
<g>
</g>
<g>
</g>
<g>
</g>
<g>
</g>
<g>
</g>
<g>
</g>
<g>
</g>
<g>
</g>
<g>
</g>
<g>
</g>
<g>
</g>
<g>
</g>
<g>
</g>
<g>
</g>
<g>
</g>
</svg>
