<?xml version="1.0" encoding="iso-8859-1"?>
<!-- Generator: Adobe Illustrator 19.0.0, SVG Export Plug-In . SVG Version: 6.00 Build 0)  -->
<svg xmlns="http://www.w3.org/2000/svg" xmlns:xlink="http://www.w3.org/1999/xlink" version="1.1" id="Layer_1" x="0px" y="0px" viewBox="0 0 512 512" style="enable-background:new 0 0 512 512;" xml:space="preserve">
<path style="fill:#74757B;" d="M273.637,503.449H68.409c-18.891,0-34.205-15.314-34.205-34.205V41.687  c0-18.891,15.314-34.205,34.205-34.205h205.228c18.891,0,34.205,15.314,34.205,34.205v427.557  C307.841,488.135,292.527,503.449,273.637,503.449z"/>
<g>
	<rect x="34.205" y="75.891" style="fill:#EBEBEC;" width="273.637" height="359.148"/>
	<path style="fill:#EBEBEC;" d="M273.637,503.449H68.409c-18.891,0-34.205-15.314-34.205-34.205V41.687   c0-18.891,15.314-34.205,34.205-34.205h205.228c18.891,0,34.205,15.314,34.205,34.205v427.557   C307.841,488.135,292.527,503.449,273.637,503.449z"/>
</g>
<path style="fill:#D7D8D9;" d="M59.858,469.244V41.687c0-18.891,15.314-34.205,34.205-34.205H68.409  c-18.891,0-34.205,15.314-34.205,34.205v427.557c0,18.891,15.314,34.205,34.205,34.205h25.653  C75.172,503.449,59.858,488.135,59.858,469.244z"/>
<g>
	<path style="fill:#F58F6C;" d="M34.205,469.244c0,18.891,15.314,34.205,34.205,34.205h205.228   c18.891,0,34.205-15.314,34.205-34.205V435.04H34.205V469.244z"/>
	<path style="fill:#F58F6C;" d="M273.637,7.482H68.409c-18.891,0-34.205,15.314-34.205,34.205v34.205h273.637V41.687   C307.841,22.796,292.527,7.482,273.637,7.482z"/>
</g>
<g>
	<path style="fill:#F07B52;" d="M59.858,469.244V435.04H34.205v34.205c0,18.891,15.314,34.205,34.205,34.205h25.653   C75.172,503.449,59.858,488.135,59.858,469.244z"/>
	<path style="fill:#F07B52;" d="M94.063,7.482H68.409c-18.891,0-34.205,15.314-34.205,34.205v34.205h25.653V41.687   C59.858,22.796,75.172,7.482,94.063,7.482z"/>
</g>
<path style="fill:#AFB0B4;" d="M85.511,400.835h171.023c9.446,0,17.102-7.656,17.102-17.102V272.568  c0-9.446-7.656-17.102-17.102-17.102H85.511c-9.446,0-17.102,7.656-17.102,17.102v111.165  C68.409,393.179,76.066,400.835,85.511,400.835z"/>
<rect x="68.409" y="298.221" style="fill:#E5563C;" width="205.228" height="25.653"/>
<circle style="fill:#FDD042;" cx="171.023" cy="212.71" r="17.102"/>
<path style="fill:#74DBC9;" d="M349.62,376.375c-24.439-9.776-50.751-28.401-72.188-51.097c-17.335-18.355-38-46.326-38-75.335  V114.402l24.344-1.244c12.438-0.636,54.244-8.15,83.9-22.979l11.472-5.736l11.472,5.737c29.656,14.828,71.462,22.343,83.9,22.979  l24.344,1.243v135.541c0,29.009-20.665,56.98-38.001,75.335c-21.437,22.697-47.747,41.322-72.188,51.097l-9.527,3.812  L349.62,376.375z"/>
<path style="fill:#6AC8B7;" d="M303.087,325.277c-17.336-18.355-38.001-46.326-38.001-75.335V114.402l24.344-1.244  c12.251-0.626,52.985-7.932,82.545-22.32c-0.451-0.22-0.909-0.436-1.354-0.658l-11.472-5.737l-11.472,5.737  c-29.656,14.828-71.462,22.343-83.9,22.979l-24.344,1.243v135.541c0,29.009,20.665,56.98,38.001,75.335  c21.437,22.697,47.747,41.322,72.188,51.097l9.528,3.811l9.528-3.811c1.095-0.438,2.198-0.914,3.299-1.387  C348.483,364.902,323.563,346.957,303.087,325.277z"/>
<path style="fill:#FDD042;" d="M377.319,212.71h-34.205c-0.589,0-1.069-0.658-1.069-1.247v-25.653c0-0.589,0.48-0.89,1.069-0.89  h51.307c8.855,0,16.033-7.179,16.033-16.033c0-8.855-7.179-16.033-16.033-16.033h-18.171v-9.799c0-8.855-7.179-16.033-16.033-16.033  s-16.033,7.179-16.033,16.033v9.799h-1.069c-18.271,0-33.136,14.687-33.136,32.957v25.653c0,18.271,14.865,33.314,33.136,33.314  h34.205c0.589,0,1.069,0.301,1.069,0.89v25.653c0,0.589-0.48,1.247-1.069,1.247h-51.307c-8.855,0-16.033,7.179-16.033,16.033  s7.179,16.033,16.033,16.033h18.171v9.442c0,8.855,7.179,16.033,16.033,16.033s16.033-7.179,16.033-16.033v-9.442h1.069  c18.271,0,33.136-15.044,33.136-33.314v-25.653C410.455,227.396,395.59,212.71,377.319,212.71z"/>
<path d="M178.43,38.619c-1.292-3.062-4.407-5.083-7.741-4.941c-3.288,0.139-6.25,2.363-7.273,5.495  c-2.252,6.893,5.46,13.119,11.708,9.399C178.528,46.545,179.893,42.273,178.43,38.619z"/>
<path d="M212.635,38.619c-1.3-3.081-4.443-5.11-7.802-4.939c-3.34,0.17-6.311,2.473-7.274,5.679  c-0.958,3.186,0.184,6.709,2.835,8.718c2.824,2.14,6.843,2.139,9.667,0C212.957,45.883,213.979,41.977,212.635,38.619z"/>
<path d="M144.226,38.619c-1.328-3.147-4.574-5.185-7.999-4.924c-3.352,0.257-6.235,2.628-7.132,5.865  c-1.951,7.034,6.269,12.925,12.3,8.705C144.467,46.114,145.614,42.088,144.226,38.619z"/>
<path d="M188.125,461.762h-34.205c-4.427,0-8.017,3.589-8.017,8.017s3.589,8.017,8.017,8.017h34.205  c4.427,0,8.017-3.589,8.017-8.017S192.553,461.762,188.125,461.762z"/>
<path d="M94.063,358.079h42.756c4.427,0,8.017-3.589,8.017-8.017c0-4.427-3.589-8.017-8.017-8.017H94.063  c-4.427,0-8.017,3.589-8.017,8.017C86.046,354.49,89.635,358.079,94.063,358.079z"/>
<path d="M162.472,367.699H94.063c-4.427,0-8.017,3.589-8.017,8.017c0,4.427,3.589,8.017,8.017,8.017h68.409  c4.427,0,8.017-3.589,8.017-8.017C170.489,371.289,166.899,367.699,162.472,367.699z"/>
<path d="M171.023,187.591c-13.851,0-25.119,11.268-25.119,25.119c0,13.851,11.268,25.119,25.119,25.119  c13.851,0,25.119-11.268,25.119-25.119C196.142,198.859,184.874,187.591,171.023,187.591z M171.023,221.795  c-5.01,0-9.086-4.076-9.086-9.086c0-5.01,4.076-9.086,9.086-9.086s9.086,4.076,9.086,9.086  C180.109,217.72,176.033,221.795,171.023,221.795z"/>
<path d="M218.636,129.818c3.797,0,7.159-2.771,7.881-6.5c0.663-3.432-1.055-6.993-4.147-8.616  c-15.732-8.258-33.487-12.623-51.346-12.623s-35.614,4.364-51.346,12.623c-3.92,2.058-5.43,6.904-3.372,10.824  c2.059,3.921,6.904,5.43,10.824,3.372c13.442-7.056,28.62-10.785,43.894-10.785s30.452,3.729,43.894,10.785  C216.107,129.522,217.381,129.818,218.636,129.818z"/>
<path d="M201.927,170.989c2.058-3.92,0.548-8.767-3.372-10.824c-8.447-4.434-17.968-6.778-27.531-6.778s-19.084,2.344-27.531,6.778  c-3.92,2.058-5.43,6.904-3.372,10.824c2.058,3.92,6.904,5.431,10.824,3.372c6.247-3.278,13.002-4.941,20.08-4.941  c7.078,0,13.834,1.662,20.08,4.941C194.975,176.393,199.898,174.855,201.927,170.989z"/>
<path d="M206.725,152.557c3.797,0,7.159-2.771,7.881-6.5c0.663-3.432-1.055-6.993-4.147-8.616  c-12.099-6.35-25.736-9.708-39.435-9.708c-13.699,0-27.336,3.357-39.435,9.708c-3.92,2.058-5.43,6.903-3.372,10.824  c2.057,3.92,6.903,5.431,10.824,3.372c9.95-5.223,20.71-7.87,31.982-7.87c11.273,0,22.033,2.649,31.982,7.87  C204.195,152.261,205.469,152.557,206.725,152.557z"/>
<path d="M479.006,106.396l-24.21-1.244c-11.552-0.59-52.459-8.043-80.657-22.142L362.7,77.272c-2.256-1.129-4.897-1.129-7.153,0  l-11.731,5.737c-8.62,4.309-17.803,7.994-28.492,11.056V41.687C315.324,18.406,296.917,0,273.637,0H68.409  c-23.28,0-42.756,18.406-42.756,41.687v111.521c0,4.427,3.589,8.017,8.017,8.017s8.017-3.589,8.017-8.017V84.443H299.29v14.123  c-16.033,4.068-30.121,6.275-36.191,6.585l-24.478,1.244c-4.263,0.218-7.741,3.738-7.741,8.006v133.582H85.511  c-13.851,0-25.653,10.734-25.653,24.585v111.165c0,13.851,11.803,25.653,25.653,25.653h171.023  c13.851,0,24.585-11.803,24.585-25.653v-42.945c6.413,5.621,12.199,10.923,18.584,15.835c-0.264,0.795-0.413,1.643-0.413,2.526  v68.409H41.687V186.7c0-4.427-3.589-8.017-8.017-8.017s-8.017,3.589-8.017,8.017v282.544c0,23.281,19.475,42.756,42.756,42.756  h205.228c23.28,0,41.687-19.475,41.687-42.756V367.652c10.689,6.615,20.939,12.12,31.052,16.166h0.134l9.594,3.811  c1.898,0.76,4.091,0.76,5.989,0l9.544-3.811c25.481-10.192,52.572-29.523,74.78-53.036c18.333-19.412,39.93-49.195,39.93-80.839  V114.402C486.347,110.133,483.269,106.614,479.006,106.396z M41.687,68.409V41.687c0-14.44,12.283-25.653,26.722-25.653h205.228  c14.44,0,25.653,11.214,25.653,25.653v26.722H41.687z M273.637,495.967H68.409c-14.44,0-26.722-12.283-26.722-26.722v-25.653H299.29  v25.653C299.29,483.684,288.076,495.967,273.637,495.967z M85.511,264.017h147.203c1.728,8.551,5.08,18.171,9.39,26.722H75.891  v-18.171C75.891,267.558,80.502,264.017,85.511,264.017z M75.891,306.772h175.774c2.277,3.207,4.645,6.413,7.055,9.62H75.891  V306.772z M256.534,393.353H85.511c-5.01,0-9.62-4.61-9.62-9.62v-51.307h189.194v51.307  C265.086,388.743,261.544,393.353,256.534,393.353z M470.313,249.943c0,26.375-19.208,52.532-35.545,69.83  c-20.666,21.882-45.805,39.8-69.203,49.159l-6.483,2.62l-6.517-2.62h0.016c-23.398-9.359-48.929-27.277-69.595-49.159  c-16.338-17.298-36.072-43.455-36.072-69.83V122.02l17.004-0.855c11.262-0.576,54.691-7.556,87.209-23.815l7.954-3.943l7.921,3.943  c32.518,16.259,75.563,23.239,86.825,23.815l16.486,0.855v127.923H470.313z"/>
<path d="M394.422,192.401c13.262,0,24.05-10.788,24.05-24.05c0-13.262-10.788-24.05-24.05-24.05h-10.689v-1.247  c0-13.262-10.788-24.05-24.05-24.05s-24.05,10.788-24.05,24.05v2.19c-19.24,3.311-34.205,20.242-34.205,40.566v25.653  c0,22.692,18.995,40.796,41.687,40.796h26.722v11.758h-43.825c-13.262,0-24.05,10.788-24.05,24.05s10.788,24.05,24.05,24.05h9.62  v1.959c0,13.262,10.788,24.05,24.05,24.05s24.05-10.788,24.05-24.05v-2.19c20.309-3.311,34.205-20.242,34.205-40.566v-25.653  c0-22.692-17.926-41.508-40.618-41.508h-27.791v-11.758H394.422z M343.115,220.192h34.205c13.851,0,24.585,11.624,24.585,25.475  v25.653c0,13.851-10.734,24.763-24.585,24.763h-1.069c-4.427,0-8.551,3.945-8.551,8.373v9.62c0,4.421-3.596,8.017-8.017,8.017  s-8.017-3.596-8.017-8.017v-9.62c0-4.427-3.055-8.373-7.482-8.373h-18.171c-4.421,0-8.017-3.596-8.017-8.017  s3.596-8.017,8.017-8.017h51.307c5.01,0,8.551-3.72,8.551-8.73v-25.653c0-5.01-3.541-9.442-8.551-9.442h-34.205  c-13.851,0-25.653-10.912-25.653-24.763v-25.653c0-13.851,11.803-25.475,25.653-25.475h1.069c4.427,0,7.482-3.233,7.482-7.661v-9.62  c0-4.421,3.596-8.017,8.017-8.017s8.017,3.596,8.017,8.017v9.62c0,4.427,4.124,7.661,8.551,7.661h18.171  c4.421,0,8.017,3.596,8.017,8.017s-3.596,8.017-8.017,8.017h-51.307c-5.01,0-9.62,4.432-9.62,9.442v25.653  C333.495,216.472,338.105,220.192,343.115,220.192z"/>
<g>
</g>
<g>
</g>
<g>
</g>
<g>
</g>
<g>
</g>
<g>
</g>
<g>
</g>
<g>
</g>
<g>
</g>
<g>
</g>
<g>
</g>
<g>
</g>
<g>
</g>
<g>
</g>
<g>
</g>
</svg>
