<?xml version="1.0" encoding="iso-8859-1"?>
<!-- Generator: Adobe Illustrator 19.0.0, SVG Export Plug-In . SVG Version: 6.00 Build 0)  -->
<svg xmlns="http://www.w3.org/2000/svg" xmlns:xlink="http://www.w3.org/1999/xlink" version="1.1" id="Layer_1" x="0px" y="0px" viewBox="0 0 512 512" style="enable-background:new 0 0 512 512;" xml:space="preserve">
<circle style="fill:#606268;" cx="401.485" cy="396.883" r="68.338"/>
<circle style="fill:#D7D8D9;" cx="401.485" cy="396.883" r="25.627"/>
<circle style="fill:#606268;" cx="170.845" cy="396.883" r="68.338"/>
<circle style="fill:#D7D8D9;" cx="170.845" cy="396.883" r="25.627"/>
<circle style="fill:#FDD042;" cx="427.112" cy="166.243" r="25.627"/>
<rect x="392.943" y="140.616" style="fill:#74DBC9;" width="34.169" height="51.253"/>
<path style="fill:#6AC8B7;" d="M392.943,140.614h-25.627v213.556h-85.422v-68.338H145.218c-37.742,0-68.338,30.596-68.338,68.338  v34.169h350.232V285.832L392.943,140.614z"/>
<g>
	<rect x="367.316" y="140.616" style="fill:#2DB59F;" width="17.084" height="145.218"/>
	<path style="fill:#2DB59F;" d="M170.845,285.832h-25.627c-37.742,0-68.338,30.596-68.338,68.338v34.169h25.627v-34.169   C102.507,316.427,133.103,285.832,170.845,285.832z"/>
</g>
<path style="fill:#606268;" d="M281.894,285.832H179.387v-17.084c0-18.871,15.298-34.169,34.169-34.169h51.253  c9.436,0,17.084,7.648,17.084,17.084V285.832z"/>
<path style="fill:#4C4E55;" d="M239.182,234.578h-25.627c-18.871,0-34.169,15.298-34.169,34.169v17.084h25.627v-17.084  C205.014,249.875,220.312,234.578,239.182,234.578z"/>
<path style="fill:#6AC8B7;" d="M401.485,285.832c-56.613,0-102.507,45.894-102.507,102.507h205.014  C503.992,331.725,458.097,285.832,401.485,285.832z"/>
<path style="fill:#2DB59F;" d="M414.298,286.627c-4.197-0.523-8.474-0.796-12.813-0.796c-56.613,0-102.507,45.894-102.507,102.507  h25.627C324.605,336.064,363.734,292.932,414.298,286.627z"/>
<circle style="fill:#AFF0E8;" cx="427.112" cy="328.545" r="17.084"/>
<rect x="8.542" y="97.905" style="fill:#F2C127;" width="153.76" height="34.169"/>
<rect x="8.542" y="97.905" style="fill:#E1A527;" width="25.627" height="34.169"/>
<rect x="25.627" y="132.074" style="fill:#FDDD85;" width="119.591" height="102.507"/>
<rect x="25.627" y="132.074" style="fill:#FDD042;" width="25.627" height="102.507"/>
<path d="M222.098,303.984h-42.711c-4.424,0-8.008,3.586-8.008,8.008s3.585,8.008,8.008,8.008h42.711  c4.424,0,8.008-3.586,8.008-8.008S226.522,303.984,222.098,303.984z"/>
<path d="M222.098,329.611h-42.711c-4.424,0-8.008,3.586-8.008,8.008c0,4.423,3.585,8.008,8.008,8.008h42.711  c4.424,0,8.008-3.586,8.008-8.008C230.106,333.196,226.522,329.611,222.098,329.611z"/>
<path d="M222.098,355.237h-42.711c-4.424,0-8.008,3.586-8.008,8.008s3.585,8.008,8.008,8.008h42.711  c4.424,0,8.008-3.586,8.008-8.008S226.522,355.237,222.098,355.237z"/>
<path d="M434.651,283.177l-19.537-82.768h11.998c18.546,0,33.635-15.089,33.635-33.635s-15.089-33.635-33.635-33.635H324.605  c-4.424,0-8.008,3.586-8.008,8.008c0,4.423,3.585,8.008,8.008,8.008h34.169v34.169c0,4.423,3.585,8.008,8.008,8.008  c4.424,0,8.008-3.586,8.008-8.008v-34.169h11.81l30.667,130.066c-5.156-0.74-10.691-1.265-16.049-1.265  c-9.011,0-17.885,0.959-26.428,3.003v-63.822c0-4.423-3.585-8.008-8.008-8.008c-4.424,0-8.008,3.586-8.008,8.008v69.058  c-26.694,11.219-48.213,32.738-59.433,60.5h-9.973v-60.863v-34.169c0-13.836-10.723-24.559-24.559-24.559h-51.253  c-23.256,0-42.711,18.387-42.711,41.643v9.61h-2.77l-15.382-45.079v-92.665h9.61c4.424,0,7.474-4.119,7.474-8.542V97.901  c0-4.423-3.051-7.474-7.474-7.474H92.897V83.84c3.203,0.416,11.454,1.733,20.802,2.459c7.261,0.565,14.926,0.974,22.135-0.316  c3.624-0.648,7.319-1.85,9.974-4.507c4.74-4.739,7.384-11.041,7.384-17.743s-2.594-13.004-7.332-17.743  c-4.739-4.739-11.032-7.35-17.735-7.35c-6.701,0-13.266,2.61-18.005,7.35c-4.267,4.266-11.884,12.601-17.223,18.368v-0.625  c0-4.423-3.585-8.008-8.008-8.008s-8.008,3.586-8.008,8.008v0.625c-4.271-5.767-12.427-14.102-16.694-18.368  c-4.739-4.739-10.907-7.35-17.609-7.35c-6.702,0-12.937,2.611-17.676,7.35c-4.74,4.739-7.317,11.041-7.317,17.743  s2.627,13.004,7.366,17.743c2.657,2.657,6.291,3.859,9.915,4.508c7.209,1.29,14.479,0.881,21.74,0.316  c9.351-0.727,18.139-2.044,20.275-2.459v6.587H8.542C4.118,90.428,0,93.48,0,97.903v34.169c0,4.423,4.118,8.542,8.542,8.542h8.542  v86.49H8.542c-4.424,0-8.008,3.586-8.008,8.008c0,4.423,3.585,8.008,8.008,8.008h130.904l11.746,35.237h-5.974  c-42.097,0-76.88,33.715-76.88,75.812v34.169c0,4.423,4.118,8.542,8.542,8.542h17.627c-0.001,0-0.009,0.09-0.009,0.267  c0,42.097,34.249,76.213,76.346,76.213s76.346-34.048,76.346-76.147c0-0.177-0.007-0.334-0.009-0.334h77.964  c-0.001,0-0.009,0.09-0.009,0.267c0,42.097,34.249,76.213,76.346,76.213s76.346-34.048,76.346-76.147  c0-0.177-0.007-0.334-0.009-0.334h26.17c4.424,0,8.008-3.719,8.008-8.142C512,339.351,479.435,297.296,434.651,283.177z   M444.196,166.24c0,6.83-3.203,12.75-9.61,15.673v-31.347C440.993,153.489,444.196,159.41,444.196,166.24z M418.569,184.393h-7.225  l-8.291-35.237h15.516V184.393z M121.715,57.316L121.715,57.316c3.453-3.453,9.196-3.507,12.712-0.12  c3.48,3.353,3.69,9.031,0.443,12.619c-3.056,1.303-13.15,1.245-24.87,0.068C114.24,65.195,118.85,60.181,121.715,57.316z   M35.973,69.815c-3.247-3.588-3.036-9.266,0.444-12.619c3.515-3.387,9.258-3.331,12.71,0.12h0.001  c2.866,2.865,7.477,7.88,11.717,12.57C49.131,71.063,39.035,71.12,35.973,69.815z M153.76,106.445v18.152H92.897v-18.152H153.76z   M16.017,106.445H76.88v18.152H16.017V106.445z M33.101,140.614H76.88v86.49H33.101V140.614z M92.897,227.104v-86.49h43.779v86.49  H92.897z M186.861,268.747c0-14.425,12.269-25.627,26.694-25.627h51.253c5.005,0,8.542,3.538,8.542,8.542v26.694h-86.49V268.747z   M84.355,354.169c0-33.266,27.598-59.796,60.863-59.796h128.133v59.796c0,4.423,4.118,8.542,8.542,8.542h12.212  c-1.433,5.339-2.397,11.746-2.845,18.152H84.355V354.169z M188.463,397.148c0,9.715-7.904,17.485-17.618,17.485  s-17.618-7.703-17.618-17.419c0-0.178,0.017-0.334,0.022-0.334h35.193C188.447,396.881,188.463,396.969,188.463,397.148z   M231.174,397.148c0,33.266-27.064,60.196-60.33,60.196s-60.33-26.864-60.33-60.13c0-0.178,0.015-0.334,0.016-0.334h26.7  c-0.003,0-0.022,0.089-0.022,0.267c0,18.546,15.089,33.502,33.635,33.502s33.635-14.888,33.635-33.435  c0-0.178-0.019-0.334-0.022-0.334h26.7C231.159,396.881,231.174,396.969,231.174,397.148z M461.814,397.148  c0,33.266-27.064,60.196-60.329,60.196s-60.33-26.864-60.33-60.13c0-0.178,0.015-0.334,0.016-0.334h26.7  c-0.003,0-0.022,0.089-0.022,0.267c0,18.546,15.089,33.502,33.635,33.502c18.546,0,33.635-14.888,33.635-33.435  c0-0.178-0.019-0.334-0.022-0.334h26.7C461.799,396.881,461.814,396.969,461.814,397.148z M419.082,396.881  c0.005,0,0.021,0.089,0.021,0.267c0,9.715-7.904,17.485-17.618,17.485c-9.715,0-17.618-7.703-17.618-17.419  c0-0.178,0.017-0.334,0.022-0.334h35.193V396.881z M307.322,380.864c4.078-49.118,44.753-86.49,94.163-86.49  s90.084,37.372,94.163,86.49H307.322z"/>
<g>
</g>
<g>
</g>
<g>
</g>
<g>
</g>
<g>
</g>
<g>
</g>
<g>
</g>
<g>
</g>
<g>
</g>
<g>
</g>
<g>
</g>
<g>
</g>
<g>
</g>
<g>
</g>
<g>
</g>
</svg>
