<?xml version="1.0" encoding="iso-8859-1"?>
<!-- Generator: Adobe Illustrator 19.0.0, SVG Export Plug-In . SVG Version: 6.00 Build 0)  -->
<svg xmlns="http://www.w3.org/2000/svg" xmlns:xlink="http://www.w3.org/1999/xlink" version="1.1" id="Layer_1" x="0px" y="0px" viewBox="0 0 511.999 511.999" style="enable-background:new 0 0 511.999 511.999;" xml:space="preserve">
<polygon style="fill:#6AC8B7;" points="123.762,126.715 168.84,103.267 292.079,230.079 201.923,276.975 "/>
<polygon style="fill:#2DB59F;" points="223.094,264.272 145.626,115.342 123.762,126.714 201.923,276.974 292.079,230.079   290.987,228.956 "/>
<path style="fill:#74DBC9;" d="M502.315,187.541c-21.583-41.493-72.717-57.633-114.21-36.05L79.472,328.92l-41.48-43.041  L7.941,301.511L47.76,378.06c8.339,16.032,27.796,22.695,44.214,15.141l137.748-62.786l73.811,141.899l45.079-23.449  l-30.321-159.209l176.421-80.087C503.09,205.765,506.563,195.707,502.315,187.541L502.315,187.541z"/>
<path style="fill:#6AC8B7;" d="M322.585,458.551l-73.811-141.898l-137.748,62.786c-16.416,7.555-35.874,0.892-44.214-15.141  L28.571,290.78l-20.63,10.731L47.76,378.06c8.339,16.032,27.796,22.696,44.214,15.141l137.748-62.786l73.811,141.898l45.077-23.448  l-0.667-3.503L322.585,458.551z"/>
<g>
	<path style="fill:#D7D8D9;" d="M453.463,146.132l-46.121,23.991l15.632,30.052l64.172-33.38   C477.601,157.222,466.004,150.225,453.463,146.132z"/>
	<path style="fill:#D7D8D9;" d="M211.963,467.418h-8.894c-1.962-9.664-10.504-16.937-20.746-16.937   c-4.913,0-9.422,1.688-13.014,4.496c-1.908-12.144-12.415-21.433-25.095-21.433c-12.391,0-22.703,8.872-24.948,20.608   c-3.838-2.329-8.344-3.671-13.161-3.671c-14.031,0-25.406,11.374-25.406,25.406c0,14.031,11.374,25.406,25.406,25.406h105.858   c9.355,0,16.937-7.583,16.937-16.937S221.317,467.418,211.963,467.418z"/>
</g>
<path style="fill:#C3C4C6;" d="M216.198,484.355H110.34c-13.125,0-23.925-9.955-25.264-22.726  c-2.762,4.065-4.376,8.973-4.376,14.257c0,14.031,11.374,25.406,25.406,25.406h105.858c9.355,0,16.937-7.583,16.937-16.937  c0-1.722-0.261-3.383-0.739-4.95C225.097,482.464,220.868,484.355,216.198,484.355z"/>
<path style="fill:#D7D8D9;" d="M415.211,43.986h-8.894c-1.962-9.664-10.504-16.937-20.746-16.937c-4.913,0-9.422,1.688-13.014,4.496  c-1.908-12.144-12.415-21.433-25.095-21.433c-12.391,0-22.703,8.872-24.948,20.608c-3.838-2.329-8.344-3.671-13.161-3.671  c-14.031,0-25.406,11.374-25.406,25.406s11.374,25.406,25.406,25.406h105.858c9.355,0,16.937-7.583,16.937-16.937  S424.564,43.986,415.211,43.986z"/>
<path style="fill:#C3C4C6;" d="M419.445,60.923H313.587c-13.125,0-23.925-9.955-25.264-22.726  c-2.762,4.065-4.376,8.973-4.376,14.257c0,14.031,11.374,25.406,25.406,25.406h105.858c9.355,0,16.937-7.583,16.937-16.937  c0-1.722-0.261-3.383-0.739-4.95C428.344,59.032,424.115,60.923,419.445,60.923z"/>
<path d="M509.358,183.877c-10.359-19.916-27.208-35.065-47.863-43.269c-2.114-0.844-4.259-1.631-6.43-2.317  c-23.595-7.446-48.677-5.26-70.625,6.157c-0.098,0.052-0.197,0.105-0.293,0.161l-105.256,60.511L174.534,97.733  c-2.443-2.514-6.246-3.126-9.357-1.511l-45.079,23.448c-3.832,1.993-5.378,6.868-3.38,10.708l67.26,129.305l-103.09,59.265  l-37.179-38.579c-2.442-2.534-6.262-3.159-9.38-1.534L4.277,294.467c-3.89,2.024-5.403,6.817-3.38,10.708l39.817,76.549  c7.432,14.289,21.963,22.542,37.092,22.541c5.855,0,11.803-1.237,17.459-3.841l130.889-59.66l70.333,135.212  c1.995,3.835,6.865,5.379,10.708,3.38l45.078-23.448c3.11-1.618,4.791-5.084,4.136-8.529l-29.153-153.076l77.347-35.112  c3.993-1.812,5.76-6.519,3.947-10.511c-1.812-3.994-6.52-5.762-10.511-3.947l-83.033,37.693c-3.337,1.515-5.203,5.115-4.518,8.714  l29.216,153.406l-32.794,17.058L236.763,326.75c-1.949-3.748-6.492-5.312-10.337-3.561L88.651,385.987  c-12.587,5.793-27.456,0.701-33.85-11.591L18.647,304.89l17.745-9.231l37.363,38.769c2.527,2.623,6.516,3.187,9.673,1.373  l308.485-177.344c11.852-6.133,24.582-8.857,37.069-8.544l-25.305,13.163c-3.89,2.024-5.403,6.817-3.38,10.708l15.632,30.052  c1.995,3.835,6.865,5.379,10.708,3.38l58.774-30.572c3.756,4.376,7.087,9.228,9.86,14.559c2.121,4.078,0.331,9.238-3.845,11.134  l-66.344,30.118c-3.993,1.812-5.76,6.519-3.947,10.511c1.812,3.993,6.517,5.759,10.511,3.947l66.344-30.118  C510.322,211.202,515.618,195.91,509.358,183.877z M134.469,130.094l32.794-17.058l97.424,100.249l-66.931,38.477L134.469,130.094z   M426.354,189.468l-8.305-15.965l36.004-18.728c4.51,1.684,8.869,3.787,13.006,6.294c2.079,1.266,4.1,2.623,6.053,4.077  L426.354,189.468z"/>
<path d="M386.386,191.165l-15.025,7.817c-3.538,1.841-5.185,6.178-3.745,9.9c1.683,4.351,6.924,6.345,11.072,4.187l15.025-7.817  c3.89-2.024,5.403-6.817,3.38-10.708C395.071,190.655,390.276,189.141,386.386,191.165z"/>
<path d="M341.309,214.613l-15.025,7.817c-3.538,1.841-5.185,6.178-3.745,9.9c1.683,4.351,6.924,6.345,11.072,4.187l15.025-7.817  c3.89-2.024,5.403-6.817,3.38-10.708C349.994,214.102,345.198,212.588,341.309,214.613z"/>
<path d="M296.23,238.061l-15.025,7.815c-3.538,1.841-5.185,6.178-3.745,9.9c1.683,4.351,6.924,6.345,11.072,4.187l15.025-7.815  c3.89-2.024,5.403-6.817,3.38-10.708C304.915,237.552,300.12,236.038,296.23,238.061z"/>
<path d="M251.153,261.509l-15.025,7.815c-3.538,1.841-5.185,6.178-3.745,9.9c1.683,4.351,6.924,6.345,11.072,4.187l15.025-7.815  c3.89-2.024,5.403-6.817,3.38-10.708C259.837,260.999,255.042,259.485,251.153,261.509z"/>
<path d="M206.074,284.957l-15.025,7.815c-3.538,1.841-5.185,6.178-3.745,9.9c1.683,4.351,6.924,6.345,11.072,4.187l15.025-7.815  c3.89-2.024,5.403-6.817,3.38-10.708C214.758,284.448,209.965,282.934,206.074,284.957z"/>
<path d="M160.997,308.406l-15.025,7.817c-3.538,1.841-5.185,6.178-3.745,9.9c1.683,4.351,6.924,6.345,11.072,4.187l15.025-7.817  c3.89-2.024,5.403-6.817,3.38-10.708C169.681,307.895,164.886,306.382,160.997,308.406z"/>
<path d="M115.918,331.853l-15.027,7.817c-3.538,1.841-5.185,6.178-3.745,9.9c1.683,4.351,6.924,6.345,11.072,4.187l15.027-7.817  c3.89-2.024,5.403-6.817,3.38-10.708C124.602,331.343,119.809,329.829,115.918,331.853z"/>
<path d="M211.963,460.008h-3.196c-4.672-10.586-14.934-17.202-26.444-17.202c-2.88,0-5.693,0.283-8.381,1.091  c-5.537-10.937-16.817-18.228-29.728-18.228c-12.706,0-24.018,7.164-29.624,17.998c-2.754-0.723-5.605-1.11-8.485-1.11  c-18.386,0-33.345,15.215-33.345,33.601c0,18.387,14.959,33.601,33.345,33.601h105.858c13.717,0,24.877-11.16,24.877-24.877  C236.84,471.166,225.68,460.008,211.963,460.008z M211.963,493.883H106.105c-9.631,0-17.467-8.1-17.467-17.731  s7.836-17.599,17.467-17.599c3.2,0,6.327,0.805,9.042,2.453c4.658,2.827,10.896,0.007,11.916-5.33  c1.569-8.205,8.781-14.176,17.149-14.176c8.656,0,15.912,6.184,17.252,14.717c0.922,5.866,8.04,8.685,12.733,5.02  c2.353-1.84,5.163-2.814,8.125-2.814c6.269,0,11.722,4.713,12.967,10.841c0.752,3.701,4.005,6.624,7.781,6.624h8.893  c4.962,0,8.998,4.036,8.998,8.998S216.925,493.883,211.963,493.883z"/>
<path d="M309.353,86.329h105.858c13.717,0,24.877-11.16,24.877-24.877s-11.16-24.877-24.877-24.877h-3.196  c-4.672-10.586-14.934-17.202-26.444-17.202c-2.88,0-5.693,0.283-8.381,1.091c-5.539-10.936-16.818-18.227-29.728-18.227  c-12.706,0-24.018,7.164-29.624,17.998c-2.754-0.723-5.605-1.11-8.485-1.11c-18.386,0-33.345,15.215-33.345,33.601  S290.966,86.329,309.353,86.329z M309.353,34.988c3.2,0,6.327,0.871,9.042,2.519c4.659,2.826,10.896,0.041,11.916-5.296  c1.569-8.205,8.781-14.16,17.149-14.16c8.656,0,15.912,6.193,17.252,14.726c0.922,5.865,8.041,8.69,12.733,5.024  c2.353-1.84,5.163-2.812,8.125-2.812c6.269,0,11.722,4.714,12.967,10.842c0.752,3.701,4.005,6.625,7.781,6.625h8.893  c4.962,0,8.998,4.036,8.998,8.998s-4.036,8.998-8.998,8.998H309.351c-9.631,0-17.467-8.1-17.467-17.731  S299.722,34.988,309.353,34.988z"/>
<g>
</g>
<g>
</g>
<g>
</g>
<g>
</g>
<g>
</g>
<g>
</g>
<g>
</g>
<g>
</g>
<g>
</g>
<g>
</g>
<g>
</g>
<g>
</g>
<g>
</g>
<g>
</g>
<g>
</g>
</svg>
