<?xml version="1.0" encoding="iso-8859-1"?>
<!-- Generator: Adobe Illustrator 19.0.0, SVG Export Plug-In . SVG Version: 6.00 Build 0)  -->
<svg xmlns="http://www.w3.org/2000/svg" xmlns:xlink="http://www.w3.org/1999/xlink" version="1.1" id="Layer_1" x="0px" y="0px" viewBox="0 0 512.003 512.003" style="enable-background:new 0 0 512.003 512.003;" xml:space="preserve">
<rect x="170.491" y="97.538" style="fill:#FDD042;" width="171.023" height="119.716"/>
<rect x="170.491" y="97.538" style="fill:#F2C127;" width="17.102" height="119.716"/>
<g>
	<rect x="273.104" y="123.192" style="fill:#9B9DA1;" width="42.756" height="25.653"/>
	<rect x="196.144" y="123.192" style="fill:#9B9DA1;" width="42.756" height="25.653"/>
</g>
<rect x="230.349" y="20.578" style="fill:#EBEBEC;" width="51.307" height="76.96"/>
<polygon style="fill:#AFB0B4;" points="315.86,396.828 196.144,396.828 136.286,225.805 256.002,183.05 375.718,225.805 "/>
<polygon style="fill:#88898E;" points="196.144,396.828 256.002,396.828 256.002,183.05 136.286,225.805 "/>
<polygon style="fill:#74757B;" points="136.286,225.805 196.144,396.828 220.024,396.828 158.245,217.963 "/>
<g>
	<circle style="fill:#606268;" cx="315.86" cy="260.01" r="17.102"/>
	<circle style="fill:#606268;" cx="196.144" cy="260.01" r="17.102"/>
</g>
<polygon style="fill:#EBEBEC;" points="256.002,319.868 256.002,345.521 324.262,372.825 332.997,347.867 "/>
<polygon style="fill:#D7D8D9;" points="187.743,372.825 256.002,345.521 256.002,319.868 179.008,347.867 "/>
<polygon style="fill:#C3C4C6;" points="200.423,340.079 179.008,347.867 187.743,372.825 208.821,364.394 "/>
<path d="M503.986,461.496c-15.379,0-23.505,7.004-30.036,12.633c-5.89,5.076-10.145,8.745-19.567,8.745  c-9.422,0-13.677-3.668-19.566-8.745c-6.53-5.629-14.657-12.633-30.036-12.633c-15.377,0-23.503,7.005-30.032,12.633  c-5.889,5.077-10.143,8.745-19.564,8.745s-13.674-3.667-19.564-8.745c-6.529-5.629-14.655-12.633-30.033-12.633  c-15.377,0-23.503,7.005-30.032,12.634c-5.889,5.076-10.143,8.744-19.563,8.744c-9.42,0-13.674-3.667-19.563-8.745  c-6.529-5.629-14.653-12.633-30.032-12.633s-23.503,7.005-30.033,12.633c-5.889,5.077-10.144,8.745-19.564,8.745  c-9.42,0-13.674-3.667-19.562-8.744c-6.529-5.629-14.655-12.634-30.033-12.634s-23.503,7.005-30.033,12.633  c-5.889,5.077-10.143,8.745-19.564,8.745c-9.42,0-13.674-3.667-19.563-8.745c-6.529-5.629-14.655-12.633-30.032-12.633  c-4.427,0-8.017,3.589-8.017,8.017c0,4.427,3.589,8.017,8.017,8.017c9.42,0,13.674,3.667,19.563,8.745  c6.529,5.629,14.655,12.633,30.032,12.633s23.503-7.005,30.033-12.633c5.889-5.077,10.143-8.745,19.564-8.745  c9.42,0,13.674,3.667,19.563,8.745c6.529,5.629,14.655,12.633,30.032,12.633c15.378,0,23.504-7.005,30.033-12.633  c5.889-5.077,10.143-8.745,19.564-8.745c9.42,0,13.674,3.667,19.563,8.745c6.529,5.629,14.653,12.633,30.032,12.633  c15.377,0,23.503-7.005,30.032-12.633c5.889-5.077,10.143-8.745,19.563-8.745c9.42,0,13.675,3.667,19.564,8.745  c6.529,5.629,14.655,12.633,30.033,12.633s23.503-7.005,30.033-12.633c5.889-5.077,10.143-8.745,19.563-8.745  c9.422,0,13.678,3.668,19.567,8.745c6.53,5.629,14.657,12.633,30.035,12.633c15.379,0,23.505-7.004,30.035-12.633  c5.89-5.076,10.145-8.745,19.567-8.745c4.369,0,8.017-3.648,8.017-8.017C512.002,465.145,508.354,461.496,503.986,461.496z"/>
<path d="M8.019,428.361c9.42,0,13.674,3.667,19.563,8.745c6.529,5.629,14.655,12.633,30.032,12.633s23.503-7.006,30.033-12.633  c5.889-5.077,10.143-8.745,19.564-8.745c9.42,0,13.674,3.667,19.563,8.745c6.529,5.629,14.655,12.633,30.032,12.633  c15.378,0,23.504-7.006,30.033-12.633c5.889-5.077,10.143-8.745,19.564-8.745c9.42,0,13.674,3.667,19.563,8.745  c6.529,5.629,14.653,12.633,30.032,12.633c15.377,0,23.503-7.006,30.032-12.633c5.889-5.077,10.143-8.745,19.563-8.745  c9.42,0,13.675,3.667,19.564,8.745c6.529,5.629,14.655,12.633,30.033,12.633s23.503-7.006,30.033-12.633  c5.889-5.077,10.143-8.745,19.563-8.745c9.422,0,13.678,3.668,19.567,8.745c6.53,5.629,14.657,12.633,30.035,12.633  c15.379,0,23.505-7.004,30.035-12.633c5.89-5.076,10.145-8.745,19.567-8.745c4.369,0,8.017-3.648,8.017-8.017  c0-4.369-3.648-8.017-8.017-8.017c-15.379,0-23.505,7.004-30.036,12.633c-5.89,5.076-10.145,8.745-19.567,8.745  s-13.677-3.668-19.566-8.745c-6.53-5.629-14.657-12.633-30.036-12.633c-15.377,0-23.503,7.006-30.032,12.633  c-5.889,5.077-10.143,8.745-19.564,8.745c-9.421,0-13.674-3.667-19.564-8.745c-6.529-5.629-14.655-12.633-30.033-12.633  c-15.377,0-23.503,7.006-30.032,12.634c-5.889,5.076-10.143,8.744-19.563,8.744c-9.42,0-13.674-3.667-19.563-8.745  c-6.529-5.629-14.653-12.633-30.032-12.633s-23.503,7.006-30.033,12.633c-5.889,5.077-10.144,8.745-19.564,8.745  c-9.42,0-13.674-3.667-19.562-8.744c-6.529-5.629-14.655-12.634-30.033-12.634s-23.503,7.006-30.033,12.633  c-5.889,5.077-10.143,8.745-19.564,8.745c-9.42,0-13.674-3.667-19.563-8.745c-6.529-5.629-14.655-12.633-30.032-12.633  c-4.427,0-8.017,3.589-8.017,8.017C0.001,424.771,3.592,428.361,8.019,428.361z"/>
<path d="M323.342,123.726c0-4.427-3.589-8.017-8.017-8.017H272.57c-4.427,0-8.017,3.589-8.017,8.017v25.653  c0,4.427,3.589,8.017,8.017,8.017h42.756c4.427,0,8.017-3.589,8.017-8.017V123.726z M280.587,131.743h26.722v9.62h-26.722V131.743z"/>
<path d="M246.382,123.726c0-4.427-3.589-8.017-8.017-8.017H195.61c-4.427,0-8.017,3.589-8.017,8.017v25.653  c0,4.427,3.589,8.017,8.017,8.017h42.756c4.427,0,8.017-3.589,8.017-8.017V123.726z M230.349,141.363h-26.722v-9.62h26.722V141.363z  "/>
<path d="M188.577,399.744c1.126,3.215,4.16,5.635,7.567,5.635H315.86c3.407,0,6.441-2.42,7.567-5.635l59.858-171.157  c1.456-4.16-0.987-8.782-5.138-10.265l-29.151-10.382V97.538c0-4.427-3.055-7.482-7.482-7.482h-52.376V20.578  c0-4.427-3.055-7.482-7.482-7.482h-51.307c-4.427,0-8.551,3.055-8.551,7.482v69.478h-51.307c-4.427,0-8.551,3.055-8.551,7.482  V207.94l-28.616,10.316c-4.151,1.483-6.192,6.171-4.737,10.332L188.577,399.744z M256.002,328.398l66.811,24.295l-3.352,9.577  l-60.482-24.192c-1.911-0.765-4.044-0.765-5.955,0l-60.482,24.192l-3.352-9.578L256.002,328.398z M201.832,389.346l-3.988-11.661  l58.157-23.397l58.157,23.463l-3.988,11.593H201.832V389.346z M237.831,54.782h35.273v9.62H238.9c-0.181,0,0-0.519-1.069-0.508  V54.782z M273.104,29.129v9.62h-35.273v-9.62H273.104z M237.831,79.875c1.069,0.012,0.888,0.561,1.069,0.561h34.205v9.62h-35.273  V79.875z M177.973,106.089h154.99v96.125L258.431,175.5c-1.732-0.612-3.795-0.612-5.526,0l-74.932,26.714V106.089z M247.451,194.425  v39.932c0,4.427,3.589,8.017,8.017,8.017s8.017-3.589,8.017-8.017v-39.932l101.768,36.25L327.71,337.558l-64.226-23.305v-45.692  c0-4.427-3.589-8.017-8.017-8.017s-8.017,3.589-8.017,8.017v45.692l-63.825,23.306l-37.543-106.883L247.451,194.425z"/>
<path d="M315.86,285.129c13.851,0,25.119-11.268,25.119-25.119c0-13.851-11.268-25.119-25.119-25.119  c-13.851,0-25.119,11.268-25.119,25.119C290.741,273.861,302.01,285.129,315.86,285.129z M315.86,250.924  c5.01,0,9.086,4.076,9.086,9.086c0,5.01-4.076,9.086-9.086,9.086s-9.086-4.076-9.086-9.086  C306.775,255,310.85,250.924,315.86,250.924z"/>
<path d="M196.144,285.129c13.851,0,25.119-11.268,25.119-25.119c0-13.851-11.268-25.119-25.119-25.119  c-13.851,0-25.119,11.268-25.119,25.119C171.025,273.861,182.293,285.129,196.144,285.129z M196.144,250.924  c5.01,0,9.086,4.076,9.086,9.086c0,5.01-4.076,9.086-9.086,9.086s-9.086-4.076-9.086-9.086  C187.059,255,191.134,250.924,196.144,250.924z"/>
<g>
</g>
<g>
</g>
<g>
</g>
<g>
</g>
<g>
</g>
<g>
</g>
<g>
</g>
<g>
</g>
<g>
</g>
<g>
</g>
<g>
</g>
<g>
</g>
<g>
</g>
<g>
</g>
<g>
</g>
</svg>
