<?xml version="1.0" encoding="iso-8859-1"?>
<!-- Generator: Adobe Illustrator 19.0.0, SVG Export Plug-In . SVG Version: 6.00 Build 0)  -->
<svg xmlns="http://www.w3.org/2000/svg" xmlns:xlink="http://www.w3.org/1999/xlink" version="1.1" id="Layer_1" x="0px" y="0px" viewBox="0 0 512 512" style="enable-background:new 0 0 512 512;" xml:space="preserve">
<path style="fill:#74DBC9;" d="M8.017,319.866c0,37.781,30.628,68.409,68.409,68.409V251.457  C38.645,251.457,8.017,282.085,8.017,319.866z"/>
<path style="fill:#6AC8B7;" d="M16.568,302.764c0-7.597,1.257-14.896,3.542-21.723c-7.62,11.031-12.093,24.403-12.093,38.825  c0,37.781,30.628,68.409,68.409,68.409v-17.654C42.683,366.411,16.568,337.647,16.568,302.764z"/>
<path style="fill:#74DBC9;" d="M503.983,319.866c0-37.781-30.628-68.409-68.409-68.409v136.818  C473.355,388.276,503.983,357.647,503.983,319.866z"/>
<g>
	<circle style="fill:#AFF0E8;" cx="478.33" cy="302.764" r="8.551"/>
	<circle style="fill:#AFF0E8;" cx="33.67" cy="302.764" r="8.551"/>
</g>
<path style="fill:#88898E;" d="M93.528,405.378H76.426c-9.446,0-17.102-7.656-17.102-17.102V251.457  c0-9.446,7.656-17.102,17.102-17.102h17.102c9.446,0,17.102,7.656,17.102,17.102v136.818  C110.63,397.721,102.974,405.378,93.528,405.378z"/>
<path style="fill:#74757B;" d="M76.426,388.276V251.457c0-9.446,7.658-17.102,17.102-17.102H76.426  c-9.445,0-17.102,7.656-17.102,17.102v136.818c0,9.446,7.658,17.102,17.102,17.102h17.102  C84.083,405.378,76.426,397.721,76.426,388.276z"/>
<path style="fill:#88898E;" d="M435.574,405.378h-17.102c-9.446,0-17.102-7.656-17.102-17.102V251.457  c0-9.446,7.656-17.102,17.102-17.102h17.102c9.446,0,17.102,7.656,17.102,17.102v136.818  C452.676,397.721,445.02,405.378,435.574,405.378z"/>
<path style="fill:#74757B;" d="M418.472,388.276V251.457c0-9.446,7.658-17.102,17.102-17.102h-17.102  c-9.445,0-17.102,7.656-17.102,17.102v136.818c0,9.446,7.658,17.102,17.102,17.102h17.102  C426.129,405.378,418.472,397.721,418.472,388.276z"/>
<path style="fill:#E5563C;" d="M230.347,490.889h85.511c4.722,0,8.551-3.829,8.551-8.551v-17.102c0-4.722-3.829-8.551-8.551-8.551  h-85.511c-9.446,0-17.102,7.656-17.102,17.102l0,0C213.244,483.233,220.901,490.889,230.347,490.889z"/>
<path style="fill:#CF442B;" d="M247.449,473.787L247.449,473.787c0-9.446,7.658-17.102,17.102-17.102h-34.205  c-9.445,0-17.102,7.656-17.102,17.102l0,0c0,9.446,7.658,17.102,17.102,17.102h34.205  C255.106,490.889,247.449,483.233,247.449,473.787z"/>
<path d="M512,319.866c0-32.489-20.601-61.498-51.264-72.185c-0.113-0.04-0.229,0.201-0.343,0.167  c-1.87-12.017-12.286-20.976-24.819-20.976h-1.069v-35.273c0-98.723-80.318-179.04-179.04-179.04s-179.04,80.317-179.04,179.04  v35.273l0,0c-12.531,0-22.947,8.956-24.819,20.971C20.65,258.438,0,287.074,0,320c0,32.781,20.698,61.889,51.607,72.489  c1.871,12.015,12.287,21.44,24.819,21.44h17.102c13.851,0,24.585-11.803,24.585-25.653V251.457  c0-13.851-10.734-24.585-24.585-24.585h-1.069v-35.273c0-89.882,73.124-163.006,163.006-163.006s163.006,73.124,163.006,163.006  v35.273l0,0c-13.851,0-25.653,10.734-25.653,24.585v26.722c0,4.427,3.588,8.017,8.017,8.017s8.017-3.589,8.017-8.017v-26.722  c0-5.01,4.61-8.551,9.62-8.551h17.102c5.01,0,8.551,3.541,8.551,8.551v136.818c0,5.01-3.541,9.62-8.551,9.62h-17.102  c-5.01,0-9.62-4.61-9.62-9.62v-76.96c0-4.427-3.588-8.017-8.017-8.017s-8.017,3.589-8.017,8.017v76.96  c0,13.851,11.803,25.653,25.653,25.653l0,0v8.551c0,23.871-18.885,43.825-42.756,43.825h-43.825v-1.069  c0-9.136-6.898-16.033-16.033-16.033h-85.511c-13.851,0-25.119,11.268-25.119,25.119s11.268,25.119,25.119,25.119h85.511  c9.136,0,16.033-7.966,16.033-17.102l0,0h43.825c32.711,0,58.789-27.147,58.789-59.858v-8.551h1.069  c12.53,0,22.944-9.489,24.818-21.5C491.28,381.831,512,352.579,512,319.866z M15.499,319.866c0-24.018,14.965-45.24,35.273-54.949  v109.887C30.463,365.076,15.499,343.774,15.499,319.866z M102.079,388.81c0,5.017-4.068,9.086-9.086,9.086H75.891  c-5.017,0-9.086-4.068-9.086-9.086V251.992c0-5.017,4.068-9.086,9.086-9.086h17.102c5.017,0,9.086,4.068,9.086,9.086V388.81z   M315.858,482.338c0,0.295,0.294,1.069,0,1.069h-85.511c-5.01,0-9.086-4.076-9.086-9.086s4.076-9.086,9.086-9.086h85.511  c0.294,0,0-0.295,0,0V482.338z M460.159,374.799V264.937c21.378,9.744,35.273,31.153,35.273,54.929  C495.432,343.722,481.537,365.063,460.159,374.799z"/>
<path d="M230.347,208.701c4.428,0,7.482-4.124,7.482-8.551v-51.307c0-4.427-3.054-7.482-7.482-7.482h-59.858  c-4.428,0-8.017,3.589-8.017,8.017s3.588,8.017,8.017,8.017h51.307v35.273h-51.307c-4.428,0-8.551,3.055-8.551,7.482v51.307  c0,4.427,4.123,8.551,8.551,8.551h59.858c4.428,0,8.017-3.589,8.017-8.017c0-4.427-3.588-8.017-8.017-8.017h-52.376v-35.273H230.347  z"/>
<path d="M264.017,140.827c-4.428,0-8.017,3.589-8.017,8.017v51.307c0,4.427,4.123,8.551,8.551,8.551h51.307v42.756  c0,4.427,3.588,8.017,8.017,8.017s8.017-3.589,8.017-8.017v-42.756h18.171c4.428,0,8.017-3.589,8.017-8.017  c0-4.427-3.588-8.017-8.017-8.017h-18.171v-43.825c0-4.427-3.588-8.017-8.017-8.017s-8.017,3.589-8.017,8.017v43.825h-43.825  v-43.825C272.033,144.416,268.445,140.827,264.017,140.827z"/>
<path d="M255.466,46.764c-4.428,0-8.017,3.589-8.017,8.017v17.102c0,4.427,3.588,8.017,8.017,8.017c4.428,0,8.017-3.589,8.017-8.017  V54.781C263.482,50.353,259.894,46.764,255.466,46.764z"/>
<path d="M158.876,91.69c-3.13-3.131-8.206-3.13-11.337,0c-3.131,3.131-3.131,8.207,0.001,11.338l12.093,12.092  c3.259,3.261,8.766,3.04,11.763-0.461c2.686-3.138,2.493-7.959-0.426-10.877L158.876,91.69z"/>
<path d="M127.733,192.668H110.63c-4.428,0-8.017,3.589-8.017,8.017c0,4.427,3.588,8.017,8.017,8.017h17.102  c4.428,0,8.017-3.589,8.017-8.017C135.749,196.257,132.161,192.668,127.733,192.668z"/>
<path d="M159.634,285.18l-12.093,12.092c-2.919,2.918-3.114,7.74-0.426,10.877c2.997,3.501,8.503,3.721,11.763,0.461l12.093-12.092  c3.132-3.131,3.132-8.207,0.001-11.338C167.839,282.051,162.763,282.05,159.634,285.18z"/>
<path d="M247.449,345.52c0,4.427,3.588,8.017,8.017,8.017c4.428,0,8.017-3.589,8.017-8.017v-17.102c0-4.427-3.588-8.017-8.017-8.017  c-4.428,0-8.017,3.589-8.017,8.017V345.52z"/>
<path d="M352.366,285.18c-3.13-3.131-8.206-3.13-11.337,0c-3.131,3.131-3.131,8.207,0.001,11.338l12.093,12.092  c3.259,3.261,8.766,3.04,11.763-0.461c2.686-3.138,2.493-7.959-0.426-10.877L352.366,285.18z"/>
<path d="M401.37,208.701c4.428,0,8.017-3.589,8.017-8.017c0-4.427-3.588-8.017-8.017-8.017h-17.102  c-4.428,0-8.017,3.589-8.017,8.017c0,4.427,3.588,8.017,8.017,8.017H401.37z"/>
<path d="M364.462,91.69c-3.131-3.13-8.207-3.131-11.337,0l-12.095,12.092c-2.919,2.918-3.114,7.74-0.426,10.877  c2.997,3.501,8.503,3.721,11.763,0.461l12.093-12.092C367.591,99.897,367.591,94.82,364.462,91.69z"/>
<g>
</g>
<g>
</g>
<g>
</g>
<g>
</g>
<g>
</g>
<g>
</g>
<g>
</g>
<g>
</g>
<g>
</g>
<g>
</g>
<g>
</g>
<g>
</g>
<g>
</g>
<g>
</g>
<g>
</g>
</svg>
