<?xml version="1.0" encoding="iso-8859-1"?>
<!-- Generator: Adobe Illustrator 19.0.0, SVG Export Plug-In . SVG Version: 6.00 Build 0)  -->
<svg xmlns="http://www.w3.org/2000/svg" xmlns:xlink="http://www.w3.org/1999/xlink" version="1.1" id="Layer_1" x="0px" y="0px" viewBox="0 0 512.001 512.001" style="enable-background:new 0 0 512.001 512.001;" xml:space="preserve">
<circle style="fill:#C4E6DF;" cx="285.93" cy="341.511" r="162.472"/>
<circle style="fill:#AFF0E8;" cx="285.93" cy="341.511" r="162.472"/>
<path style="fill:#74DBC9;" d="M311.584,478.33c-89.73,0-162.472-72.741-162.472-162.472c0-38.329,13.281-73.553,35.482-101.336  c-37.259,29.771-61.135,75.589-61.135,126.99c0,89.73,72.741,162.472,162.472,162.472c51.401,0,97.219-23.876,126.99-61.135  C385.136,465.049,349.913,478.33,311.584,478.33z"/>
<path style="fill:#6AC8B7;" d="M268.828,435.574l-17.102,25.653l7.34,40.532c8.74,1.455,17.712,2.223,26.865,2.223  c33.594,0,64.806-10.197,90.712-27.664l-39.405-23.643l-8.551-25.653v-34.205v-34.205l-17.102-25.653l25.653-25.653l-17.102-59.858  l25.653-8.551c0,0,32.367-9.248,49.499-17.544c-28.865-26.286-67.24-42.314-109.357-42.314c-47.594,0-90.407,20.466-120.121,53.076  L174.765,256h51.307l8.551,25.653l17.102,8.551l25.653,34.205l25.653,34.205v42.756L268.828,435.574z"/>
<path id="SVGCleanerId_0" style="fill:#6AC8B7;" d="M429.826,266.025l-32.731,32.731l17.102,17.102l-25.653,34.205l17.102,17.102  v17.102l27.037,27.037c10.074-21.146,15.719-44.809,15.719-69.792C448.402,314.26,441.683,288.581,429.826,266.025z"/>
<path style="fill:#6AC8B7;" d="M166.214,324.409l8.551-25.653l-44.019-5.503c-4.736,15.246-7.288,31.454-7.288,48.258  c0,43.441,17.049,82.898,44.82,112.049l23.589-9.435l8.551-17.102l17.102-17.102l-25.653-17.102l25.653-34.205l8.551-25.653  l-25.653-8.551H166.214z"/>
<path style="fill:#2DB59F;" d="M252.839,467.376l6.226,34.384c8.74,1.455,17.712,2.223,26.865,2.223  c33.594,0,64.806-10.197,90.712-27.664l-11.643-6.986c-16.73,5.822-34.701,8.997-53.415,8.997  C290.866,478.33,271.059,474.444,252.839,467.376z"/>
<path style="fill:#6AC8B7;" d="M165.809,232.116l2.591,6.909c4.663-8.67,10.09-16.864,16.192-24.5  C177.877,219.89,171.592,225.77,165.809,232.116z"/>
<g>
	<path id="SVGCleanerId_0_1_" style="fill:#6AC8B7;" d="M429.826,266.025l-32.731,32.731l17.102,17.102l-25.653,34.205   l17.102,17.102v17.102l27.037,27.037c10.074-21.146,15.719-44.809,15.719-69.792C448.402,314.26,441.683,288.581,429.826,266.025z"/>
</g>
<path style="fill:#2DB59F;" d="M149.112,315.858c0-6.825,0.426-13.549,1.244-20.154l-19.61-2.451  c-4.736,15.246-7.288,31.454-7.288,48.258c0,43.441,17.049,82.898,44.82,112.049l23.589-9.435l6.081-12.162  C167.818,402.469,149.112,361.351,149.112,315.858z"/>
<path style="fill:#FDD042;" d="M260.277,84.977c0-42.505,34.457-76.96,76.96-76.96s76.96,34.456,76.96,76.96  s-76.96,136.818-76.96,136.818S260.277,127.482,260.277,84.977z"/>
<path style="fill:#F2C127;" d="M285.93,84.977c0-38.132,27.738-69.767,64.134-75.876c-4.173-0.7-8.454-1.084-12.827-1.084  c-42.505,0-76.96,34.456-76.96,76.96c0,42.503,76.96,136.818,76.96,136.818s5.172-6.341,12.827-16.46  C328.173,176.394,285.93,116.47,285.93,84.977z"/>
<circle style="fill:#EBEBEC;" cx="337.237" cy="84.977" r="34.205"/>
<path style="fill:#D7D8D9;" d="M354.339,110.63c-18.891,0-34.205-15.314-34.205-34.205c0-9.918,4.226-18.847,10.971-25.094  c-15.963,2.89-28.073,16.849-28.073,33.646c0,18.891,15.314,34.205,34.205,34.205c8.972,0,17.132-3.459,23.233-9.11  C358.48,110.432,356.433,110.63,354.339,110.63z"/>
<path style="fill:#E5563C;" d="M63.6,187.591c0-51.949,42.113-94.063,94.063-94.063s94.063,42.113,94.063,94.063  s-94.063,171.023-94.063,171.023S63.6,239.54,63.6,187.591z"/>
<path style="fill:#CF442B;" d="M89.254,187.591c0-47.598,35.356-86.932,81.236-93.188c-4.194-0.572-8.475-0.874-12.827-0.874  c-51.949,0-94.063,42.113-94.063,94.063s94.063,171.023,94.063,171.023s5.06-6.407,12.827-16.885  C144.755,307.005,89.254,227.497,89.254,187.591z"/>
<circle style="fill:#EBEBEC;" cx="157.663" cy="187.591" r="51.307"/>
<path style="fill:#D7D8D9;" d="M174.765,230.347c-28.336,0-51.307-22.971-51.307-51.307c0-16.649,7.935-31.438,20.225-40.811  c-21.538,6.088-37.327,25.875-37.327,49.363c0,28.336,22.971,51.307,51.307,51.307c11.687,0,22.456-3.915,31.082-10.495  C184.299,229.659,179.614,230.347,174.765,230.347z"/>
<path d="M369.271,192.769c7.508-10.506,15.766-22.625,23.502-35.174c2.324-3.769,1.152-8.707-2.618-11.031  c-3.768-2.324-8.708-1.152-11.031,2.618c-15.138,24.556-32.779,47.988-41.911,59.727c-23.798-30.437-68.919-94.268-68.919-123.931  c0-38.015,30.928-68.944,68.944-68.944s68.944,30.928,68.944,68.944c0,6.395-2.329,18.566-13.426,40.22  c-2.019,3.941-0.462,8.771,3.478,10.79c3.942,2.019,8.771,0.462,10.79-3.478c10.223-19.948,15.191-35.496,15.191-47.533  C422.214,38.121,384.093,0,337.237,0S252.26,38.121,252.26,84.977c0,18.802,12.809,47.773,38.062,86.126  c-10.581-0.263-21.219,0.447-31.598,2.109c-7.011-49.503-49.655-87.701-101.062-87.701c-56.287,0-102.079,45.792-102.079,102.079  c0,32.964,34.096,89.239,61.63,129.31c-1.172,8.105-1.772,16.373-1.772,24.61c0,18.73,3.02,37.143,8.974,54.724  c1.459,4.308,6.365,6.55,10.586,4.863c3.898-1.558,5.944-6.038,4.599-10.008c-5.393-15.92-8.127-32.601-8.127-49.58  c0-1.431,0.044-2.862,0.083-4.295c10.829,14.942,18.726,24.989,19.814,26.366c3.159,4,9.422,4,12.582,0  c1.211-1.533,10.863-13.546,23.607-31.368c0.847,0.304,1.754,0.745,2.704,0.745h8.853l16.814,5.338l-5.604,16.68l-24.873,33.097  c-2.722,3.629-1.806,8.933,1.967,11.447l17.517,11.662l-10.188,10.179c-0.609,0.609-1.116,1.308-1.502,2.079l-7.188,14.373  l-15.622,6.248c-7.66-8.621-14.432-18.159-20.108-28.533c-2.124-3.883-6.995-5.309-10.88-3.185c-3.884,2.125-5.31,6.996-3.185,10.88  c25.319,46.28,70.204,77.74,121.142,86.374c0.32,0.067,0.643,0.121,0.973,0.15c9.023,1.476,18.228,2.252,27.55,2.252  c94.008,0,170.489-76.48,170.489-170.488C456.419,279.555,423.134,222.979,369.271,192.769z M429.705,397.256l-16.576-16.309  v-13.782c0-2.126-0.577-4.165-2.081-5.668l-12.052-12.185l21.548-28.643c2.393-3.192,2.11-7.658-0.711-10.478l-11.417-11.434  l19.093-19.084c8.353,19.154,12.739,40.132,12.739,61.84C440.247,361.158,436.424,379.955,429.705,397.256z M157.663,345.527  c-28.838-37.83-86.046-120.588-86.046-157.936c0-47.446,38.6-86.046,86.046-86.046s86.046,38.6,86.046,86.046  C243.709,224.939,186.501,307.697,157.663,345.527z M194.844,451.568c1.824-0.729,3.316-2.101,4.193-3.858l7.97-15.938  l16.182-16.183c3.523-3.523,2.921-9.577-1.222-12.338l-18.602-12.402l20.569-27.425c0.517-0.689,0.919-1.458,1.192-2.275  l8.551-25.653c1.4-4.2-0.87-8.74-5.071-10.141l-25.653-8.284c-0.818-0.273-1.673-0.144-2.535-0.144h-1.958  c8.424-12.827,17.44-26.31,25.898-40.451l2.66,7.847c0.672,2.017,2.119,3.618,4.02,4.568l15.142,7.671l48.301,64.724v36.764  l-31.589,31.856c-0.373,0.373-0.575,0.782-0.868,1.222l-17.036,25.653c-1.151,1.727-1.555,3.833-1.184,5.876l5.24,28.842  c-24.719-6.076-47.493-18.16-66.337-35.078L194.844,451.568z M265.926,494.656l-5.736-31.673l14.867-22.301l33.376-33.643  c1.504-1.503,2.081-3.542,2.081-5.668v-42.756c0-1.735-0.295-3.423-1.336-4.81l-51.173-68.409c-0.747-0.996-1.648-1.804-2.761-2.36  l-14.099-7.066l-6.041-18.173c-0.028-0.084-0.057-0.162-0.088-0.245c13.703-25.21,24.061-50.032,24.678-68.256  c13.767-2.353,28.102-2.845,42.037-1.431c15.465,22.012,28.631,38.192,29.293,39.002c3.158,3.87,9.265,3.87,12.424,0  c0.542-0.665,7.131-8.765,16.29-21.042c7.174,3.909,13.965,8.316,20.316,13.19c-22.794,8.639-61.796,20.628-62.271,20.773  c-4.175,1.282-6.557,5.668-5.357,9.867l15.807,55.323l-22.317,22.317c-2.702,2.702-3.388,6.936-1.269,10.115l15.488,23.634v65.982  c0,0.862,0.406,1.718,0.679,2.535l8.685,25.653c0.605,1.816,1.907,3.355,3.548,4.34l28.068,16.82  c-22.274,12.471-47.911,19.595-75.202,19.595C279.168,495.967,272.507,495.514,265.926,494.656z M376.244,466.731l-32.607-19.404  l-7.469-21.606v-67.108c0-1.582-0.201-3.13-1.08-4.447l-13.323-20.185l21.073-21.006c2.059-2.059,2.873-5.072,2.073-7.871  l-14.934-52.326c14.718-4.617,47.142-14.998,63.716-21.945c10.311,10.027,19.124,21.396,26.22,33.762l-28.489,28.491  c-3.131,3.131-3.13,8.207,0.001,11.337l12.186,12.185l-21.482,28.643c-2.393,3.192-2.343,7.658,0.478,10.478l14.487,14.754v13.782  c0,2.126,1.112,4.165,2.616,5.668l23.047,22.914C411.576,434.229,395.67,452.681,376.244,466.731z"/>
<path d="M295.016,84.977c0,23.281,18.941,42.221,42.221,42.221c23.28,0,42.221-18.941,42.221-42.221s-18.941-42.221-42.221-42.221  C313.956,42.756,295.016,61.697,295.016,84.977z M363.425,84.977c0,14.44-11.748,26.188-26.188,26.188  c-14.44,0-26.188-11.748-26.188-26.188s11.748-26.188,26.188-26.188C351.677,58.789,363.425,70.537,363.425,84.977z"/>
<path d="M336.093,81.909c-1.239-2.936-4.145-4.903-7.337-4.941c-3.438-0.041-6.612,2.225-7.677,5.495  c-1.018,3.125-0.018,6.615,2.524,8.708c2.672,2.2,6.572,2.403,9.464,0.515C336.28,89.589,337.51,85.449,336.093,81.909z"/>
<path d="M338.381,88.045c1.317,3.12,4.511,5.146,7.908,4.932c3.15-0.198,5.991-2.315,7.045-5.297  c2.452-6.936-5.346-13.369-11.664-9.58C338.285,80.127,336.921,84.4,338.381,88.045z"/>
<path d="M157.663,128.267c-32.711,0-59.324,26.612-59.324,59.324s26.612,59.324,59.324,59.324s59.324-26.612,59.324-59.324  S190.374,128.267,157.663,128.267z M157.663,230.881c-23.871,0-43.29-19.42-43.29-43.29s19.42-43.29,43.29-43.29  s43.29,19.42,43.29,43.29S181.533,230.881,157.663,230.881z"/>
<path d="M157.663,179.574c-7.372,0-10.788,9.575-5.048,14.238c5.711,4.639,14.429-0.622,12.892-7.87  C164.73,182.282,161.407,179.574,157.663,179.574z"/>
<path d="M186.384,180.183c-2.979-1.193-6.452-0.538-8.733,1.742c-2.417,2.415-3.031,6.212-1.493,9.266  c1.439,2.856,4.555,4.635,7.748,4.39c3.554-0.271,6.567-2.922,7.266-6.421C191.917,185.442,189.868,181.653,186.384,180.183z"/>
<path d="M139.417,184.523c-2.668-6.325-11.943-6.531-14.727-0.18c-1.414,3.226-0.55,7.079,2.143,9.362  c2.531,2.146,6.236,2.494,9.125,0.858C139.455,192.585,140.903,188.236,139.417,184.523z"/>
<g>
</g>
<g>
</g>
<g>
</g>
<g>
</g>
<g>
</g>
<g>
</g>
<g>
</g>
<g>
</g>
<g>
</g>
<g>
</g>
<g>
</g>
<g>
</g>
<g>
</g>
<g>
</g>
<g>
</g>
</svg>
