<?xml version="1.0" encoding="iso-8859-1"?>
<!-- Generator: Adobe Illustrator 19.0.0, SVG Export Plug-In . SVG Version: 6.00 Build 0)  -->
<svg xmlns="http://www.w3.org/2000/svg" xmlns:xlink="http://www.w3.org/1999/xlink" version="1.1" id="Layer_1" x="0px" y="0px" viewBox="0 0 512 512" style="enable-background:new 0 0 512 512;" xml:space="preserve">
<path style="fill:#74DBC9;" d="M316.392,247.115h-76.96L187.591,98.996c-4.801-13.719-17.749-22.905-32.284-22.905H76.96  c-9.446,0-17.102,7.656-17.102,17.102v153.921H25.653c-9.446,0-17.102,7.656-17.102,17.102v119.716h324.944V264.216  C333.495,254.771,325.838,247.115,316.392,247.115z"/>
<path style="fill:#88898E;" d="M85.511,358.28V101.745h69.794c3.629,0,6.873,2.301,8.071,5.726l50.402,144.002v106.805H85.511  V358.28z"/>
<rect x="8.551" y="349.731" style="fill:#FDD042;" width="376.251" height="34.205"/>
<path style="fill:#6AC8B7;" d="M51.307,247.115H25.653c-9.446,0-17.102,7.656-17.102,17.102v119.716h25.653V264.217  C34.205,254.771,41.861,247.115,51.307,247.115z"/>
<rect x="8.551" y="349.731" style="fill:#F2C127;" width="25.653" height="34.205"/>
<circle style="fill:#606268;" cx="256.534" cy="392.486" r="42.756"/>
<circle style="fill:#EBEBEC;" cx="256.534" cy="392.486" r="17.102"/>
<circle style="fill:#606268;" cx="76.96" cy="392.486" r="42.756"/>
<circle style="fill:#EBEBEC;" cx="76.96" cy="392.486" r="17.102"/>
<path style="fill:#EB7763;" d="M393.353,349.729V153.052h-17.102c-9.446,0-17.102,7.656-17.102,17.102v213.779h128.267  c9.446,0,17.102-7.656,17.102-17.102v-17.102H393.353z"/>
<path style="fill:#E5563C;" d="M376.251,153.052c-9.446,0-17.102,7.656-17.102,17.102v213.779h128.267  c9.446,0,17.102-7.656,17.102-17.102H376.251V153.052z"/>
<g>
	<path style="fill:#FDD042;" d="M119.716,247.115v-42.756c0-9.446-7.656-17.102-17.102-17.102H85.511v94.063h76.96v-17.102   c0-9.446-7.656-17.102-17.102-17.102L119.716,247.115L119.716,247.115z"/>
	<rect x="393.353" y="264.219" style="fill:#FDD042;" width="94.063" height="85.511"/>
</g>
<rect x="393.353" y="195.81" style="fill:#FDDD85;" width="68.409" height="68.409"/>
<rect x="393.353" y="264.219" style="fill:#F2C127;" width="17.102" height="85.511"/>
<rect x="393.353" y="195.81" style="fill:#FDD042;" width="17.102" height="68.409"/>
<path d="M256.534,367.365c-13.851,0-25.119,11.268-25.119,25.119s11.268,25.119,25.119,25.119s25.119-11.268,25.119-25.119  S270.385,367.365,256.534,367.365z M256.534,401.57c-5.01,0-9.086-4.076-9.086-9.086s4.076-9.086,9.086-9.086  c5.01,0,9.086,4.076,9.086,9.086S261.544,401.57,256.534,401.57z"/>
<path d="M76.96,367.365c-13.851,0-25.119,11.268-25.119,25.119s11.268,25.119,25.119,25.119s25.119-11.268,25.119-25.119  S90.811,367.365,76.96,367.365z M76.96,401.57c-5.01,0-9.086-4.076-9.086-9.086s4.076-9.086,9.086-9.086s9.086,4.076,9.086,9.086  S81.97,401.57,76.96,401.57z"/>
<path d="M504.518,342.246h-9.62v-78.029c0-4.427-3.055-7.482-7.482-7.482h-18.171v-60.927c0-4.427-3.055-7.482-7.482-7.482h-60.927  v-35.273c0-4.427-3.055-7.482-7.482-7.482h-17.102c-13.851,0-25.653,10.734-25.653,24.585v25.653c0,4.427,3.589,8.017,8.017,8.017  c4.427,0,8.017-3.589,8.017-8.017v-25.653c0-5.01,4.61-8.551,9.62-8.551h8.551v188.125c0,4.427,4.124,8.551,8.551,8.551h102.614  v8.551c0,5.01-3.541,9.62-8.551,9.62H366.63V230.013c0-4.427-3.589-8.017-8.017-8.017c-4.427,0-8.017,3.589-8.017,8.017v112.234  h-9.62v-78.029c0-13.851-10.734-24.585-24.585-24.585H245.12l-49.962-142.75c-5.92-16.911-21.934-28.273-39.85-28.273H76.96  c-13.851,0-25.653,10.734-25.653,24.585v146.438H25.653C11.803,239.633,0,250.366,0,264.217v119.716  c0,4.427,4.124,8.551,8.551,8.551h17.651c-0.002,0-0.014,0.088-0.014,0.267c0,27.995,22.777,50.639,50.772,50.639  s50.772-22.576,50.772-50.573c0-0.18-0.012-0.335-0.014-0.335h78.056c-0.002,0-0.014,0.088-0.014,0.267  c0,27.995,22.777,50.639,50.772,50.639s50.772-22.576,50.772-50.573c0-0.18-0.012-0.335-0.014-0.335h180.124  c13.851,0,24.585-11.803,24.585-25.653v-17.102C512,345.3,508.945,342.246,504.518,342.246z M453.211,204.359v52.376h-52.376  v-52.376H453.211z M400.835,342.246v-69.478h78.029v69.478H400.835z M25.653,255.666h34.205c4.427,0,7.482-4.124,7.482-8.551V93.194  c0-5.01,4.61-8.551,9.62-8.551h78.347c11.113,0,21.045,6.78,24.717,17.269l51.841,148.251c1.126,3.215,4.16,5.502,7.567,5.502h76.96  c5.01,0,8.551,3.541,8.551,8.551v78.029H221.261v-90.771c0-0.902,0.114-1.797-0.183-2.649L170.811,105.09  c-2.323-6.636-8.474-10.828-15.504-10.828H85.511c-4.427,0-8.551,3.055-8.551,7.482v240.501H16.033v-78.029  C16.033,259.206,20.644,255.666,25.653,255.666z M92.994,342.246v-52.376h69.478c4.427,0,7.482-4.124,7.482-8.551v-17.102  c0-13.851-10.734-24.585-24.585-24.585h-18.171v-35.273c0-13.851-10.734-24.585-24.585-24.585h-9.62v-69.478h62.312  c0.223,0,0.431-0.12,0.505,0.091l36.968,106.252l-22.824-9.157v-11.674c0-4.427-3.589-8.017-8.017-8.017s-8.017,3.589-8.017,8.017  v17.239c0,0.009,0,0.017,0,0.026v16.941c0,4.427,3.589,8.017,8.017,8.017s8.017-3.589,8.017-8.017v-5.261l29.586,11.834l5.688,16.25  v89.41H92.994z M119.716,255.666h25.653c5.01,0,8.551,3.541,8.551,8.551v9.62H92.994v-78.029h9.62c5.01,0,8.551,3.541,8.551,8.551  v42.756C111.165,251.542,115.289,255.666,119.716,255.666z M16.033,376.451V358.28h23.95c-4.854,4.276-8.638,10.689-11.005,18.171  H16.033z M76.96,427.223c-19.155,0-34.739-15.584-34.739-34.739c0-19.155,15.584-34.739,34.739-34.739s34.739,15.584,34.739,34.739  C111.699,411.639,96.115,427.223,76.96,427.223z M124.942,376.451c-2.367-7.482-6.151-13.896-11.005-18.171h105.621  c-4.854,4.276-8.638,10.689-11.005,18.171H124.942z M256.534,427.223c-19.155,0-34.739-15.584-34.739-34.739  c0-19.155,15.584-34.739,34.739-34.739c19.155,0,34.739,15.584,34.739,34.739C291.273,411.639,275.689,427.223,256.534,427.223z   M293.512,358.28h57.085v18.171h-45.962c-0.04,0-0.077,0.005-0.117,0.005C302.152,369.62,298.367,362.555,293.512,358.28z"/>
<path d="M419.006,230.013h17.102c4.427,0,8.017-3.589,8.017-8.017s-3.589-8.017-8.017-8.017h-17.102  c-4.427,0-8.017,3.589-8.017,8.017S414.579,230.013,419.006,230.013z"/>
<path d="M453.211,290.939h-34.205c-4.427,0-8.017,3.589-8.017,8.017c0,4.427,3.589,8.017,8.017,8.017h34.205  c4.427,0,8.017-3.589,8.017-8.017C461.228,294.529,457.638,290.939,453.211,290.939z"/>
<g>
</g>
<g>
</g>
<g>
</g>
<g>
</g>
<g>
</g>
<g>
</g>
<g>
</g>
<g>
</g>
<g>
</g>
<g>
</g>
<g>
</g>
<g>
</g>
<g>
</g>
<g>
</g>
<g>
</g>
</svg>
