<?xml version="1.0" encoding="iso-8859-1"?>
<!-- Generator: Adobe Illustrator 19.0.0, SVG Export Plug-In . SVG Version: 6.00 Build 0)  -->
<svg xmlns="http://www.w3.org/2000/svg" xmlns:xlink="http://www.w3.org/1999/xlink" version="1.1" id="Layer_1" x="0px" y="0px" viewBox="0 0 512 512" style="enable-background:new 0 0 512 512;" xml:space="preserve">
<circle style="fill:#606268;" cx="84.977" cy="422.213" r="76.96"/>
<circle style="fill:#74757B;" cx="84.977" cy="422.213" r="51.307"/>
<circle style="fill:#C3C4C6;" cx="84.977" cy="422.213" r="34.205"/>
<path style="fill:#9B9DA1;" d="M93.528,439.315c-18.891,0-34.205-15.314-34.205-34.205c0-2.094,0.199-4.141,0.559-6.131  c-5.651,6.1-9.11,14.261-9.11,23.233c0,18.891,15.314,34.205,34.205,34.205c16.797,0,30.755-12.111,33.646-28.073  C112.375,435.089,103.448,439.315,93.528,439.315z"/>
<circle style="fill:#606268;" cx="427.023" cy="422.213" r="76.96"/>
<circle style="fill:#74757B;" cx="427.023" cy="422.213" r="51.307"/>
<circle style="fill:#C3C4C6;" cx="427.023" cy="422.213" r="34.205"/>
<path style="fill:#9B9DA1;" d="M435.574,439.315c-18.891,0-34.205-15.314-34.205-34.205c0-2.094,0.199-4.141,0.559-6.131  c-5.651,6.101-9.11,14.262-9.11,23.233c0,18.891,15.314,34.205,34.205,34.205c16.797,0,30.755-12.111,33.646-28.073  C454.421,435.089,445.493,439.315,435.574,439.315z"/>
<rect x="110.63" y="131.474" style="fill:#FDD042;" width="119.716" height="213.779"/>
<rect x="110.63" y="131.474" style="fill:#F2C127;" width="25.653" height="213.779"/>
<rect x="230.347" y="131.474" style="fill:#FDDD85;" width="171.023" height="213.779"/>
<rect x="136.284" y="285.395" style="fill:#FFFFFF;" width="68.409" height="25.653"/>
<g>
	<polygon style="fill:#E1A527;" points="196.142,208.434 170.489,191.332 144.835,208.434 144.835,131.474 196.142,131.474  "/>
	<polygon style="fill:#E1A527;" points="290.205,276.843 324.409,242.639 358.614,276.843 341.511,276.843 341.511,311.048    307.307,311.048 307.307,276.843  "/>
</g>
<rect x="256" y="11.758" style="fill:#74DBC9;" width="102.614" height="119.716"/>
<rect x="170.489" y="11.758" style="fill:#6AC8B7;" width="85.511" height="119.716"/>
<rect x="170.489" y="11.758" style="fill:#2DB59F;" width="17.102" height="119.716"/>
<rect x="196.142" y="11.758" style="fill:#EBEBEC;" width="25.653" height="42.756"/>
<path d="M127.198,422.213c0-23.28-18.941-42.221-42.221-42.221s-42.221,18.941-42.221,42.221s18.941,42.221,42.221,42.221  S127.198,445.493,127.198,422.213z M58.789,422.213c0-14.44,11.747-26.188,26.188-26.188s26.188,11.748,26.188,26.188  s-11.747,26.188-26.188,26.188S58.789,436.653,58.789,422.213z"/>
<path d="M427.023,337.77h-18.171V225.537c0-4.427-3.588-8.017-8.017-8.017s-8.017,3.589-8.017,8.017V337.77h-154.99V140.025h154.99  v51.307c0,4.427,3.588,8.017,8.017,8.017s8.017-3.589,8.017-8.017v-59.858c0-4.427-3.054-7.482-7.482-7.482h-35.273V11.758  c0-4.427-3.054-7.482-7.482-7.482H170.489c-4.428,0-8.551,3.055-8.551,7.482v112.234H110.63c-4.428,0-8.551,3.055-8.551,7.482  V337.77H84.977C38.12,337.77,0,375.891,0,422.747s38.12,84.977,84.977,84.977h342.046c46.857,0,84.977-38.121,84.977-84.977  S473.88,337.77,427.023,337.77z M350.063,123.992h-86.58V20.309h86.58V123.992z M213.244,20.309v26.722h-9.62V20.309H213.244z   M177.971,20.309h9.62v34.205c0,4.427,4.123,8.551,8.551,8.551h25.653c4.428,0,7.482-4.124,7.482-8.551V20.309h18.171v103.683  h-69.478V20.309z M187.591,140.025v53.43l-12.923-8.794c-2.664-1.775-6.363-1.777-9.027,0l-13.324,8.794v-53.43H187.591z   M118.113,140.025h18.171v68.409c0,6.275,7.498,10.159,12.731,6.67l21.34-14.138l21.006,14.138  c5.238,3.493,12.263-0.403,12.263-6.67v-68.409h18.171V337.77H118.113V140.025z M16.033,422.213  c0-38.015,30.928-68.944,68.944-68.944s68.944,30.928,68.944,68.944s-30.928,68.944-68.944,68.944S16.033,460.228,16.033,422.213z   M134.565,491.691c21.412-16.033,35.389-40.585,35.389-68.944s-13.977-53.979-35.389-68.944h242.871  c-21.413,14.965-35.39,40.585-35.39,68.944s13.977,52.91,35.389,68.944H134.565z M427.023,491.157  c-38.015,0-68.944-30.928-68.944-68.944s30.928-68.944,68.944-68.944s68.944,30.928,68.944,68.944S465.038,491.157,427.023,491.157z  "/>
<path d="M427.023,379.992c-23.281,0-42.221,18.941-42.221,42.221s18.941,42.221,42.221,42.221c23.28,0,42.221-18.941,42.221-42.221  S450.303,379.992,427.023,379.992z M427.023,448.401c-14.441,0-26.188-11.748-26.188-26.188s11.747-26.188,26.188-26.188  s26.188,11.748,26.188,26.188S441.464,448.401,427.023,448.401z"/>
<path d="M212.175,285.929c0-4.427-3.589-8.017-8.017-8.017h-68.409c-4.427,0-8.017,3.589-8.017,8.017v25.653  c0,4.427,3.589,8.017,8.017,8.017h68.409c4.427,0,8.017-3.589,8.017-8.017V285.929z M196.142,303.566h-52.376v-9.62h52.376V303.566z  "/>
<path d="M307.307,319.599h34.205c4.428,0,7.482-4.124,7.482-8.551v-25.653h9.62c3.242,0,6.166-2.22,7.406-5.216  c1.241-2.996,0.556-6.577-1.737-8.87l-34.205-34.272c-3.132-3.131-8.207-3.164-11.338-0.033l-34.205,34.187  c-2.293,2.293-2.978,6-1.737,8.996c1.24,2.996,4.164,5.208,7.406,5.208h8.551v25.653  C298.756,315.475,302.878,319.599,307.307,319.599z M324.409,253.976l14.835,15.102c-3.459,0.889-6.284,4.029-6.284,7.766v26.722  h-18.171v-26.722c0-3.737-2.291-6.876-5.75-7.766L324.409,253.976z"/>
<path d="M256,165.678v17.102c0,4.427,3.588,8.017,8.017,8.017c4.428,0,8.017-3.589,8.017-8.017v-17.102  c0-4.427-3.588-8.017-8.017-8.017C259.588,157.662,256,161.251,256,165.678z"/>
<path d="M289.136,182.781v-17.102c0-4.427-3.588-8.017-8.017-8.017c-4.428,0-8.017,3.589-8.017,8.017v17.102  c0,4.427,3.588,8.017,8.017,8.017C285.547,190.798,289.136,187.208,289.136,182.781z"/>
<path d="M314.789,182.781v-17.102c0-4.427-3.588-8.017-8.017-8.017c-4.428,0-8.017,3.589-8.017,8.017v17.102  c0,4.427,3.588,8.017,8.017,8.017C311.201,190.798,314.789,187.208,314.789,182.781z"/>
<path d="M323.875,190.798c4.428,0,8.017-3.589,8.017-8.017v-17.102c0-4.427-3.588-8.017-8.017-8.017s-8.017,3.589-8.017,8.017  v17.102C315.858,187.208,319.446,190.798,323.875,190.798z"/>
<path d="M348.994,182.781v-17.102c0-4.427-3.588-8.017-8.017-8.017s-8.017,3.589-8.017,8.017v17.102  c0,4.427,3.588,8.017,8.017,8.017S348.994,187.208,348.994,182.781z"/>
<path d="M374.647,182.781v-17.102c0-4.427-3.588-8.017-8.017-8.017s-8.017,3.589-8.017,8.017v17.102  c0,4.427,3.588,8.017,8.017,8.017S374.647,187.208,374.647,182.781z"/>
<path d="M230.347,105.82c4.428,0,8.017-3.589,8.017-8.017c0-4.427-3.588-8.017-8.017-8.017h-34.205  c-4.428,0-8.017,3.589-8.017,8.017c0,4.427,3.588,8.017,8.017,8.017H230.347z"/>
<path d="M290.205,54.514h34.205c4.428,0,8.017-3.589,8.017-8.017s-3.588-8.017-8.017-8.017h-34.205  c-4.428,0-8.017,3.589-8.017,8.017S285.776,54.514,290.205,54.514z"/>
<path d="M290.205,80.167h34.205c4.428,0,8.017-3.589,8.017-8.017s-3.588-8.017-8.017-8.017h-34.205  c-4.428,0-8.017,3.589-8.017,8.017S285.776,80.167,290.205,80.167z"/>
<path d="M290.205,105.82h34.205c4.428,0,8.017-3.589,8.017-8.017c0-4.427-3.588-8.017-8.017-8.017h-34.205  c-4.428,0-8.017,3.589-8.017,8.017C282.188,102.231,285.776,105.82,290.205,105.82z"/>
<g>
</g>
<g>
</g>
<g>
</g>
<g>
</g>
<g>
</g>
<g>
</g>
<g>
</g>
<g>
</g>
<g>
</g>
<g>
</g>
<g>
</g>
<g>
</g>
<g>
</g>
<g>
</g>
<g>
</g>
</svg>
