<?xml version="1.0" encoding="iso-8859-1"?>
<!-- Generator: Adobe Illustrator 19.0.0, SVG Export Plug-In . SVG Version: 6.00 Build 0)  -->
<svg xmlns="http://www.w3.org/2000/svg" xmlns:xlink="http://www.w3.org/1999/xlink" version="1.1" id="Layer_1" x="0px" y="0px" viewBox="0 0 512 512" style="enable-background:new 0 0 512 512;" xml:space="preserve">
<path style="fill:#9B9DA1;" d="M383.198,135.405l37.574,37.574l25.049-25.049c6.917-6.917,6.917-18.132,0-25.049l-12.525-12.525  c-6.917-6.917-18.132-6.917-25.049,0L383.198,135.405z"/>
<circle style="fill:#E5563C;" cx="256.177" cy="291.148" r="212.549"/>
<circle style="fill:#CF442B;" cx="256.177" cy="291.148" r="185.981"/>
<circle style="fill:#FFFFFF;" cx="256.177" cy="291.148" r="159.412"/>
<path style="fill:#EBEBEC;" d="M282.741,423.991c-88.041,0-159.412-71.371-159.412-159.412c0-37.25,12.78-71.515,34.189-98.654  c-37.002,29.192-60.758,74.432-60.758,125.222c0,88.041,71.371,159.412,159.412,159.412c50.79,0,96.03-23.755,125.222-60.758  C354.256,411.212,319.991,423.991,282.741,423.991z"/>
<rect x="238.464" y="34.318" style="fill:#D7D8D9;" width="35.425" height="44.281"/>
<rect x="211.895" y="7.749" style="fill:#606268;" width="88.562" height="35.425"/>
<rect x="265.033" y="7.749" style="fill:#AFB0B4;" width="17.712" height="35.425"/>
<rect x="211.895" y="7.749" style="fill:#4C4E55;" width="26.569" height="35.425"/>
<path style="fill:#FDD042;" d="M273.885,274.543H238.46c-0.61,0-1.107-0.497-1.107-1.107v-26.569c0-0.61,0.497-1.107,1.107-1.107  h53.137c9.171,0,16.605-7.435,16.605-16.605s-7.435-16.605-16.605-16.605h-18.819v-9.963c0-9.171-7.435-16.605-16.605-16.605  c-9.171,0-16.605,7.435-16.605,16.605v9.963h-1.107c-18.922,0-34.318,15.395-34.318,34.318v26.569  c0,18.922,15.395,34.318,34.318,34.318h35.425c0.61,0,1.107,0.497,1.107,1.107v26.569c0,0.61-0.497,1.107-1.107,1.107h-53.137  c-9.171,0-16.605,7.435-16.605,16.605c0,9.171,7.435,16.605,16.605,16.605h18.819v9.963c0,9.171,7.435,16.605,16.605,16.605  c9.171,0,16.605-7.435,16.605-16.605v-9.963h1.107c18.922,0,34.318-15.395,34.318-34.318v-26.569  C308.202,289.938,292.808,274.543,273.885,274.543z"/>
<path d="M438.635,166.859l13.057-13.059c10.144-10.144,10.144-26.647,0-36.791l-12.524-12.524  c-10.143-10.144-26.647-10.144-36.791,0l-11.933,11.656c-30.796-23.732-67.85-39.526-108.81-44.305V52.03h18.819  c4.585,0,7.749-4.271,7.749-8.856V7.749c0-4.585-3.164-7.749-7.749-7.749h-88.562c-4.585,0-8.856,3.164-8.856,7.749v35.425  c0,4.585,4.271,8.856,8.856,8.856h17.712v19.806C121.116,84.752,35.045,178.172,35.045,291.148  C35.045,412.927,134.256,512,256.035,512s220.921-99.073,220.921-220.852C476.955,245.091,462.845,202.288,438.635,166.859z   M414.118,116.227c3.627-3.627,9.681-3.627,13.308,0l12.524,12.524c3.627,3.627,3.627,9.681,0,13.308l-11.309,11.309  c-7.629-9.529-16.025-18.415-25.102-26.563L414.118,116.227z M219.64,16.605h71.957v18.819H219.64V16.605z M246.209,70.85V52.03  h18.819V70.85H246.209z M256.172,495.395c-112.622,0-204.246-91.624-204.246-204.246S143.55,86.902,256.172,86.902  s204.246,91.624,204.246,204.246S368.794,495.395,256.172,495.395z"/>
<path d="M371.982,169.837c-3.317-3.166-8.572-3.045-11.739,0.271c-3.166,3.317-3.045,8.848,0.271,12.016  c28.146,26.876,44.485,62.529,46.542,101.275h-18.039c-4.585,0-8.303,3.717-8.303,8.303s3.717,8.303,8.303,8.303h18.035  c-4.176,76.385-65.637,137.846-143.129,142.022v-18.035c0-4.585-3.717-8.303-8.303-8.303c-4.585,0-8.303,3.717-8.303,8.303v18.035  c-76.386-4.176-137.847-65.637-142.023-142.022h18.035c4.585,0,8.303-3.717,8.303-8.303s-3.717-8.303-8.303-8.303h-18.035  c4.176-77.492,65.637-138.953,142.022-143.129v18.035c0,4.585,3.717,8.303,8.303,8.303c4.585,0,8.303-3.717,8.303-8.303v-18.02  c24.355,1.305,47.249,8.182,67.789,20.119c3.965,2.305,9.184,0.959,11.489-3.007c2.305-3.964,1.027-9.046-2.937-11.35  c-25.454-14.794-54.521-22.613-84.124-22.613c-92.479,0-167.697,75.236-167.697,167.715s75.245,167.715,167.723,167.715  s167.718-75.236,167.718-167.715C423.882,244.882,405.454,201.799,371.982,169.837z"/>
<path d="M291.597,254.616c13.735,0,24.908-11.173,24.908-24.908S305.332,204.8,291.597,204.8h-11.07v-2.214  c0-13.735-11.173-24.908-24.908-24.908s-24.908,11.173-24.908,24.908v2.268c-19.926,3.43-35.425,20.964-35.425,42.013v26.569  c0,23.501,19.673,43.174,43.174,43.174h27.676v12.177h-45.388c-13.735,0-24.908,11.173-24.908,24.908  c0,13.735,11.174,24.908,24.908,24.908h9.963v1.107c0,13.735,11.173,24.908,24.908,24.908s24.908-11.173,24.908-24.908v-2.268  c21.034-3.43,35.425-20.964,35.425-42.013v-26.569c0-23.501-18.566-42.067-42.067-42.067h-28.783v-12.177H291.597z M238.46,283.399  h35.425c14.345,0,25.462,11.117,25.462,25.462v26.569c0,14.345-11.117,26.569-25.462,26.569h-1.107  c-4.585,0-8.856,3.164-8.856,7.749v9.963c0,4.579-3.724,8.303-8.303,8.303s-8.303-3.724-8.303-8.303v-9.963  c0-4.585-3.164-7.749-7.749-7.749h-18.819c-4.579,0-8.303-3.724-8.303-8.303c0-4.579,3.724-8.303,8.303-8.303h53.137  c5.189,0,8.856-4.775,8.856-9.963v-26.569c0-5.189-3.668-8.856-8.856-8.856H238.46c-14.345,0-26.569-12.224-26.569-26.569v-26.569  c0-14.345,12.224-25.462,26.569-25.462h1.107c4.585,0,7.749-4.271,7.749-8.856v-9.963c0-4.579,3.724-8.303,8.303-8.303  s8.303,3.724,8.303,8.303v9.963c0,4.585,4.271,8.856,8.856,8.856h18.819c4.579,0,8.303,3.724,8.303,8.303s-3.724,8.303-8.303,8.303  H238.46c-5.189,0-9.963,3.668-9.963,8.856v26.569C228.496,278.624,233.271,283.399,238.46,283.399z"/>
<g>
</g>
<g>
</g>
<g>
</g>
<g>
</g>
<g>
</g>
<g>
</g>
<g>
</g>
<g>
</g>
<g>
</g>
<g>
</g>
<g>
</g>
<g>
</g>
<g>
</g>
<g>
</g>
<g>
</g>
</svg>
