<?xml version="1.0" encoding="iso-8859-1"?>
<!-- Generator: Adobe Illustrator 19.0.0, SVG Export Plug-In . SVG Version: 6.00 Build 0)  -->
<svg version="1.1" id="Layer_1" xmlns="http://www.w3.org/2000/svg" xmlns:xlink="http://www.w3.org/1999/xlink" x="0px" y="0px"
	 viewBox="0 0 512 512" style="enable-background:new 0 0 512 512;" xml:space="preserve">
<path style="fill:#4C4E55;" d="M238.933,85.331c0.001-4.64-3.893-8.537-8.533-8.537h-68.267c-4.64,0-8.534,3.895-8.533,8.537
	v409.595c-0.001,4.641,3.895,8.535,8.533,8.535H230.4c4.638,0,8.534-3.894,8.533-8.535V85.331z M208.334,119.461l13.533-13.532
	v27.065L208.334,119.461z M218.333,153.594l-22.066,22.066l-22.066-22.066l22.066-22.065L218.333,153.594z M196.267,107.394
	l-13.533-13.533h27.065L196.267,107.394z M184.199,119.461l-13.533,13.533v-27.065L184.199,119.461z M184.199,187.728
	l-13.533,13.533v-27.065L184.199,187.728z M196.267,199.796l22.066,22.066l-22.066,22.065l-22.066-22.066L196.267,199.796z
	 M184.199,255.994l-13.533,13.533v-27.065L184.199,255.994z M196.267,268.063l22.066,22.066l-22.066,22.065l-22.066-22.066
	L196.267,268.063z M184.199,324.261l-13.533,13.533v-27.065L184.199,324.261z M196.267,336.329l22.066,22.066l-22.066,22.065
	l-22.066-22.066L196.267,336.329z M184.199,392.528l-13.533,13.533v-27.065L184.199,392.528z M196.267,404.596l22.066,22.066
	l-22.066,22.065l-22.066-22.066L196.267,404.596z M184.199,460.794l-13.533,13.533v-27.065L184.199,460.794z M196.267,472.863
	l13.533,13.533h-27.065L196.267,472.863z M208.334,460.794l13.533-13.532v27.065L208.334,460.794z M208.334,392.528l13.533-13.532
	v27.065L208.334,392.528z M208.334,324.261l13.533-13.532v27.065L208.334,324.261z M208.334,255.994l13.533-13.532v27.065
	L208.334,255.994z M208.334,187.728l13.533-13.532v27.065L208.334,187.728z"/>
<path style="fill:#606268;" d="M409.6,76.794h-41.023L199.436,9.139c-2.47-0.991-5.376-0.742-7.642,0.655L82.917,76.794H25.6
	c-4.713,0-8.533,3.821-8.533,8.533c0,4.713,3.821,8.533,8.533,8.533h384c4.713,0,8.533-3.821,8.533-8.533
	C418.133,80.615,414.313,76.794,409.6,76.794z M197.084,26.579l125.54,50.217H115.483L197.084,26.579z"/>
<path style="fill:#AFB0B4;" d="M110.933,93.861h-51.2c-4.713,0-8.533,2.865-8.533,6.4v38.4c0,3.535,3.821,6.4,8.533,6.4h51.2
	c4.713,0,8.533-2.865,8.533-6.4v-38.4C119.467,96.726,115.646,93.861,110.933,93.861z"/>
<path style="fill:#9B9DA1;" d="M68.267,138.661v-38.4c0-3.535,3.821-6.4,8.533-6.4H59.733c-4.713,0-8.533,2.865-8.533,6.4v38.4
	c0,3.535,3.821,6.4,8.533,6.4H76.8C72.087,145.061,68.267,142.196,68.267,138.661z"/>
<path style="fill:#74757B;" d="M416.156,173.732l-40.689-48.827V85.328c0-4.713-3.821-8.533-8.533-8.533s-8.533,3.821-8.533,8.533
	v39.577l-40.689,48.827c-3.017,3.621-2.528,9.002,1.092,12.019c3.619,3.017,9.001,2.527,12.019-1.092l36.111-43.333l36.111,43.333
	c1.689,2.025,4.115,3.07,6.56,3.07c1.926,0,3.863-0.649,5.458-1.978C418.684,182.734,419.172,177.352,416.156,173.732z"/>
<path style="fill:#74DBC9;" d="M230.4,34.128h-68.267c-4.713,0-8.533,3.821-8.533,8.533v42.667c0,4.713,3.821,8.533,8.533,8.533
	H230.4c4.713,0,8.533-3.821,8.533-8.533V42.661C238.933,37.949,235.113,34.128,230.4,34.128z"/>
<rect x="153.6" y="51.194" style="fill:#EBEBEC;" width="85.333" height="25.6"/>
<path style="fill:#6AC8B7;" d="M170.667,85.328V42.661c0-4.713,3.821-8.533,8.533-8.533h-17.067c-4.713,0-8.533,3.821-8.533,8.533
	v42.667c0,4.713,3.821,8.533,8.533,8.533H179.2C174.487,93.861,170.667,90.041,170.667,85.328z"/>
<rect x="153.6" y="51.194" style="fill:#D7D8D9;" width="17.067" height="25.6"/>
<path style="fill:#FDDD85;" d="M129.067,392.528H24.533c-4.124,0-7.467,3.233-7.467,7.22v79.426c0,3.988,3.343,7.22,7.467,7.22
	h104.533c4.124,0,7.467-3.233,7.467-7.22v-79.426C136.533,395.761,133.19,392.528,129.067,392.528z"/>
<path style="fill:#FDD042;" d="M33.067,477.861c-4.124,0-7.467-3.233-7.467-7.22v-78.113h-1.067c-4.124,0-7.467,3.233-7.467,7.22
	v79.425c0,3.988,3.343,7.22,7.467,7.22h104.533c4.124,0,7.467-3.233,7.467-7.22v-1.313H33.067V477.861z"/>
<g>
	<path style="fill:#F2C127;" d="M76.8,469.328c-4.713,0-8.533-3.821-8.533-8.533v-42.667c0-4.713,3.821-8.533,8.533-8.533
		s8.533,3.821,8.533,8.533v42.667C85.333,465.508,81.513,469.328,76.8,469.328z"/>
	<path style="fill:#F2C127;" d="M102.4,469.328c-4.713,0-8.533-3.821-8.533-8.533v-42.667c0-4.713,3.821-8.533,8.533-8.533
		c4.713,0,8.533,3.821,8.533,8.533v42.667C110.933,465.508,107.113,469.328,102.4,469.328z"/>
	<path style="fill:#F2C127;" d="M51.2,469.328c-4.713,0-8.533-3.821-8.533-8.533v-42.667c0-4.713,3.821-8.533,8.533-8.533
		s8.533,3.821,8.533,8.533v42.667C59.733,465.508,55.913,469.328,51.2,469.328z"/>
</g>
<path style="fill:#FDDD85;" d="M427.733,298.661H323.2c-4.124,0-7.467,3.233-7.467,7.22v79.426c0,3.988,3.343,7.22,7.467,7.22
	h104.533c4.124,0,7.467-3.233,7.467-7.22v-79.426C435.2,301.894,431.857,298.661,427.733,298.661z"/>
<path style="fill:#FDD042;" d="M331.733,383.994c-4.124,0-7.467-3.233-7.467-7.22v-78.113H323.2c-4.124,0-7.467,3.233-7.467,7.22
	v79.425c0,3.988,3.343,7.22,7.467,7.22h104.533c4.124,0,7.467-3.233,7.467-7.22v-1.313H331.733V383.994z"/>
<g>
	<path style="fill:#F2C127;" d="M375.467,375.461c-4.713,0-8.533-3.821-8.533-8.533v-42.667c0-4.713,3.821-8.533,8.533-8.533
		c4.713,0,8.533,3.821,8.533,8.533v42.667C384,371.641,380.179,375.461,375.467,375.461z"/>
	<path style="fill:#F2C127;" d="M401.067,375.461c-4.713,0-8.533-3.821-8.533-8.533v-42.667c0-4.713,3.821-8.533,8.533-8.533
		s8.533,3.821,8.533,8.533v42.667C409.6,371.641,405.779,375.461,401.067,375.461z"/>
	<path style="fill:#F2C127;" d="M349.867,375.461c-4.713,0-8.533-3.821-8.533-8.533v-42.667c0-4.713,3.821-8.533,8.533-8.533
		c4.713,0,8.533,3.821,8.533,8.533v42.667C358.4,371.641,354.579,375.461,349.867,375.461z"/>
</g>
<path style="fill:#F07B52;" d="M419.2,170.661H314.667c-4.124,0-7.467,3.233-7.467,7.22v79.426c0,3.988,3.343,7.22,7.467,7.22H419.2
	c4.124,0,7.467-3.233,7.467-7.22v-79.426C426.667,173.894,423.324,170.661,419.2,170.661z"/>
<g>
	<path style="fill:#E5563C;" d="M323.2,255.994c-4.124,0-7.467-3.233-7.467-7.22v-78.113h-1.067c-4.124,0-7.467,3.233-7.467,7.22
		v79.425c0,3.988,3.343,7.22,7.467,7.22H419.2c4.124,0,7.467-3.233,7.467-7.22v-1.313H323.2V255.994z"/>
	<path style="fill:#E5563C;" d="M366.933,247.461c-4.713,0-8.533-3.821-8.533-8.533v-42.667c0-4.713,3.821-8.533,8.533-8.533
		s8.533,3.821,8.533,8.533v42.667C375.467,243.641,371.646,247.461,366.933,247.461z"/>
	<path style="fill:#E5563C;" d="M392.533,247.461c-4.713,0-8.533-3.821-8.533-8.533v-42.667c0-4.713,3.821-8.533,8.533-8.533
		s8.533,3.821,8.533,8.533v42.667C401.067,243.641,397.246,247.461,392.533,247.461z"/>
	<path style="fill:#E5563C;" d="M341.333,247.461c-4.713,0-8.533-3.821-8.533-8.533v-42.667c0-4.713,3.821-8.533,8.533-8.533
		c4.713,0,8.533,3.821,8.533,8.533v42.667C349.867,243.641,346.046,247.461,341.333,247.461z"/>
</g>
<path style="fill:#F07B52;" d="M487.467,392.528H382.933c-4.124,0-7.467,3.233-7.467,7.22v79.426c0,3.988,3.343,7.22,7.467,7.22
	h104.533c4.124,0,7.467-3.233,7.467-7.22v-79.426C494.933,395.761,491.59,392.528,487.467,392.528z"/>
<g>
	<path style="fill:#E5563C;" d="M391.467,477.861c-4.124,0-7.467-3.233-7.467-7.22v-78.113h-1.067c-4.124,0-7.467,3.233-7.467,7.22
		v79.425c0,3.988,3.343,7.22,7.467,7.22h104.533c4.124,0,7.467-3.233,7.467-7.22v-1.313H391.467V477.861z"/>
	<path style="fill:#E5563C;" d="M435.2,469.328c-4.713,0-8.533-3.821-8.533-8.533v-42.667c0-4.713,3.821-8.533,8.533-8.533
		c4.713,0,8.533,3.821,8.533,8.533v42.667C443.733,465.508,439.913,469.328,435.2,469.328z"/>
	<path style="fill:#E5563C;" d="M460.8,469.328c-4.713,0-8.533-3.821-8.533-8.533v-42.667c0-4.713,3.821-8.533,8.533-8.533
		s8.533,3.821,8.533,8.533v42.667C469.333,465.508,465.513,469.328,460.8,469.328z"/>
	<path style="fill:#E5563C;" d="M409.6,469.328c-4.713,0-8.533-3.821-8.533-8.533v-42.667c0-4.713,3.821-8.533,8.533-8.533
		c4.713,0,8.533,3.821,8.533,8.533v42.667C418.133,465.508,414.313,469.328,409.6,469.328z"/>
</g>
<path style="fill:#FDDD85;" d="M368,392.528H263.467c-4.124,0-7.467,3.233-7.467,7.22v79.426c0,3.988,3.343,7.22,7.467,7.22H368
	c4.124,0,7.467-3.233,7.467-7.22v-79.426C375.467,395.761,372.124,392.528,368,392.528z"/>
<path style="fill:#FDD042;" d="M272,477.861c-4.124,0-7.467-3.233-7.467-7.22v-78.113h-1.067c-4.124,0-7.467,3.233-7.467,7.22
	v79.425c0,3.988,3.343,7.22,7.467,7.22H368c4.124,0,7.467-3.233,7.467-7.22v-1.313H272V477.861z"/>
<g>
	<path style="fill:#F2C127;" d="M315.733,469.328c-4.713,0-8.533-3.821-8.533-8.533v-42.667c0-4.713,3.821-8.533,8.533-8.533
		c4.713,0,8.533,3.821,8.533,8.533v42.667C324.267,465.508,320.446,469.328,315.733,469.328z"/>
	<path style="fill:#F2C127;" d="M341.333,469.328c-4.713,0-8.533-3.821-8.533-8.533v-42.667c0-4.713,3.821-8.533,8.533-8.533
		c4.713,0,8.533,3.821,8.533,8.533v42.667C349.867,465.508,346.046,469.328,341.333,469.328z"/>
	<path style="fill:#F2C127;" d="M290.133,469.328c-4.713,0-8.533-3.821-8.533-8.533v-42.667c0-4.713,3.821-8.533,8.533-8.533
		c4.713,0,8.533,3.821,8.533,8.533v42.667C298.667,465.508,294.846,469.328,290.133,469.328z"/>
</g>
<path style="fill:#88898E;" d="M503.467,503.461H8.533c-4.713,0-8.533-3.821-8.533-8.533c0-4.713,3.821-8.533,8.533-8.533h494.933
	c4.713,0,8.533,3.821,8.533,8.533C512,499.64,508.179,503.461,503.467,503.461z"/>
<g>
</g>
<g>
</g>
<g>
</g>
<g>
</g>
<g>
</g>
<g>
</g>
<g>
</g>
<g>
</g>
<g>
</g>
<g>
</g>
<g>
</g>
<g>
</g>
<g>
</g>
<g>
</g>
<g>
</g>
</svg>
